<svg width="618" height="557" viewBox="0 0 618 557" fill="none" xmlns="http://www.w3.org/2000/svg">
<path d="M546.579 316.361L549.598 312.376L549.4 312.226L549.189 312.097L546.579 316.361ZM551.451 316.361L549.115 311.94L548.952 312.027L548.794 312.125L551.451 316.361ZM497.668 274.197L501.627 271.143L501.575 271.075L501.52 271.009L497.668 274.197ZM496.45 267.919L501.126 269.688L501.142 269.647L501.157 269.605L496.45 267.919ZM512.274 247.648L509.191 243.711L509.191 243.712L512.274 247.648ZM512.574 247.265L517.139 249.305L517.139 249.305L512.574 247.265ZM520.343 229.877L524.908 231.917L524.926 231.876L524.944 231.835L520.343 229.877ZM520.343 226.036L525.158 224.687L525.154 224.675L520.343 226.036ZM454.788 95.0453L450.86 98.138L450.86 98.138L454.788 95.0453ZM454.219 94.6844L453.112 99.5604V99.5604L454.219 94.6844ZM425.346 90.2442L424.802 95.2145L424.803 95.2146L425.346 90.2442ZM423.833 90.0786L424.377 85.1083L424.307 85.1005L424.236 85.0948L423.833 90.0786ZM348.743 89.132L348.047 84.1807L348.743 89.132ZM347.604 87.9658L352.539 88.7663L352.539 88.7663L347.604 87.9658ZM343.053 29.3771L338.153 30.3747L338.153 30.3748L343.053 29.3771ZM342.006 28.568L342.289 33.56L342.006 28.568ZM247.55 28.495L247.255 33.4863L247.55 28.495ZM246.63 27.2804L251.494 28.4426L251.494 28.4425L246.63 27.2804ZM258.709 8.56904L262.091 12.252L262.091 12.2518L258.709 8.56904ZM259.206 8.32084L260.112 13.2382L260.112 13.2382L259.206 8.32084ZM294.81 5V0H294.723L294.635 0.00305128L294.81 5ZM310.739 5L310.982 0.00590229L310.86 0H310.739V5ZM341.566 6.49918L341.972 1.51576L341.891 1.50907L341.808 1.50508L341.566 6.49918ZM378.296 9.49755L377.889 14.481L377.953 14.4862L378.017 14.4898L378.296 9.49755ZM406.593 11.9337L407.282 6.98152L407.207 6.97104L407.132 6.96285L406.593 11.9337ZM457.601 23.9317L459.242 19.2084V19.2084L457.601 23.9317ZM458.252 24.6567L453.374 25.7579L453.374 25.7581L458.252 24.6567ZM445.583 68.9548L449.575 71.9658L449.575 71.9658L445.583 68.9548ZM447.033 70.4182L450.09 74.3747L450.09 74.3747L447.033 70.4182ZM478.179 54.6604L477.929 49.6666L477.78 49.6741L477.632 49.6904L478.179 54.6604ZM503.239 59.0815L501.713 63.8429L501.713 63.8429L503.239 59.0815ZM503.652 59.336L500.08 62.8346L500.08 62.8347L503.652 59.336ZM609.919 244.869L614.721 243.475L614.683 243.343L614.637 243.214L609.919 244.869ZM611.981 256.675H616.981V256.538L616.973 256.402L611.981 256.675ZM611.981 262.672H606.981V262.735L606.982 262.797L611.981 262.672ZM610.373 271.992L605.979 269.606L605.979 269.606L610.373 271.992ZM610.173 272.247L613.554 275.93L613.555 275.929L610.173 272.247ZM328.159 68.9965L324.307 72.1852L333.066 68.0407L328.159 68.9965ZM309.513 50.4441L312.69 46.5833L310.05 44.4108L307.068 46.0827L309.513 50.4441ZM323.286 43.9789L328.194 43.023L327.427 39.0864L323.418 38.9806L323.286 43.9789ZM157.908 51.1937L157.211 46.2425L154.483 46.6265L153.35 49.1375L157.908 51.1937ZM131.204 138.24L126.31 137.216L126.22 137.646L126.206 138.084L131.204 138.24ZM134.202 167.943L129.356 169.174L129.495 169.72L129.751 170.221L134.202 167.943ZM223.403 315.237L219.589 318.47L221.185 320.353L223.65 320.231L223.403 315.237ZM302.954 295.467L304.734 300.139L314.546 296.401L305.459 291.14L302.954 295.467ZM219.843 234.469L214.957 235.533L215.274 236.985L216.332 238.029L219.843 234.469ZM219.834 234.429L224.72 233.365L224.72 233.365L219.834 234.429ZM156.596 90.2661L159.506 86.2L153.181 93.9181L156.596 90.2661ZM205.226 116.408L203.755 121.187L206.074 121.901L208.07 120.52L205.226 116.408ZM276.902 94.2948L272.663 91.6434L267.358 100.125L277.326 99.2768L276.902 94.2948ZM302.951 69.1834L307.156 66.4798L304.369 62.1432L300.12 65.0621L302.951 69.1834ZM314.382 94.0137L313.27 98.8886L321.827 100.839L319.142 92.4842L314.382 94.0137ZM255.062 161.664L259.713 163.499L259.977 162.831L260.042 162.117L255.062 161.664ZM235.104 192.21L230.653 194.487L233.76 200.563L238.617 195.768L235.104 192.21ZM262.745 129.807L260.059 125.59L258.837 126.368L258.22 127.68L262.745 129.807ZM288.138 118.563L287.927 113.567L287.521 113.584L287.122 113.667L288.138 118.563ZM425.126 153.981L429.498 151.556L429.069 150.781L428.399 150.201L425.126 153.981ZM452.392 256.394L454.784 260.785L456.94 259.61L457.329 257.185L452.392 256.394ZM243.818 335.851L244.187 340.837L244.603 340.806L245.009 340.707L243.818 335.851ZM117.887 340.817L117.855 335.817L111.561 335.857L113.024 341.979L117.887 340.817ZM142.998 417.087L138.457 419.18L139.711 421.9L142.7 422.078L142.998 417.087ZM258.623 409.966L259.409 414.904L259.596 414.874L259.779 414.831L258.623 409.966ZM400.577 371.925L401.985 376.722L403.067 376.405L403.908 375.653L400.577 371.925ZM434.683 328.636L438.965 331.218L443.545 323.622L434.675 323.636L434.683 328.636ZM356.725 331.821L354.742 327.232L357.117 336.806L356.725 331.821ZM498.023 235.874L501.915 239.013L503.42 237.147L502.908 234.807L498.023 235.874ZM459.701 134.023L464.107 131.661L463.962 131.391L463.785 131.14L459.701 134.023ZM437.681 108.256L441.15 104.655L439.853 103.406L438.058 103.27L437.681 108.256ZM276.988 107.694L276.637 102.706L276.321 102.728L276.01 102.79L276.988 107.694ZM258.904 111.629L259.912 116.526L259.989 116.51L260.065 116.492L258.904 111.629ZM210.18 130.181L207.898 125.733L204.258 127.6L205.368 131.538L210.18 130.181ZM282.439 180.029L278.547 176.891L277.888 177.708L277.613 178.721L282.439 180.029ZM313.36 168.036L315.184 163.381L314.338 163.049L313.428 163.036L313.36 168.036ZM285.719 204.953L281.501 207.638L282.953 209.92L285.658 209.953L285.719 204.953ZM340.158 195.958L342.803 200.201L343.353 199.858L343.797 199.386L340.158 195.958ZM343.437 186.12L348.437 186.086L348.428 184.71L347.716 183.533L343.437 186.12ZM286.472 162.414L289.867 166.085L290.208 165.769L290.485 165.397L286.472 162.414ZM272.979 168.785L268.032 169.509L268.844 175.058L274.263 173.618L272.979 168.785ZM327.512 138.989L328.64 143.86L336.864 141.955L331.242 135.659L327.512 138.989ZM322.827 133.742L326.557 130.412L325.398 129.114L323.684 128.816L322.827 133.742ZM290.97 131.681L290.653 126.691L290.346 126.71L290.045 126.767L290.97 131.681ZM273.916 143.112L269.898 140.136L269.391 140.821L269.139 141.636L273.916 143.112ZM357.489 180.966L352.818 182.75L353.859 185.476L356.744 185.911L357.489 180.966ZM370.794 181.716L370.906 186.715L370.987 186.713L371.068 186.709L370.794 181.716ZM347.744 163.164L351.046 159.409L350.162 158.631L349.024 158.33L347.744 163.164ZM313.263 160.54L308.895 158.107L304.46 166.068L313.558 165.531L313.263 160.54ZM336.688 143.674L336.89 138.678L336.247 138.652L335.618 138.79L336.688 143.674ZM354.303 147.984L357.282 143.968L356.957 143.727L356.598 143.542L354.303 147.984ZM381.101 179.655L382.5 184.455L389.19 182.506L385.201 176.792L381.101 179.655ZM402.464 150.983L406.023 147.471L405.036 146.47L403.671 146.131L402.464 150.983ZM367.046 143.112L368.049 138.213L363.84 146.949L367.046 143.112ZM434.697 226.879L439.176 229.102L439.698 228.05L439.697 226.875L434.697 226.879ZM406.962 258.924L401.987 258.421L400.778 270.396L410.116 262.803L406.962 258.924ZM264.883 188.71L259.907 189.201V189.202L264.883 188.71ZM263.326 188.016L266.42 191.943L263.326 188.016ZM274.613 215.594L278.206 212.117L278.206 212.117L274.613 215.594ZM275.149 215.879L276.038 210.959L276.038 210.959L275.149 215.879ZM290.39 218.634L289.501 223.554L289.687 223.588L289.875 223.607L290.39 218.634ZM309.317 218.821L309.666 223.809L309.698 223.807L309.73 223.804L309.317 218.821ZM383.477 203.823L382.131 199.008L382.131 199.008L383.477 203.823ZM384.472 205.555L380.967 201.989L380.967 201.989L384.472 205.555ZM374.532 217.509L378.328 220.763L378.491 220.573L378.634 220.368L374.532 217.509ZM372.283 220.133L375.991 223.487L376.036 223.438L376.079 223.387L372.283 220.133ZM365.537 226.692L368.71 230.555L368.754 230.52L368.796 230.484L365.537 226.692ZM360.29 231.002L357.116 227.138L357.108 227.145L360.29 231.002ZM318.732 258.591L316.074 254.356L316.074 254.356L318.732 258.591ZM318.229 258.746L318.4 263.743H318.4L318.229 258.746ZM301.072 257.238L299.372 261.94L299.697 262.057L300.036 262.129L301.072 257.238ZM238.731 221.812L235.519 225.644L235.519 225.644L238.731 221.812ZM238.385 220.885L233.453 220.065L233.452 220.065L238.385 220.885ZM241.046 210.204L245.822 211.681L245.822 211.681L241.046 210.204ZM241.229 209.864L245.07 213.064L245.071 213.064L241.229 209.864ZM335.587 287.825L334.68 282.908H334.68L335.587 287.825ZM334.66 286.184L330.923 282.862L330.923 282.862L334.66 286.184ZM385.96 273.764L387.783 278.42L387.783 278.42L385.96 273.764ZM386.595 272.933L391.567 273.462V273.462L386.595 272.933ZM386.064 238.225L381.124 238.992V238.992L386.064 238.225ZM384.413 237.638L387.717 241.391L387.717 241.391L384.413 237.638ZM104.338 305.97L107.838 309.54L107.838 309.54L104.338 305.97ZM105.127 307.679L105.575 312.659H105.575L105.127 307.679ZM140.757 270.261L137.289 266.659L137.273 266.675L137.257 266.691L140.757 270.261ZM142.147 268.931L145.599 272.547L145.599 272.547L142.147 268.931ZM151.158 256.113L155.954 257.527L155.958 257.512L155.962 257.497L151.158 256.113ZM156.919 240.948L161.41 243.145L161.41 243.145L156.919 240.948ZM158.702 240.947L154.229 243.181L154.229 243.181L158.702 240.947ZM186.988 284.3L183.164 287.522L183.164 287.522L186.988 284.3ZM186.697 285.837L189.051 290.248L186.697 285.837ZM175.764 291.746L173.373 287.355L173.361 287.361L175.764 291.746ZM175.76 291.748L173.358 287.363L173.272 287.41L173.188 287.46L175.76 291.748ZM175.759 291.748L178.167 296.13L178.25 296.085L178.332 296.036L175.759 291.748ZM175.755 291.751L178.149 296.14L178.156 296.136L178.163 296.133L175.755 291.751ZM175.752 291.752L178.143 296.144L178.146 296.142L175.752 291.752ZM154.61 302.968L156.883 307.421L156.884 307.421L154.61 302.968ZM154.243 303.074L153.776 298.096L153.776 298.096L154.243 303.074ZM131.78 305.193L131.309 300.215L131.279 300.218L131.25 300.221L131.78 305.193ZM131.778 305.193L132.252 310.171L132.28 310.168L132.309 310.165L131.778 305.193ZM131.748 305.196L132.217 310.174L132.222 310.173L131.748 305.196ZM131.703 305.2L131.234 300.222L131.232 300.222L131.703 305.2ZM481.318 305.482L486.294 305.964L481.318 305.482ZM483.082 304.905L486.839 301.606L483.082 304.905ZM407.338 478.85L411.42 481.737L411.42 481.737L407.338 478.85ZM405.532 478.142L400.592 477.368L400.592 477.368L405.532 478.142ZM432.381 373.516L437.145 375.035V375.035L432.381 373.516ZM430.899 372.336L428.368 368.024L428.368 368.024L430.899 372.336ZM179.523 451.817L179.064 446.838H179.064L179.523 451.817ZM178.684 453.216L183.279 451.242L183.279 451.242L178.684 453.216ZM236.964 538.304L240.585 534.857L240.584 534.856L236.964 538.304ZM237.459 538.59L238.609 533.724L238.609 533.724L237.459 538.59ZM396.534 551.07L396.421 556.069H396.421L396.534 551.07ZM397.088 550.922L399.698 555.186L399.699 555.186L397.088 550.922ZM556.244 413.852L552.452 410.593L552.452 410.593L556.244 413.852ZM556.381 412.738L560.847 410.49L560.847 410.49L556.381 412.738ZM184.962 524.648L181.218 527.961L181.218 527.961L184.962 524.648ZM184.296 526.32L183.889 521.337H183.889L184.296 526.32ZM150.471 460.462L155.461 460.146L150.471 460.462ZM149.394 459.505L149.105 454.513L149.105 454.513L149.394 459.505ZM71.4974 435.116L73.6319 430.595L73.6318 430.595L71.4974 435.116ZM70.0625 436.152L65.1033 436.79L70.0625 436.152ZM96.4181 518.335L100.607 515.605L100.606 515.604L96.4181 518.335ZM97.0001 518.757L98.3014 513.93L98.3013 513.93L97.0001 518.757ZM62.0851 318.317L66.8292 316.738L66.8291 316.737L62.0851 318.317ZM62.1142 317.604L57.5166 315.639L57.5165 315.639L62.1142 317.604ZM91.7611 363.492L95.7867 360.526L95.6724 360.371L95.5466 360.225L91.7611 363.492ZM114.249 407.905L109.325 408.776L114.249 407.905ZM105.524 421.148L105.713 416.152L105.524 421.148ZM97.1956 421.023L97.2967 426.022L97.2968 426.022L97.1956 421.023ZM29.839 390.1L26.2441 393.575L26.2443 393.575L29.839 390.1ZM29.4056 389.35L33.9773 387.325L33.9773 387.325L29.4056 389.35ZM29.2157 388.952L33.585 386.521L33.585 386.521L29.2157 388.952ZM5.00181 251.619L0.0107656 251.918L0.0107689 251.918L5.00181 251.619ZM5.00869 251.426L0.0524273 250.766H0.0524268L5.00869 251.426ZM13.9911 183.965L18.9473 184.625L18.9716 184.443L18.9824 184.259L13.9911 183.965ZM42.4755 119.687L44.8471 124.089L45.0003 124.007L45.1474 123.914L42.4755 119.687ZM110.213 102.302L109.892 97.312L109.892 97.312L110.213 102.302ZM111.168 102.847L115.676 100.684L115.676 100.684L111.168 102.847ZM112.937 109.755L117.922 109.365L117.914 109.261L117.901 109.158L112.937 109.755ZM111.813 120.999L116.55 122.599L116.567 122.547L116.584 122.495L111.813 120.999ZM105.502 140.961L100.701 139.566L105.502 140.961ZM104.166 145.417L99.4029 143.897L99.4028 143.897L104.166 145.417ZM103.208 146.106L103.174 151.106H103.174L103.208 146.106ZM60.214 142.084L59.3384 147.006L59.3384 147.006L60.214 142.084ZM59.5792 144.026L61.753 139.523L61.753 139.523L59.5792 144.026ZM96.3268 162.911L98.7217 158.522L98.7214 158.522L96.3268 162.911ZM96.5449 163.072L93.0738 166.67L93.0738 166.67L96.5449 163.072ZM121.236 244.992L125.076 248.195L125.076 248.195L121.236 244.992ZM121.119 245.111L124.382 248.899L124.382 248.899L121.119 245.111ZM543.56 320.347C544.903 321.364 546.764 322.42 549.156 322.34C551.329 322.267 553.06 321.255 554.108 320.597L548.794 312.125C548.412 312.365 548.252 312.439 548.222 312.451C548.219 312.452 548.444 312.358 548.822 312.346C549.008 312.339 549.192 312.354 549.364 312.387C549.534 312.42 549.662 312.463 549.742 312.496C549.883 312.554 549.85 312.567 549.598 312.376L543.56 320.347ZM493.709 277.251C508.385 296.276 519.774 305.82 543.969 320.626L549.189 312.097C525.762 297.761 515.386 288.98 501.627 271.143L493.709 277.251ZM491.773 266.15C491.311 267.371 490.666 269.263 490.97 271.529C491.277 273.81 492.426 275.705 493.816 277.384L501.52 271.009C500.701 270.02 500.835 269.85 500.881 270.197C500.926 270.529 500.775 270.616 501.126 269.688L491.773 266.15ZM509.191 243.712C504.422 247.446 500.86 250.677 498.079 254.242C495.248 257.871 493.391 261.632 491.743 266.233L501.157 269.605C502.561 265.684 503.969 262.95 505.963 260.393C508.007 257.773 510.831 255.129 515.357 251.584L509.191 243.712ZM508.009 245.225C508.283 244.613 508.695 244.1 509.191 243.711L515.356 251.585C516.11 250.994 516.732 250.216 517.139 249.305L508.009 245.225ZM515.778 227.838L508.009 245.226L517.139 249.305L524.908 231.917L515.778 227.838ZM515.528 227.385C515.63 227.748 515.683 227.965 515.713 228.111C515.74 228.246 515.732 228.253 515.731 228.186C515.728 228.103 515.737 228 515.756 227.907C515.773 227.824 515.785 227.819 515.742 227.92L524.944 231.835C525.461 230.619 525.765 229.348 525.727 227.92C525.694 226.658 525.39 225.515 525.158 224.687L515.528 227.385ZM450.86 98.138C470.818 123.492 483.362 143.133 492.71 162.67C502.069 182.232 508.31 201.866 515.532 227.397L525.154 224.675C517.902 199.037 511.475 178.722 501.73 158.354C491.974 137.961 478.978 117.691 458.717 91.9527L450.86 98.138ZM453.112 99.5604C452.203 99.3539 451.417 98.8462 450.86 98.138L458.717 91.9527C457.877 90.8855 456.681 90.1161 455.326 89.8085L453.112 99.5604ZM424.803 95.2146C435.988 96.4383 442.515 97.1549 453.112 99.5604L455.326 89.8085C444.128 87.2666 437.11 86.5014 425.89 85.2739L424.803 95.2146ZM423.289 95.0489L424.802 95.2145L425.891 85.2739L424.377 85.1083L423.289 95.0489ZM349.439 94.0833C366.156 91.7325 381.662 91.6885 423.431 95.0623L424.236 85.0948C382.366 81.7127 365.926 81.6664 348.047 84.1807L349.439 94.0833ZM342.668 87.1653C342.022 91.1469 345.415 94.6493 349.439 94.0833L348.047 84.1807C350.723 83.8043 352.967 86.1288 352.539 88.7663L342.668 87.1653ZM338.153 30.3748C344.308 60.5994 344.994 72.8256 342.668 87.1653L352.539 88.7663C355.16 72.6076 354.177 58.947 347.952 28.3794L338.153 30.3748ZM342.289 33.56C340.288 33.6734 338.546 32.305 338.153 30.3747L347.952 28.3795C347.361 25.4762 344.716 23.4064 341.723 23.576L342.289 33.56ZM247.255 33.4863C286.621 35.81 307.531 35.5294 342.289 33.56L341.723 23.576C307.31 25.5259 286.788 25.8024 247.844 23.5036L247.255 33.4863ZM241.767 26.1183C240.871 29.868 243.666 33.2744 247.255 33.4863L247.844 23.5036C250.205 23.643 252.104 25.8895 251.494 28.4426L241.767 26.1183ZM255.328 4.88609C251.127 8.74286 248.159 12.0266 246.02 15.4458C243.839 18.9336 242.677 22.3124 241.767 26.1184L251.494 28.4425C252.25 25.2764 253.081 23.0155 254.498 20.7487C255.959 18.4132 258.197 15.8273 262.091 12.252L255.328 4.88609ZM258.301 3.40346C257.186 3.60872 256.154 4.12763 255.327 4.88625L262.091 12.2518C261.54 12.7576 260.859 13.1006 260.112 13.2382L258.301 3.40346ZM294.635 0.00305128C278.879 0.55377 270.446 1.16781 258.301 3.40346L260.112 13.2382C271.556 11.1316 279.431 10.5406 294.984 9.99695L294.635 0.00305128ZM310.739 0H294.81V10H310.739V0ZM341.808 1.50508L310.982 0.00590229L310.496 9.9941L341.323 11.4933L341.808 1.50508ZM378.702 4.51412L341.972 1.51576L341.159 11.4826L377.889 14.481L378.702 4.51412ZM407.132 6.96285C396.257 5.78381 390.05 5.14517 378.574 4.5053L378.017 14.4898C389.239 15.1155 395.247 15.733 406.054 16.9046L407.132 6.96285ZM459.242 19.2084C437.55 11.6753 426.323 9.63347 407.282 6.98152L405.903 16.8859C424.499 19.4759 435.054 21.3942 455.961 28.655L459.242 19.2084ZM463.129 23.5556C462.669 21.5173 461.179 19.8814 459.242 19.2084L455.961 28.655C454.67 28.2067 453.684 27.1281 453.374 25.7579L463.129 23.5556ZM449.575 71.9658C455.75 63.7793 460.322 56.494 462.722 48.7652C465.169 40.8836 465.245 32.9267 463.129 23.5553L453.374 25.7581C455.184 33.769 455.002 39.9057 453.172 45.7999C451.294 51.8468 447.569 58.0194 441.592 65.9438L449.575 71.9658ZM443.976 66.4616C444.782 65.8387 445.852 65.5294 446.937 65.6661C447.934 65.7918 448.717 66.2598 449.246 66.7957C450.295 67.8564 451.005 70.0699 449.575 71.9658L441.592 65.9437C439.45 68.7827 440.418 72.0891 442.135 73.8263C443.866 75.577 447.223 76.5896 450.09 74.3747L443.976 66.4616ZM477.632 49.6904C464.243 51.1632 455.258 57.7443 443.976 66.4616L450.09 74.3747C461.477 65.5763 468.444 60.7614 478.725 59.6304L477.632 49.6904ZM504.765 54.32C492.937 50.5295 486.634 49.2317 477.929 49.6666L478.428 59.6542C485.371 59.3073 490.336 60.1968 501.713 63.8429L504.765 54.32ZM507.224 55.8373C506.538 55.1369 505.689 54.6163 504.765 54.32L501.713 63.8429C501.097 63.6457 500.539 63.3032 500.08 62.8346L507.224 55.8373ZM614.637 243.214C580.172 144.974 554.208 103.804 507.224 55.8372L500.08 62.8347C545.788 109.5 571.087 149.284 605.201 246.524L614.637 243.214ZM616.973 256.402C616.697 251.353 616.148 248.391 614.721 243.475L605.117 246.263C606.355 250.526 606.757 252.736 606.988 256.948L616.973 256.402ZM616.981 262.672V256.675H606.981V262.672H616.981ZM614.766 274.378C617.135 270.017 617.081 266.621 616.979 262.547L606.982 262.797C607.08 266.687 606.992 267.741 605.979 269.606L614.766 274.378ZM613.555 275.929C614.019 275.503 614.438 274.983 614.767 274.378L605.979 269.606C606.204 269.19 606.485 268.845 606.79 268.565L613.555 275.929ZM553.787 320.782C576.305 308.886 589.75 297.784 613.554 275.93L606.791 268.564C583.184 290.237 570.49 300.648 549.115 311.94L553.787 320.782ZM332.01 65.8077C325.336 57.7478 321.055 53.4679 312.69 46.5833L306.335 54.3048C314.216 60.79 318.044 64.6208 324.307 72.1852L332.01 65.8077ZM318.378 44.9347L323.251 69.9523L333.066 68.0407L328.194 43.023L318.378 44.9347ZM158.605 56.1449C211.483 48.7009 248.958 47.0189 323.154 48.9771L323.418 38.9806C248.854 37.0126 210.796 38.699 157.211 46.2425L158.605 56.1449ZM136.098 139.264C144.466 99.2619 150.178 80.4865 162.465 53.2498L153.35 49.1375C140.673 77.2372 134.773 96.7584 126.31 137.216L136.098 139.264ZM139.048 166.711C136.396 156.278 135.833 150.229 136.201 138.395L126.206 138.084C125.813 150.713 126.442 157.709 129.356 169.174L139.048 166.711ZM227.218 312.004C201.876 282.105 185.175 256.55 138.653 165.664L129.751 170.221C176.347 261.252 193.473 287.656 219.589 318.47L227.218 312.004ZM301.174 290.794C264.011 304.952 247.178 309.057 223.157 310.243L223.65 320.231C249.158 318.971 267.106 314.475 304.734 300.139L301.174 290.794ZM216.332 238.029C242.88 264.213 262.123 277.606 300.448 299.794L305.459 291.14C267.576 269.208 249.1 256.302 223.354 230.909L216.332 238.029ZM214.949 235.493L214.957 235.533L224.728 233.405L224.72 233.365L214.949 235.493ZM153.181 93.9181C191.851 130.08 200.282 168.175 214.949 235.494L224.72 233.365C210.146 166.474 201.289 125.215 160.011 86.6142L153.181 93.9181ZM206.697 111.629C189.961 106.478 179.966 100.841 159.506 86.2L153.686 94.3323C174.56 109.269 185.559 115.586 203.755 121.187L206.697 111.629ZM307.068 46.0827C270.49 66.5883 247.9 80.8088 202.381 112.296L208.07 120.52C253.395 89.167 275.714 75.1235 311.958 54.8055L307.068 46.0827ZM281.141 96.9463C286.838 87.8395 298.294 78.4477 305.781 73.3048L300.12 65.0621C292.354 70.396 279.485 80.7363 272.663 91.6434L281.141 96.9463ZM315.493 89.1388C306.955 87.1922 297.257 87.5449 276.478 89.3128L277.326 99.2768C298.445 97.4799 306.525 97.3508 313.27 98.8886L315.493 89.1388ZM298.745 71.8871C303.762 79.6922 306.111 84.6168 309.621 95.5433L319.142 92.4842C315.398 80.8315 312.698 75.1005 307.156 66.4798L298.745 71.8871ZM250.411 159.83C247.467 167.293 244.942 172.291 242.135 176.469C239.329 180.644 236.122 184.18 231.592 188.652L238.617 195.768C243.332 191.114 247.083 187.035 250.435 182.047C253.784 177.062 256.616 171.35 259.713 163.499L250.411 159.83ZM258.22 127.68C253.08 138.616 251.429 146.385 250.083 161.212L260.042 162.117C261.326 147.976 262.795 141.456 267.271 131.934L258.22 127.68ZM287.122 113.667C277.671 115.628 271.355 118.392 260.059 125.59L265.432 134.024C276.058 127.253 281.239 125.101 289.154 123.459L287.122 113.667ZM428.399 150.201C407.635 132.222 388.698 122.249 366.599 117.229C344.714 112.258 319.992 112.215 287.927 113.567L288.349 123.558C320.416 122.206 343.935 122.336 364.384 126.981C384.62 131.578 402.111 140.666 421.853 157.761L428.399 150.201ZM457.329 257.185C460.02 240.399 459.798 225.948 455.414 209.549C451.075 193.322 442.712 175.386 429.498 151.556L420.753 156.406C433.875 180.071 441.743 197.132 445.753 212.132C449.717 226.961 449.961 239.97 447.455 255.602L457.329 257.185ZM245.009 340.707C328.315 320.281 374.642 304.439 454.784 260.785L450 252.003C370.748 295.173 325.257 310.735 242.628 330.994L245.009 340.707ZM117.919 345.816C165.643 345.509 193.142 344.611 244.187 340.837L243.45 330.864C192.653 334.62 165.381 335.511 117.855 335.817L117.919 345.816ZM147.539 414.995C134.621 386.962 130.07 370.28 122.75 339.654L113.024 341.979C120.411 372.884 125.143 390.288 138.457 419.18L147.539 414.995ZM257.836 405.029C233.305 408.937 166.997 413.515 143.297 412.096L142.7 422.078C167.315 423.552 234.376 418.892 259.409 414.904L257.836 405.029ZM399.168 367.127C345.213 382.966 314.585 391.525 257.466 405.102L259.779 414.831C317.117 401.202 347.922 392.592 401.985 376.722L399.168 367.127ZM430.401 326.054C417.964 346.68 410.853 356.039 397.245 368.196L403.908 375.653C418.52 362.599 426.229 352.338 438.965 331.218L430.401 326.054ZM357.117 336.806C388.315 334.355 405.269 333.682 434.691 333.636L434.675 323.636C404.988 323.682 387.778 324.367 356.334 326.837L357.117 336.806ZM494.131 232.735C477.032 253.938 461.44 269.181 440.638 283.269C419.739 297.424 393.435 310.515 354.742 327.232L358.708 336.411C397.53 319.639 424.541 306.249 446.246 291.549C468.049 276.783 484.348 260.797 501.915 239.013L494.131 232.735ZM455.294 136.385C475.62 174.307 484.211 196.075 493.139 236.941L502.908 234.807C493.757 192.92 484.81 170.285 464.107 131.661L455.294 136.385ZM434.213 111.857C443.694 120.989 448.225 126.436 455.616 136.906L463.785 131.14C456.067 120.205 451.13 114.268 441.15 104.655L434.213 111.857ZM277.338 112.681C340.231 108.264 375.218 108.556 437.305 113.242L438.058 103.27C375.51 98.5493 340.038 98.2533 276.637 102.706L277.338 112.681ZM260.065 116.492C266.935 114.851 270.846 114.016 277.965 112.597L276.01 102.79C268.796 104.228 264.759 105.09 257.742 106.766L260.065 116.492ZM212.463 134.63C232.501 124.351 242.902 120.03 259.912 116.526L257.895 106.732C239.634 110.493 228.325 115.255 207.898 125.733L212.463 134.63ZM239.556 189.934C227.42 166.201 221.797 152.963 214.993 128.825L205.368 131.538C212.392 156.457 218.293 170.318 230.653 194.487L239.556 189.934ZM286.332 183.167C289.963 178.664 293.032 176.295 296.684 174.918C300.516 173.473 305.474 172.928 313.292 173.035L313.428 163.036C305.322 162.925 298.808 163.429 293.156 165.561C287.324 167.761 282.895 171.498 278.547 176.891L286.332 183.167ZM289.937 202.268C287.441 198.348 286.281 195.609 285.893 192.834C285.498 190.016 285.828 186.639 287.265 181.338L277.613 178.721C276.026 184.575 275.324 189.463 275.989 194.22C276.661 199.019 278.653 203.164 281.501 207.638L289.937 202.268ZM337.513 191.715C332.617 194.767 328.273 196.843 321.07 198.18C313.634 199.56 303.087 200.163 285.779 199.953L285.658 209.953C303.086 210.164 314.449 209.58 322.895 208.012C331.572 206.401 337.08 203.768 342.803 200.201L337.513 191.715ZM338.437 186.154C338.452 188.238 338.315 189.338 338.072 190.121C337.866 190.782 337.5 191.487 336.518 192.53L343.797 199.386C345.582 197.492 346.87 195.504 347.62 193.092C348.333 190.803 348.453 188.453 348.437 186.086L338.437 186.154ZM311.535 172.691C320.284 176.12 326.501 178.884 330.966 181.511C335.392 184.115 337.761 186.395 339.158 188.706L347.716 183.533C345.15 179.288 341.266 175.969 336.037 172.892C330.848 169.839 324.008 166.839 315.184 163.381L311.535 172.691ZM283.077 158.743C280.831 160.82 278.784 162.07 271.696 163.953L274.263 173.618C282.122 171.53 285.934 169.722 289.867 166.085L283.077 158.743ZM326.384 134.118C315.474 136.645 307.176 139.232 300.241 143.122C293.181 147.081 287.814 152.227 282.459 159.431L290.485 165.397C295.226 159.019 299.591 154.952 305.133 151.844C310.799 148.666 317.973 146.331 328.64 143.86L326.384 134.118ZM319.098 137.072L323.782 142.319L331.242 135.659L326.557 130.412L319.098 137.072ZM291.286 136.671C303.248 135.911 309.812 136.552 321.97 138.668L323.684 128.816C310.982 126.606 303.602 125.868 290.653 126.691L291.286 136.671ZM277.934 146.088C280.41 142.745 282.161 140.824 284.042 139.506C285.843 138.243 288.093 137.31 291.894 136.594L290.045 126.767C285.353 127.65 281.629 128.986 278.303 131.316C275.057 133.591 272.528 136.585 269.898 140.136L277.934 146.088ZM277.927 168.062C276.365 157.391 276.273 152.423 278.694 144.588L269.139 141.636C266.088 151.509 266.373 158.173 268.032 169.509L277.927 168.062ZM356.744 185.911C362.084 186.715 365.315 186.84 370.906 186.715L370.682 176.717C365.519 176.833 362.88 176.722 358.234 176.022L356.744 185.911ZM344.443 166.919C346.944 169.118 348.732 172.051 352.818 182.75L362.16 179.182C358.148 168.679 355.644 163.451 351.046 159.409L344.443 166.919ZM313.558 165.531C327.867 164.688 335.021 164.967 346.465 167.997L349.024 158.33C336.184 154.931 327.871 154.67 312.969 155.549L313.558 165.531ZM335.618 138.79C333.486 139.257 330.98 140.446 328.68 141.718C326.256 143.059 323.611 144.749 321.084 146.547C318.559 148.344 316.076 150.301 313.996 152.195C312.027 153.987 310.033 156.065 308.895 158.107L317.631 162.974C317.935 162.428 318.898 161.256 320.728 159.59C322.446 158.025 324.602 156.317 326.881 154.695C329.159 153.075 331.484 151.595 333.521 150.468C335.681 149.273 337.125 148.697 337.758 148.558L335.618 138.79ZM356.598 143.542C350.369 140.325 345.602 139.03 336.89 138.678L336.486 148.67C343.908 148.97 347.22 149.954 352.009 152.427L356.598 143.542ZM385.201 176.792C373.395 159.883 366.697 150.951 357.282 143.968L351.325 152C359.223 157.858 365.052 165.403 377.002 182.517L385.201 176.792ZM371.068 186.709C374.695 186.51 377.401 185.94 382.5 184.455L379.703 174.854C374.932 176.244 373.056 176.585 370.521 176.724L371.068 186.709ZM403.671 146.131C389.954 142.718 382.047 141.078 368.049 138.213L366.044 148.01C380.006 150.868 387.749 152.475 401.257 155.835L403.671 146.131ZM439.697 226.875C439.685 210.508 438.227 197.491 433.123 185.022C428.026 172.569 419.473 161.102 406.023 147.471L398.905 154.495C411.92 167.684 419.472 178.069 423.869 188.811C428.259 199.537 429.686 211.058 429.697 226.882L439.697 226.875ZM410.116 262.803C424.478 251.126 432.033 243.494 439.176 229.102L430.218 224.656C423.982 237.222 417.657 243.784 403.808 255.044L410.116 262.803ZM363.84 146.949C382.762 162.758 393.45 176.633 398.925 193.17C404.453 209.871 404.87 229.878 401.987 258.421L411.937 259.426C414.852 230.563 414.635 208.809 408.418 190.028C402.146 171.083 389.978 155.756 370.252 139.275L363.84 146.949ZM269.859 188.218C269.423 183.813 264.173 180.983 260.232 184.088L266.42 191.943C263.694 194.091 260.191 192.066 259.907 189.201L269.859 188.218ZM278.206 212.117C272.893 206.625 271.161 201.388 269.859 188.218L259.907 189.202C261.272 203.002 263.295 211.085 271.019 219.07L278.206 212.117ZM276.038 210.959C276.857 211.107 277.617 211.507 278.206 212.117L271.019 219.07C271.896 219.977 273.034 220.578 274.26 220.8L276.038 210.959ZM291.279 213.713L276.038 210.959L274.26 220.8L289.501 223.554L291.279 213.713ZM308.969 213.833C301.502 214.356 297.629 214.357 290.906 213.66L289.875 223.607C297.284 224.375 301.749 224.363 309.666 223.809L308.969 213.833ZM382.131 199.008C350.434 207.871 333.213 211.826 308.905 213.838L309.73 223.804C334.98 221.714 352.917 217.56 384.824 208.639L382.131 199.008ZM387.977 209.121C392.337 204.835 388.216 197.307 382.131 199.008L384.824 208.639C380.759 209.775 378.103 204.804 380.967 201.989L387.977 209.121ZM378.634 220.368C382.133 215.348 384.515 212.524 387.977 209.121L380.967 201.989C377.002 205.886 374.229 209.2 370.43 214.65L378.634 220.368ZM376.079 223.387L378.328 220.763L370.736 214.255L368.487 216.879L376.079 223.387ZM368.796 230.484C371.842 227.866 373.462 226.283 375.991 223.487L368.575 216.778C366.334 219.256 365.015 220.547 362.278 222.9L368.796 230.484ZM363.463 234.866L368.71 230.555L362.363 222.828L357.116 227.138L363.463 234.866ZM321.391 262.826C350.384 244.625 357.817 239.523 363.471 234.859L357.108 227.145C352.056 231.312 345.23 236.053 316.074 254.356L321.391 262.826ZM318.4 263.743C319.48 263.707 320.513 263.377 321.391 262.826L316.074 254.356C316.653 253.992 317.33 253.774 318.059 253.749L318.4 263.743ZM300.036 262.129C306.839 263.57 311.028 263.995 318.4 263.743L318.059 253.749C311.535 253.972 308.156 253.628 302.108 252.346L300.036 262.129ZM235.519 225.644C255.672 242.539 269.469 251.129 299.372 261.94L302.772 252.536C273.995 242.131 261.217 234.138 241.944 217.981L235.519 225.644ZM233.452 220.065C233.099 222.194 233.922 224.305 235.519 225.644L241.944 217.981C243.002 218.868 243.556 220.269 243.317 221.704L233.452 220.065ZM236.269 208.727C234.958 212.965 234.182 215.675 233.453 220.065L243.317 221.704C243.938 217.966 244.564 215.751 245.822 211.681L236.269 208.727ZM237.388 206.663C236.861 207.296 236.493 208.003 236.269 208.728L245.822 211.681C245.676 212.156 245.43 212.633 245.07 213.064L237.388 206.663ZM260.232 184.088C253.753 189.192 242.999 199.927 237.387 206.664L245.071 213.064C250.32 206.763 260.583 196.542 266.42 191.943L260.232 184.088ZM334.68 282.908C338.399 282.222 340.948 286.637 338.397 289.507L330.923 282.862C327.111 287.149 330.909 293.772 336.494 292.742L334.68 282.908ZM384.137 269.108C364.133 276.942 353.007 279.528 334.68 282.908L336.494 292.742C355.254 289.283 367.028 286.547 387.783 278.42L384.137 269.108ZM381.623 272.404C381.782 270.913 382.751 269.651 384.137 269.108L387.783 278.42C389.862 277.606 391.329 275.693 391.567 273.462L381.623 272.404ZM381.124 238.992C382.852 250.116 383.212 257.469 381.623 272.404L391.567 273.462C393.244 257.704 392.873 249.478 391.005 237.457L381.124 238.992ZM387.717 241.391C385.427 243.408 381.626 242.224 381.124 238.992L391.005 237.457C390.261 232.671 384.58 230.83 381.109 233.886L387.717 241.391ZM338.397 289.507C352.88 273.217 364.069 262.212 387.717 241.391L381.109 233.886C357.255 254.889 345.753 266.184 330.923 282.862L338.397 289.507ZM100.837 302.4C96.8129 306.346 99.9573 313.165 105.575 312.659L104.678 302.699C108.425 302.361 110.521 306.91 107.838 309.54L100.837 302.4ZM137.257 266.691L100.837 302.4L107.838 309.54L144.258 273.831L137.257 266.691ZM138.694 265.314C138.25 265.738 137.78 266.187 137.289 266.659L144.225 273.863C144.698 273.408 145.153 272.973 145.599 272.547L138.694 265.314ZM146.362 254.699C145.041 259.179 143.262 260.953 138.694 265.314L145.599 272.547C150.214 268.141 153.816 264.779 155.954 257.527L146.362 254.699ZM152.427 238.75C149.721 244.282 148.239 248.182 146.353 254.729L155.962 257.497C157.704 251.451 158.985 248.101 161.41 243.145L152.427 238.75ZM163.176 238.714C160.99 234.335 154.642 234.225 152.427 238.75L161.41 243.145C159.92 246.189 155.678 246.084 154.229 243.181L163.176 238.714ZM190.811 281.077C177.667 265.481 171.685 255.758 163.176 238.714L154.229 243.181C163.039 260.827 169.439 271.236 183.164 287.522L190.811 281.077ZM189.051 290.248C192.467 288.426 193.238 283.957 190.811 281.077L183.164 287.522C181.559 285.618 182.054 282.648 184.344 281.426L189.051 290.248ZM178.154 296.137C181.544 294.292 185.02 292.4 189.051 290.248L184.344 281.426C180.271 283.599 176.761 285.51 173.373 287.355L178.154 296.137ZM178.163 296.133L178.166 296.131L173.361 287.361L173.358 287.363L178.163 296.133ZM178.332 296.036L178.333 296.035L173.188 287.46L173.187 287.461L178.332 296.036ZM178.163 296.133L178.167 296.13L173.352 287.366L173.347 287.368L178.163 296.133ZM178.146 296.142L178.149 296.14L173.361 287.361L173.358 287.363L178.146 296.142ZM156.884 307.421C165.667 302.936 171.742 299.628 178.143 296.144L173.361 287.361C166.972 290.839 160.994 294.094 152.336 298.515L156.884 307.421ZM154.71 308.052C155.463 307.982 156.204 307.768 156.883 307.421L152.337 298.514C152.79 298.283 153.276 298.143 153.776 298.096L154.71 308.052ZM132.251 310.171C138.457 309.584 145.728 308.896 154.711 308.052L153.776 298.096C144.79 298.94 137.515 299.628 131.309 300.215L132.251 310.171ZM132.309 310.165L132.31 310.165L131.25 300.221L131.248 300.221L132.309 310.165ZM132.222 310.173L132.252 310.171L131.305 300.216L131.275 300.218L132.222 310.173ZM132.171 310.178L132.217 310.174L131.28 300.218L131.234 300.222L132.171 310.178ZM105.575 312.659C113.493 311.945 121.157 311.22 132.174 310.178L131.232 300.222C120.21 301.265 112.569 301.988 104.678 302.699L105.575 312.659ZM486.294 305.964C485.964 309.369 481.688 310.895 479.325 308.204L486.839 301.606C483.319 297.597 476.841 299.848 476.341 304.999L486.294 305.964ZM411.42 481.737C456.832 417.519 479.247 378.657 486.294 305.964L476.341 304.999C469.541 375.132 448.289 412.28 403.255 475.963L411.42 481.737ZM400.592 477.368C399.551 484.017 407.986 486.592 411.42 481.737L403.255 475.963C404.445 474.281 406.501 473.98 407.963 474.55C409.448 475.13 410.802 476.807 410.472 478.915L400.592 477.368ZM427.618 371.996C410.389 426 405.116 448.48 400.592 477.368L410.472 478.915C414.888 450.716 420.003 428.767 437.145 375.035L427.618 371.996ZM433.431 376.647C430.304 378.484 426.49 375.529 427.618 371.996L437.145 375.035C438.83 369.751 433.08 365.257 428.368 368.024L433.431 376.647ZM179.981 456.796C229.873 452.199 269.222 446.314 308.161 434.457C347.116 422.595 385.45 404.822 433.431 376.647L428.368 368.024C380.82 395.944 343.221 413.327 305.248 424.891C267.258 436.459 228.684 442.267 179.064 446.838L179.981 456.796ZM183.279 451.242C184.371 453.785 182.639 456.551 179.981 456.796L179.064 446.838C175.056 447.207 172.463 451.4 174.09 455.189L183.279 451.242ZM240.584 534.856C212.076 504.921 198.367 486.37 183.279 451.242L174.09 455.189C189.767 491.687 204.256 511.21 233.343 541.752L240.584 534.856ZM238.609 533.724C239.387 533.908 240.066 534.311 240.585 534.857L233.342 541.752C234.128 542.577 235.154 543.183 236.309 543.456L238.609 533.724ZM396.648 546.072C306.448 544.024 270.987 541.379 238.609 533.724L236.308 543.455C269.864 551.389 306.353 554.024 396.421 556.069L396.648 546.072ZM394.477 546.657C395.139 546.252 395.889 546.054 396.647 546.072L396.421 556.069C397.564 556.095 398.708 555.792 399.698 555.186L394.477 546.657ZM552.452 410.593C496.897 475.242 462.343 505.098 394.476 546.658L399.699 555.186C468.522 513.041 503.858 482.485 560.036 417.11L552.452 410.593ZM551.915 414.986C551.185 413.536 551.404 411.812 552.452 410.593L560.036 417.111C561.61 415.279 561.94 412.66 560.847 410.49L551.915 414.986ZM479.325 308.204C513.664 347.305 529.761 370.977 551.915 414.986L560.847 410.49C538.29 365.681 521.706 341.307 486.839 301.606L479.325 308.204ZM181.218 527.961C179.077 525.543 180.54 521.61 183.889 521.337L184.704 531.303C189.695 530.895 191.938 524.986 188.706 521.334L181.218 527.961ZM145.481 460.779C147 484.745 156.985 500.578 181.218 527.961L188.706 521.334C164.762 494.277 156.757 480.599 155.461 460.146L145.481 460.779ZM149.682 464.497C147.474 464.624 145.618 462.944 145.481 460.779L155.461 460.146C155.252 456.863 152.431 454.321 149.105 454.513L149.682 464.497ZM69.3629 439.638C110.365 458.994 129.625 465.655 149.682 464.497L149.105 454.513C131.938 455.505 114.877 450.066 73.6319 430.595L69.3629 439.638ZM75.0218 435.515C75.432 438.709 72.1677 440.962 69.3629 439.638L73.6318 430.595C69.399 428.597 64.4918 432.03 65.1033 436.79L75.0218 435.515ZM100.606 515.604C85.316 492.156 79.9804 474.113 75.0218 435.515L65.1033 436.79C70.1624 476.169 75.7983 495.868 92.2299 521.066L100.606 515.604ZM98.3013 513.93C99.2439 514.184 100.064 514.772 100.607 515.605L92.2297 521.066C93.04 522.309 94.283 523.203 95.6989 523.585L98.3013 513.93ZM183.889 521.337C150.193 524.093 131.215 522.801 98.3014 513.93L95.6988 523.585C129.825 532.784 149.968 534.144 184.704 531.303L183.889 521.337ZM66.8291 316.737C67.1368 317.662 67.0987 318.664 66.7118 319.569L57.5165 315.639C56.9386 316.991 56.8799 318.511 57.341 319.896L66.8291 316.737ZM95.5466 360.225C76.691 338.374 72.0199 332.332 66.8292 316.738L57.341 319.896C63.2083 337.523 69.074 344.854 87.9757 366.758L95.5466 360.225ZM119.172 407.035C115.958 388.854 109.397 379.001 95.7867 360.526L87.7355 366.457C101.232 384.778 106.543 393.037 109.325 408.776L119.172 407.035ZM105.334 426.145C107.567 426.229 109.884 426.329 111.785 426.124C113.72 425.915 116.409 425.284 118.301 422.872C120.054 420.636 120.29 417.886 120.244 415.686C120.195 413.355 119.779 410.464 119.172 407.035L109.325 408.776C109.927 412.179 110.215 414.405 110.246 415.894C110.28 417.515 109.97 417.29 110.432 416.701C111.031 415.937 111.682 416.077 110.71 416.182C109.704 416.291 108.245 416.248 105.713 416.152L105.334 426.145ZM97.2968 426.022C100.409 425.959 103.038 426.058 105.334 426.145L105.713 416.152C103.414 416.065 100.527 415.954 97.0945 416.024L97.2968 426.022ZM26.2443 393.575C27.2113 394.575 28.863 395.758 30.5439 396.881C32.3752 398.105 34.7146 399.566 37.4011 401.161C42.7791 404.354 49.6768 408.166 56.9353 411.823C64.1828 415.474 71.8727 419.014 78.8179 421.633C85.551 424.173 92.2752 426.123 97.2967 426.022L97.0946 416.024C94.1796 416.083 89.056 414.807 82.3467 412.277C75.8494 409.826 68.5023 406.453 61.4348 402.892C54.3783 399.337 47.683 395.636 42.5068 392.563C39.9162 391.024 37.7381 389.662 36.1012 388.568C35.2814 388.02 34.6275 387.559 34.1396 387.192C33.6054 386.79 33.4228 386.613 33.4336 386.624L26.2443 393.575ZM24.8339 391.374C24.8549 391.422 25.3179 392.617 26.2441 393.575L33.4339 386.625C33.7794 386.982 33.9528 387.297 33.9955 387.376C34.0232 387.427 34.036 387.456 34.0298 387.442C34.0219 387.425 34.0108 387.401 33.9773 387.325L24.8339 391.374ZM24.8465 391.383C24.8349 391.362 24.8252 391.344 24.8173 391.329C24.8094 391.314 24.8031 391.302 24.7983 391.292C24.7935 391.283 24.7899 391.275 24.7878 391.271C24.7856 391.267 24.7846 391.264 24.7848 391.265C24.785 391.265 24.7861 391.268 24.7884 391.273C24.7907 391.278 24.7938 391.284 24.798 391.294C24.8023 391.303 24.8072 391.314 24.8133 391.328C24.8195 391.342 24.8259 391.356 24.8339 391.374L33.9773 387.325C33.9369 387.234 33.7833 386.878 33.585 386.521L24.8465 391.383ZM0.0107689 251.918C4.04702 319.254 6.47179 358.359 24.8465 391.383L33.585 386.521C16.5621 355.926 14.0792 319.492 9.99285 251.32L0.0107689 251.918ZM0.0524268 250.766C0.000773907 251.154 -0.0118537 251.541 0.0107656 251.918L9.99286 251.32C10.0078 251.569 9.99967 251.825 9.96495 252.086L0.0524268 250.766ZM9.03479 183.305L0.0524273 250.766L9.96495 252.086L18.9473 184.625L9.03479 183.305ZM40.1039 115.286C26.8288 122.438 19.2911 131.12 15.027 142.662C10.9266 153.762 9.96556 167.303 8.99973 183.67L18.9824 184.259C19.97 167.523 20.9197 155.569 24.4074 146.127C27.7315 137.129 33.4593 130.225 44.8471 124.089L40.1039 115.286ZM109.892 97.312C76.2018 99.479 59.6005 102.945 39.8036 115.461L45.1474 123.914C62.8303 112.734 77.4273 109.421 110.534 107.291L109.892 97.312ZM115.676 100.684C114.569 98.3781 112.202 97.1634 109.892 97.312L110.534 107.291C109.018 107.389 107.422 106.598 106.66 105.01L115.676 100.684ZM117.901 109.158C117.537 106.133 117.178 103.816 115.676 100.684L106.66 105.01C107.446 106.648 107.649 107.664 107.973 110.353L117.901 109.158ZM116.584 122.495C118.156 117.481 118.311 114.343 117.922 109.365L107.952 110.145C108.266 114.155 108.15 115.969 107.042 119.503L116.584 122.495ZM110.303 142.357C111.405 138.567 112.927 133.328 116.55 122.599L107.075 119.4C103.395 130.299 101.83 135.68 100.701 139.566L110.303 142.357ZM108.93 146.937C109.408 145.438 109.827 143.996 110.303 142.357L100.701 139.566C100.218 141.228 99.8349 142.543 99.4029 143.897L108.93 146.937ZM103.174 151.106C105.748 151.124 108.118 149.481 108.93 146.937L99.4028 143.897C99.9507 142.18 101.536 141.094 103.243 141.106L103.174 151.106ZM59.3384 147.006C75.5517 149.89 86.5034 150.99 103.174 151.106L103.243 141.106C87.1779 140.995 76.7897 139.953 61.0896 137.161L59.3384 147.006ZM61.753 139.523C63.9122 140.565 64.2933 142.895 63.8201 144.341C63.3486 145.782 61.6805 147.423 59.3384 147.006L61.0896 137.161C57.5934 136.539 55.08 138.896 54.3158 141.232C53.5498 143.573 54.1906 146.976 57.4054 148.528L61.753 139.523ZM98.7214 158.522C86.1106 151.642 77.0182 146.893 61.753 139.523L57.4054 148.528C72.5047 155.818 81.4494 160.49 93.9322 167.3L98.7214 158.522ZM100.016 159.473C99.6348 159.105 99.1984 158.782 98.7217 158.522L93.932 167.3C93.612 167.126 93.3265 166.914 93.0738 166.67L100.016 159.473ZM125.076 248.195C130.745 241.398 134.798 234.769 136.805 227.907C138.845 220.934 138.688 214.007 136.392 206.841C131.943 192.957 119.42 178.188 100.016 159.473L93.0738 166.67C112.616 185.519 123.285 198.708 126.869 209.892C128.588 215.259 128.657 220.144 127.208 225.1C125.726 230.166 122.573 235.583 117.397 241.789L125.076 248.195ZM124.382 248.899C124.632 248.684 124.865 248.447 125.076 248.195L117.397 241.789C117.537 241.621 117.69 241.466 117.856 241.322L124.382 248.899ZM66.7117 319.569C78.5405 291.897 92.2043 276.612 124.382 248.899L117.857 241.322C85.2348 269.417 70.2293 285.899 57.5166 315.639L66.7117 319.569Z" fill="white"/>
</svg>
