<svg width="351" height="315" viewBox="0 0 351 315" fill="none" xmlns="http://www.w3.org/2000/svg">
<path fill-rule="evenodd" clip-rule="evenodd" d="M315.214 179.617C314.102 180.314 313.475 180.429 312.403 179.617C298.668 171.211 292.39 165.926 284.189 155.294C282.914 153.754 283.017 152.912 283.486 151.672C285.238 146.782 287.232 144.205 292.531 140.044C292.659 139.944 292.763 139.811 292.83 139.662L297.269 129.728C297.602 128.946 297.53 128.443 297.269 127.512C288.93 98.0352 282.671 81.4672 259.547 52.0688C259.406 51.8893 259.202 51.7589 258.979 51.7085C252.778 50.308 248.882 49.8817 242.47 49.1802L241.597 49.0847C217.941 47.1738 208.622 47.1362 198.86 48.4587C198.185 48.5501 197.612 47.9608 197.715 47.2879C199.018 38.7965 198.498 31.3233 195.072 14.4288C194.973 13.9422 194.524 13.5949 194.028 13.6228C174.443 14.7262 162.532 14.8827 140.403 13.5891C139.789 13.5532 139.343 12.9743 139.496 12.3783C140.445 8.6585 141.846 6.21221 146.255 2.148C146.393 2.02134 146.567 1.93422 146.751 1.90055C153.49 0.665966 158.192 0.320629 167.169 0.00683594L176.358 0.00683594L194.141 0.871643L215.328 2.60126C221.875 2.96627 225.398 3.32858 231.652 4.00657C242.442 5.50941 248.714 6.64696 260.855 10.851C261.179 10.9631 261.428 11.2393 261.502 11.5737C263.447 20.4263 261.59 26.3284 256.194 34.0791C255.519 35.0487 256.807 36.3361 257.754 35.6301C262.92 31.7789 267.124 29.2941 272.946 28.6536C277.437 28.4292 280.677 29.0527 287.302 31.1718C287.457 31.2212 287.601 31.31 287.714 31.426C314.403 58.6882 329.179 82.0462 348.941 138.376C349.71 141.024 349.984 142.515 350.13 145.186V148.646C350.187 150.917 350.178 152.197 349.235 153.962C349.184 154.057 349.115 154.143 349.036 154.216C335.394 166.739 327.858 172.937 315.214 179.617ZM175.655 26.2206C180.341 30.0768 182.68 32.4161 186.411 36.9226L183.601 22.4911C140.694 21.3587 118.908 22.3302 88.2017 26.653C81.0013 42.6135 77.6519 53.6592 72.7974 76.8659C72.5779 83.9212 72.9215 87.684 74.527 93.9999C101.385 146.47 111.141 161.456 125.983 178.967C140.269 178.262 150.3 175.781 171.872 167.563C149.891 154.837 139.012 147.252 123.929 132.376L123.924 132.353C115.49 93.6435 110.504 70.7556 87.445 49.1921C99.3669 57.7233 105.422 61.1711 115.497 64.2721C141.699 46.1473 154.652 37.9952 175.655 26.2206ZM171.872 37.0322C167.473 40.054 160.456 45.7452 156.846 51.5177C168.93 50.4895 174.058 50.3506 178.466 51.3556C176.373 44.8432 174.917 41.7698 171.872 37.0322ZM132.739 108.001C138.072 102.736 140.767 99.2146 144.252 90.3803C145.011 82.0253 145.91 77.904 148.684 72.0031C155.007 67.9745 158.323 66.5565 163.332 65.5171C200.326 63.9573 218.987 65.7155 242.353 85.9481C257.545 113.346 261.08 126.324 258.082 145.025C212.108 170.068 185.626 179.125 137.766 190.86C108.392 193.032 92.5945 193.548 65.1218 193.725C69.3636 211.472 72.0411 221.303 79.6074 237.722C93.5428 238.556 132.01 235.892 146.306 233.614C179.318 225.767 197.037 220.815 228.192 211.67C236.331 204.398 240.606 198.739 247.866 186.698C230.818 186.725 220.964 187.117 202.896 188.536C247.611 169.218 264.407 157.985 284.405 133.188C279.19 109.32 274.132 96.5132 262.298 74.4354C257.94 68.2616 255.209 64.978 249.596 59.5715C213.648 56.8583 193.326 56.6889 156.9 59.2472C152.765 60.0712 150.473 60.5606 146.468 61.5173C136.295 63.6126 130.033 66.2324 118.362 72.2193C122.35 86.3686 125.674 94.1847 132.739 108.001ZM177.871 94.054C168.685 93.9284 164.637 95.2636 160.035 100.972C158.29 107.408 158.844 110.508 161.927 115.35C181.964 115.593 187.205 113.98 193.33 110.161C194.926 108.467 195.239 107.053 195.222 104.486C192.935 100.704 188.008 98.027 177.871 94.054ZM154.577 94.4871C158.888 93.3418 160.578 92.4599 162.36 90.8117C168.184 82.9774 173.587 80.1822 186.034 77.2991L183.331 74.2722C176.161 73.0245 172.139 72.6269 164.954 73.0831C160.055 74.0053 158.062 75.7009 155.117 79.6773C153.539 84.7846 153.648 88.1397 154.577 94.4871ZM211.005 101.946C207.903 102.015 206.21 101.947 203.33 101.513C200.994 95.3981 199.756 93.0441 197.708 91.2438C190.704 89.3895 186.243 89.2335 177.818 89.7304C179.481 86.7458 188.14 80.7001 191.33 80.0013C195.984 80.1891 198.314 80.8465 201.492 82.4876C206.486 86.1912 210.098 90.9433 216.95 100.757C214.104 101.586 212.782 101.848 211.005 101.946ZM208.843 79.677C216.908 81.3272 221.422 82.2639 229.274 84.2172C244.54 99.6885 247.854 109.428 247.868 127.998C244.009 135.774 240.005 139.868 231.869 146.483C235.214 113.368 231.137 98.3033 208.843 79.677ZM148.438 106.045C149.036 105.554 149.909 105.947 149.989 106.716C150.749 113.943 151.868 117.662 155.434 121.391C155.577 121.541 155.765 121.64 155.969 121.677L164.628 123.242C168.704 123.664 171.109 123.66 175.546 123.35C189.397 122.204 199.348 119.972 216.643 115.167C217.654 114.887 218.396 116.181 217.674 116.942C216.133 118.567 214.846 120.182 213.166 122.593L211.868 124.107C210.493 125.627 209.645 126.457 207.977 127.89L204.95 130.377C201.868 132.919 197.765 135.752 181.075 146.23C180.926 146.323 180.75 146.379 180.574 146.385C176.638 146.513 174.462 146.289 170.79 145.511C153.957 139.425 146.283 134.661 135.013 125.23C134.744 125.005 134.609 124.65 134.669 124.304C135.042 122.123 135.439 120.727 136.139 118.459C136.178 118.334 136.239 118.22 136.323 118.119C139.305 114.553 144.858 108.987 148.438 106.045ZM190.976 161.298C190.344 162.005 190.966 163.106 191.898 162.932C201.833 161.074 208.354 159.495 219.518 155.137C219.865 155.002 220.112 154.68 220.151 154.31C221.027 145.96 220.86 141.505 219.933 135.298C219.817 134.521 218.886 134.185 218.297 134.705C205.417 146.064 198.932 152.409 190.976 161.298ZM58.9365 174.5C58.001 174.585 57.4772 173.45 58.1479 172.793L78.3114 153.023C78.5893 152.755 78.8564 152.5 79.1131 152.255C81.7616 149.726 83.3135 148.245 84.311 144.861C85.2671 141.542 86.015 139.51 87.2659 136.877C87.6197 136.132 88.673 136.135 89.0435 136.872C93.7722 146.275 97.3205 151.988 104.644 160.721C105.054 161.21 104.91 161.955 104.348 162.256C102.205 163.402 100.328 164.424 98.5034 165.417C94.8304 167.417 91.3687 169.301 86.3752 171.852C86.2626 171.91 86.1352 171.947 86.0092 171.958C80.8647 172.442 76.6947 172.836 73.1339 173.173C67.3023 173.725 63.1048 174.122 58.9365 174.5ZM276.429 173.743C275.851 173.083 274.758 173.445 274.669 174.318C270.625 214.348 258.302 236.17 233.109 271.905C232.502 272.766 231.16 272.223 231.328 271.183C233.821 255.717 236.905 242.853 246.202 213.639C246.48 212.763 245.512 212.006 244.719 212.47C190.382 244.25 157.964 252.441 101.258 257.7C100.583 257.763 100.152 258.472 100.421 259.094C109.19 279.374 117.313 290.313 133.722 307.553C133.856 307.693 134.029 307.794 134.217 307.838C153.186 312.308 173.942 313.828 225.732 315.006C225.924 315.01 226.122 314.957 226.285 314.857C265.564 290.795 285.713 273.389 317.802 236.07C318.065 235.764 318.121 235.318 317.939 234.957C305.248 209.779 295.884 195.963 276.429 173.743ZM102.588 300.799C103.409 300.734 103.8 299.757 103.255 299.139C89.9286 284.009 84.8304 275.574 83.942 263.17C83.902 262.612 83.4206 262.185 82.8615 262.212C72.3784 262.71 61.9721 259.24 39.0534 248.449C38.3391 248.112 37.5259 248.697 37.6279 249.48C40.4821 271.385 43.6663 282.183 52.6442 295.99C52.7779 296.195 52.9887 296.348 53.2254 296.411C72.1912 301.511 83.4183 302.319 102.588 300.799ZM33.0051 180.185C32.9093 180.409 32.8987 180.666 32.9759 180.897C36.147 190.368 39.2114 194.251 50.0438 206.804C57.8619 217.416 61.2863 222.64 63.0159 232.424C64.4095 240.306 63.4806 240.271 57.9827 240.063C56.6574 240.013 55.0665 239.952 53.1787 239.991C44.2236 240.172 18.0032 225.402 14.5235 222.341C14.2859 222.132 14.1149 221.798 13.9583 221.493C13.9135 221.405 13.8699 221.32 13.8262 221.241C3.74542 202.95 2.32958 181.192 -0.00111971 142.311C-0.00495696 142.247 -0.00270588 142.181 0.00575805 142.118L5.18188 103.243C6.30872 84.1465 7.38635 73.8294 21.6132 66.1643C32.3711 59.3631 41.3347 57.3936 60.4091 56.1533C60.8063 56.1275 61.1916 56.3384 61.3555 56.7011C61.9187 57.9474 62.0732 58.8891 62.2592 60.4349C62.4619 63.0271 62.3838 64.4555 61.6106 66.921C59.5041 73.1592 58.6137 76.2224 57.9702 78.4362C57.7264 79.2749 57.5181 79.9916 57.2925 80.7129C57.1629 81.1272 56.7735 81.4052 56.3395 81.4016C48.2094 81.3343 42.5013 80.8475 35.0772 79.6361C33.9202 79.4473 33.3765 81.1219 34.4296 81.6367C41.4701 85.0788 46.2653 87.6004 52.6271 91.0706C52.7055 91.1134 52.7808 91.1689 52.8451 91.2309C75.2614 112.86 79.547 123.442 67.0694 138.419C67.0344 138.461 66.9939 138.503 66.9525 138.538C48.337 154.572 40.0662 163.727 33.0051 180.185Z" fill="#BB86FC" fill-opacity="0.34"/>
</svg>
