<svg width="1978" height="1791" viewBox="0 0 1978 1791" fill="none" xmlns="http://www.w3.org/2000/svg">
<rect width="1978" height="1791" fill="black"/>
<path d="M984.098 1258L1231.02 1194.59C1232.86 1194.12 1234.28 1192.64 1234.67 1190.78L1303.06 865.699C1303.15 865.28 1303.29 864.875 1303.49 864.492L1377 717.451M984.098 1258L941.571 1017.65C941.297 1016.09 941.769 1014.5 942.847 1013.36L1030.45 919.89M984.098 1258L779.268 1193.82M1377 717.451L1295.89 689.818M1377 717.451L1274.85 759.998M779.268 1193.82L672.968 776.997M779.268 1193.82L601 751.503M641.823 654.875L743.436 650.774M641.823 654.875L765.541 744.015M641.823 654.875L657.396 715.936M743.436 650.774V622.402C743.436 620.745 744.256 619.196 745.627 618.265L808.5 575.562C809.534 574.86 810.795 574.57 812.032 574.751L875.711 584.064M743.436 650.774L765.541 744.015M1119.76 619.753V669.85M1119.76 619.753L870.133 658.677C868.904 658.869 867.648 658.596 866.61 657.911L834.618 636.811C831.294 634.619 826.865 637.003 826.865 640.985V776.997M1119.76 619.753L875.711 584.064M1119.76 669.85L826.865 776.997M1119.76 669.85L1176.81 648.813M826.865 776.997L765.541 744.015M826.865 776.997L978.618 842.367C979.518 842.755 980.284 843.398 980.821 844.217L1030.45 919.89M1176.81 648.813V588.711C1176.81 586.502 1175.36 584.555 1173.24 583.921L1008.01 534.488C1006.95 534.172 1005.82 534.214 1004.79 534.609L875.711 584.064M1176.81 648.813L1291.64 666.35C1294.08 666.722 1295.89 668.822 1295.89 671.292V689.818M1030.45 919.89L1119.03 825.382C1119.51 824.865 1120.1 824.458 1120.75 824.185L1274.85 759.998M672.968 776.997L601 751.503M672.968 776.997L657.396 715.936M601 751.503L657.396 715.936M1295.89 689.818L1274.85 759.998" stroke="white" stroke-width="10"/>
</svg>
