<svg width="1978" height="1791" viewBox="0 0 1978 1791" fill="none" xmlns="http://www.w3.org/2000/svg">
<rect width="1978" height="1791" fill="black"/>
<path d="M762.136 763.212L461.984 539.939C458.686 537.485 454 539.84 454 543.951V896V1253C454 1255.76 456.239 1258 459 1258H989H1519C1521.76 1258 1524 1255.76 1524 1253V544.117C1524 539.976 1519.25 537.63 1515.96 540.146L1224.24 763.212M762.136 763.212L986.36 932.468C988.119 933.796 990.54 933.815 992.32 932.516L1224.24 763.212M762.136 763.212L986.404 597.847C988.145 596.564 990.513 596.545 992.274 597.8L1224.24 763.212" stroke="white" stroke-width="10"/>
</svg>
