<svg width="1978" height="1791" viewBox="0 0 1978 1791" fill="none" xmlns="http://www.w3.org/2000/svg">
<rect width="1978" height="1791" fill="black"/>
<path d="M661.702 698L706.081 722.015M706.081 722.015L988.601 883.493C990.155 884.382 992.066 884.371 993.611 883.465L1264.85 724.416M706.081 722.015C673.404 818.358 670.983 901.571 715.109 987.569M1264.85 724.416L1317.9 698M1264.85 724.416C1311.06 825.33 1314.44 904.812 1267.73 987.569M715.109 987.569C661.002 976.559 629.041 971.895 562.252 986.198C559.074 986.878 557.456 990.476 558.93 993.373C664.513 1200.93 761.415 1219.93 905.313 1196.88M715.109 987.569C748.855 1053.34 809.828 1120.74 905.313 1196.88M905.313 1196.88C929.239 1215.96 955.332 1235.59 983.707 1255.88C985.474 1257.14 987.858 1257.12 989.598 1255.82C1017 1235.31 1042.49 1215.72 1066.09 1196.88M1267.73 987.569C1337.77 969.702 1370.21 971.612 1417.35 985.831C1420.31 986.723 1421.68 990.176 1420.27 992.926C1309.16 1209.97 1224.27 1219.75 1066.09 1196.88M1267.73 987.569C1231.6 1051.57 1165.51 1117.53 1066.09 1196.88" stroke="white" stroke-width="10"/>
<path d="M986.349 609.505L867.804 536.163C865.772 534.906 863.135 535.262 861.509 537.013L758.405 648.032C756.177 650.432 756.818 654.29 759.702 655.839L986.525 777.707C988.025 778.513 989.832 778.5 991.321 777.672L1210.75 655.691C1213.48 654.174 1214.17 650.554 1212.19 648.143L1120.93 537.317C1119.36 535.409 1116.63 534.935 1114.51 536.201L991.541 609.547C989.938 610.504 987.936 610.487 986.349 609.505Z" stroke="white" stroke-width="10"/>
</svg>
