<svg width="915" height="294" viewBox="0 0 915 294" fill="none" xmlns="http://www.w3.org/2000/svg">
<path d="M812.391 83.1604C812.391 73.2004 814.431 64.3804 818.511 56.7004C822.711 49.0204 828.351 43.0804 835.431 38.8804C842.631 34.5604 850.551 32.4004 859.191 32.4004C866.991 32.4004 873.771 33.9604 879.531 37.0804C885.411 40.0804 890.091 43.8604 893.571 48.4204V34.0204H914.271V133.2H893.571V118.44C890.091 123.12 885.351 127.02 879.351 130.14C873.351 133.26 866.511 134.82 858.831 134.82C850.311 134.82 842.511 132.66 835.431 128.34C828.351 123.9 822.711 117.78 818.511 109.98C814.431 102.06 812.391 93.1204 812.391 83.1604ZM893.571 83.5204C893.571 76.6804 892.131 70.7404 889.251 65.7004C886.491 60.6604 882.831 56.8204 878.271 54.1804C873.711 51.5404 868.791 50.2204 863.511 50.2204C858.231 50.2204 853.311 51.5404 848.751 54.1804C844.191 56.7004 840.471 60.4804 837.591 65.5204C834.831 70.4404 833.451 76.3204 833.451 83.1604C833.451 90.0004 834.831 96.0004 837.591 101.16C840.471 106.32 844.191 110.28 848.751 113.04C853.431 115.68 858.351 117 863.511 117C868.791 117 873.711 115.68 878.271 113.04C882.831 110.4 886.491 106.56 889.251 101.52C892.131 96.3604 893.571 90.3604 893.571 83.5204Z" fill="white"/>
<path d="M759.575 32.4004C767.375 32.4004 774.335 34.0204 780.455 37.2604C786.695 40.5004 791.555 45.3004 795.035 51.6604C798.515 58.0204 800.255 65.7004 800.255 74.7004V133.2H779.915V77.7604C779.915 68.8804 777.695 62.1004 773.255 57.4204C768.815 52.6204 762.755 50.2204 755.075 50.2204C747.395 50.2204 741.275 52.6204 736.715 57.4204C732.275 62.1004 730.055 68.8804 730.055 77.7604V133.2H709.535V34.0204H730.055V45.3604C733.415 41.2804 737.675 38.1004 742.835 35.8204C748.115 33.5404 753.695 32.4004 759.575 32.4004Z" fill="white"/>
<path d="M644.969 134.82C635.609 134.82 627.149 132.72 619.589 128.52C612.029 124.2 606.089 118.2 601.769 110.52C597.449 102.72 595.289 93.7204 595.289 83.5204C595.289 73.4404 597.509 64.5004 601.949 56.7004C606.389 48.9004 612.449 42.9004 620.129 38.7004C627.809 34.5004 636.389 32.4004 645.869 32.4004C655.349 32.4004 663.929 34.5004 671.609 38.7004C679.289 42.9004 685.349 48.9004 689.789 56.7004C694.229 64.5004 696.449 73.4404 696.449 83.5204C696.449 93.6004 694.169 102.54 689.609 110.34C685.049 118.14 678.809 124.2 670.889 128.52C663.089 132.72 654.449 134.82 644.969 134.82ZM644.969 117C650.249 117 655.169 115.74 659.729 113.22C664.409 110.7 668.189 106.92 671.069 101.88C673.949 96.8404 675.389 90.7204 675.389 83.5204C675.389 76.3204 674.009 70.2604 671.249 65.3404C668.489 60.3004 664.829 56.5204 660.269 54.0004C655.709 51.4804 650.789 50.2204 645.509 50.2204C640.229 50.2204 635.309 51.4804 630.749 54.0004C626.309 56.5204 622.769 60.3004 620.129 65.3404C617.489 70.2604 616.169 76.3204 616.169 83.5204C616.169 94.2004 618.869 102.48 624.269 108.36C629.789 114.12 636.689 117 644.969 117Z" fill="white"/>
<path d="M582.208 0V133.2H561.688V0H582.208Z" fill="white"/>
<path d="M440.059 83.1604C440.059 73.2004 442.099 64.3804 446.179 56.7004C450.379 49.0204 456.019 43.0804 463.099 38.8804C470.299 34.5604 478.219 32.4004 486.859 32.4004C494.659 32.4004 501.439 33.9604 507.199 37.0804C513.079 40.0804 517.759 43.8604 521.239 48.4204V34.0204H541.939V133.2H521.239V118.44C517.759 123.12 513.019 127.02 507.019 130.14C501.019 133.26 494.179 134.82 486.499 134.82C477.979 134.82 470.179 132.66 463.099 128.34C456.019 123.9 450.379 117.78 446.179 109.98C442.099 102.06 440.059 93.1204 440.059 83.1604ZM521.239 83.5204C521.239 76.6804 519.799 70.7404 516.919 65.7004C514.159 60.6604 510.499 56.8204 505.939 54.1804C501.379 51.5404 496.459 50.2204 491.179 50.2204C485.899 50.2204 480.979 51.5404 476.419 54.1804C471.859 56.7004 468.139 60.4804 465.259 65.5204C462.499 70.4404 461.119 76.3204 461.119 83.1604C461.119 90.0004 462.499 96.0004 465.259 101.16C468.139 106.32 471.859 110.28 476.419 113.04C481.099 115.68 486.019 117 491.179 117C496.459 117 501.379 115.68 505.939 113.04C510.499 110.4 514.159 106.56 516.919 101.52C519.799 96.3604 521.239 90.3604 521.239 83.5204Z" fill="white"/>
<path d="M433.316 8.09961V24.8396H400.016V133.2H379.496V24.8396H346.016V8.09961H433.316Z" fill="white"/>
<path d="M775.691 275.666V226.711C775.691 222.961 774.93 219.709 773.406 216.955C771.941 214.143 769.715 211.975 766.727 210.451C763.738 208.928 760.047 208.166 755.652 208.166C751.551 208.166 747.947 208.869 744.842 210.275C741.795 211.682 739.393 213.527 737.635 215.812C735.936 218.098 735.086 220.559 735.086 223.195H718.826C718.826 219.797 719.705 216.428 721.463 213.088C723.221 209.748 725.74 206.73 729.021 204.035C732.361 201.281 736.346 199.113 740.975 197.531C745.662 195.891 750.877 195.07 756.619 195.07C763.533 195.07 769.627 196.242 774.9 198.586C780.232 200.93 784.393 204.475 787.381 209.221C790.428 213.908 791.951 219.797 791.951 226.887V271.184C791.951 274.348 792.215 277.717 792.742 281.291C793.328 284.865 794.178 287.941 795.291 290.52V291.926H778.328C777.508 290.051 776.863 287.561 776.395 284.455C775.926 281.291 775.691 278.361 775.691 275.666ZM778.504 234.27L778.68 245.695H762.244C757.615 245.695 753.484 246.076 749.852 246.838C746.219 247.541 743.172 248.625 740.711 250.09C738.25 251.555 736.375 253.4 735.086 255.627C733.797 257.795 733.152 260.344 733.152 263.273C733.152 266.262 733.826 268.986 735.174 271.447C736.521 273.908 738.543 275.871 741.238 277.336C743.992 278.742 747.361 279.445 751.346 279.445C756.326 279.445 760.721 278.391 764.529 276.281C768.338 274.172 771.355 271.594 773.582 268.547C775.867 265.5 777.098 262.541 777.273 259.67L784.217 267.492C783.807 269.953 782.693 272.678 780.877 275.666C779.061 278.654 776.629 281.525 773.582 284.279C770.594 286.975 767.02 289.23 762.859 291.047C758.758 292.805 754.129 293.684 748.973 293.684C742.527 293.684 736.873 292.424 732.01 289.904C727.205 287.385 723.455 284.016 720.76 279.797C718.123 275.52 716.805 270.744 716.805 265.471C716.805 260.373 717.801 255.891 719.793 252.023C721.785 248.098 724.656 244.846 728.406 242.268C732.156 239.631 736.668 237.639 741.941 236.291C747.215 234.943 753.104 234.27 759.607 234.27H778.504Z" fill="#A40000"/>
<path d="M700.549 196.828V209.309H649.133V196.828H700.549ZM666.535 173.713H682.795V268.371C682.795 271.594 683.293 274.025 684.289 275.666C685.285 277.307 686.574 278.391 688.156 278.918C689.738 279.445 691.438 279.709 693.254 279.709C694.602 279.709 696.008 279.592 697.473 279.357C698.996 279.064 700.139 278.83 700.9 278.654L700.988 291.926C699.699 292.336 698 292.717 695.891 293.068C693.84 293.479 691.35 293.684 688.42 293.684C684.436 293.684 680.773 292.893 677.434 291.311C674.094 289.729 671.428 287.092 669.436 283.4C667.502 279.65 666.535 274.611 666.535 268.283V173.713Z" fill="#A40000"/>
<path d="M623.117 266.701C623.117 264.357 622.59 262.189 621.535 260.197C620.539 258.146 618.459 256.301 615.295 254.66C612.189 252.961 607.502 251.496 601.232 250.266C595.959 249.152 591.184 247.834 586.906 246.311C582.688 244.787 579.084 242.941 576.096 240.773C573.166 238.605 570.91 236.057 569.328 233.127C567.746 230.197 566.955 226.77 566.955 222.844C566.955 219.094 567.775 215.549 569.416 212.209C571.115 208.869 573.488 205.91 576.535 203.332C579.641 200.754 583.361 198.732 587.697 197.268C592.033 195.803 596.867 195.07 602.199 195.07C609.816 195.07 616.32 196.418 621.711 199.113C627.102 201.809 631.232 205.412 634.104 209.924C636.975 214.377 638.41 219.328 638.41 224.777H622.15C622.15 222.141 621.359 219.592 619.777 217.131C618.254 214.611 615.998 212.531 613.01 210.891C610.08 209.25 606.477 208.43 602.199 208.43C597.688 208.43 594.025 209.133 591.213 210.539C588.459 211.887 586.438 213.615 585.148 215.725C583.918 217.834 583.303 220.061 583.303 222.404C583.303 224.162 583.596 225.744 584.182 227.15C584.826 228.498 585.939 229.758 587.521 230.93C589.104 232.043 591.33 233.098 594.201 234.094C597.072 235.09 600.734 236.086 605.188 237.082C612.98 238.84 619.396 240.949 624.436 243.41C629.475 245.871 633.225 248.889 635.686 252.463C638.146 256.037 639.377 260.373 639.377 265.471C639.377 269.631 638.498 273.439 636.74 276.896C635.041 280.354 632.551 283.342 629.27 285.861C626.047 288.322 622.18 290.256 617.668 291.662C613.215 293.01 608.205 293.684 602.639 293.684C594.26 293.684 587.17 292.189 581.369 289.201C575.568 286.213 571.174 282.346 568.186 277.6C565.197 272.854 563.703 267.844 563.703 262.57H580.051C580.285 267.023 581.574 270.568 583.918 273.205C586.262 275.783 589.133 277.629 592.531 278.742C595.93 279.797 599.299 280.324 602.639 280.324C607.092 280.324 610.812 279.738 613.801 278.566C616.848 277.395 619.162 275.783 620.744 273.732C622.326 271.682 623.117 269.338 623.117 266.701Z" fill="#A40000"/>
<path d="M460.781 245.432V243.41C460.781 236.555 461.777 230.197 463.77 224.338C465.762 218.42 468.633 213.293 472.383 208.957C476.133 204.562 480.674 201.164 486.006 198.762C491.338 196.301 497.314 195.07 503.936 195.07C510.615 195.07 516.621 196.301 521.953 198.762C527.344 201.164 531.914 204.562 535.664 208.957C539.473 213.293 542.373 218.42 544.365 224.338C546.357 230.197 547.354 236.555 547.354 243.41V245.432C547.354 252.287 546.357 258.645 544.365 264.504C542.373 270.363 539.473 275.49 535.664 279.885C531.914 284.221 527.373 287.619 522.041 290.08C516.768 292.482 510.791 293.684 504.111 293.684C497.432 293.684 491.426 292.482 486.094 290.08C480.762 287.619 476.191 284.221 472.383 279.885C468.633 275.49 465.762 270.363 463.77 264.504C461.777 258.645 460.781 252.287 460.781 245.432ZM477.041 243.41V245.432C477.041 250.178 477.598 254.66 478.711 258.879C479.824 263.039 481.494 266.73 483.721 269.953C486.006 273.176 488.848 275.725 492.246 277.6C495.645 279.416 499.6 280.324 504.111 280.324C508.564 280.324 512.461 279.416 515.801 277.6C519.199 275.725 522.012 273.176 524.238 269.953C526.465 266.73 528.135 263.039 529.248 258.879C530.42 254.66 531.006 250.178 531.006 245.432V243.41C531.006 238.723 530.42 234.299 529.248 230.139C528.135 225.92 526.436 222.199 524.15 218.977C521.924 215.695 519.111 213.117 515.713 211.242C512.373 209.367 508.447 208.43 503.936 208.43C499.482 208.43 495.557 209.367 492.158 211.242C488.818 213.117 486.006 215.695 483.721 218.977C481.494 222.199 479.824 225.92 478.711 230.139C477.598 234.299 477.041 238.723 477.041 243.41Z" fill="#A40000"/>
<path d="M427.559 251.232H444.434C443.555 259.318 441.24 266.555 437.49 272.941C433.74 279.328 428.438 284.396 421.582 288.146C414.727 291.838 406.172 293.684 395.918 293.684C388.418 293.684 381.592 292.277 375.439 289.465C369.346 286.652 364.102 282.668 359.707 277.512C355.312 272.297 351.914 266.057 349.512 258.791C347.168 251.467 345.996 243.322 345.996 234.357V221.613C345.996 212.648 347.168 204.533 349.512 197.268C351.914 189.943 355.342 183.674 359.795 178.459C364.307 173.244 369.727 169.23 376.055 166.418C382.383 163.605 389.502 162.199 397.412 162.199C407.08 162.199 415.254 164.016 421.934 167.648C428.613 171.281 433.799 176.32 437.49 182.766C441.24 189.152 443.555 196.564 444.434 205.002H427.559C426.738 199.025 425.215 193.898 422.988 189.621C420.762 185.285 417.598 181.945 413.496 179.602C409.395 177.258 404.033 176.086 397.412 176.086C391.729 176.086 386.719 177.17 382.383 179.338C378.105 181.506 374.502 184.582 371.572 188.566C368.701 192.551 366.533 197.326 365.068 202.893C363.604 208.459 362.871 214.641 362.871 221.438V234.357C362.871 240.627 363.516 246.516 364.805 252.023C366.152 257.531 368.174 262.365 370.869 266.525C373.564 270.686 376.992 273.967 381.152 276.369C385.312 278.713 390.234 279.885 395.918 279.885C403.125 279.885 408.867 278.742 413.145 276.457C417.422 274.172 420.645 270.891 422.812 266.613C425.039 262.336 426.621 257.209 427.559 251.232Z" fill="#A40000"/>
<path d="M170.336 38.7327C166.927 34.615 164.789 32.4775 160.508 28.954C141.316 39.7128 129.481 47.1616 105.54 63.7228C96.3336 60.8893 90.8008 57.739 79.9074 49.9437C100.977 69.647 105.533 90.5603 113.239 125.93L113.244 125.951C127.026 139.544 136.967 146.475 157.051 158.103C137.34 165.612 128.174 167.879 115.121 168.523C101.559 152.523 92.6444 138.829 68.1037 90.886C66.6367 85.1149 66.3228 81.6768 66.5233 75.2301C70.9591 54.0255 74.0195 43.9326 80.5988 29.3491C108.656 25.3992 128.563 24.5115 167.768 25.5462L170.336 38.7327Z" fill="#A40000"/>
<path d="M143.32 52.066C146.619 46.7914 153.03 41.5912 157.05 38.8301C159.833 43.159 161.163 45.9672 163.075 51.9178C159.047 50.9995 154.362 51.1265 143.32 52.066Z" fill="#A40000"/>
<path d="M121.292 103.676C126.164 98.8662 128.627 95.6483 131.811 87.5761C132.505 79.9419 133.327 76.1762 135.861 70.7844C141.639 67.1033 144.668 65.8076 149.245 64.8578C183.048 63.4326 200.099 65.0392 221.45 83.5263C235.331 108.56 238.561 120.419 235.822 137.507C193.814 160.389 169.616 168.665 125.885 179.388C99.045 181.372 84.6104 181.844 59.5078 182.005C63.3836 198.221 65.8301 207.204 72.7437 222.207C85.4769 222.969 120.626 220.534 133.688 218.453C163.852 211.283 180.043 206.759 208.51 198.402C215.947 191.758 219.853 186.587 226.487 175.585C210.91 175.609 201.906 175.967 185.397 177.264C226.254 159.612 241.601 149.349 259.873 126.691C255.109 104.882 250.487 93.18 239.674 73.0068C235.692 67.3656 233.197 64.3653 228.068 59.4252C195.221 56.946 176.652 56.7913 143.368 59.1289C139.59 59.8818 137.496 60.329 133.836 61.2032C124.541 63.1177 118.819 65.5115 108.155 70.9819C111.799 83.9105 114.836 91.0524 121.292 103.676Z" fill="#A40000"/>
<path d="M146.232 97.2565C150.438 92.0402 154.137 90.8202 162.53 90.9349C171.792 94.5651 176.294 97.011 178.384 100.467C178.399 102.813 178.113 104.105 176.655 105.652C171.058 109.142 166.27 110.616 147.961 110.394C145.144 105.969 144.638 103.136 146.232 97.2565Z" fill="#A40000"/>
<path d="M141.244 91.3301C145.183 90.2836 146.727 89.4778 148.355 87.9718C153.677 80.8133 158.614 78.2593 169.987 75.6249L167.518 72.8591C160.966 71.719 157.291 71.3557 150.726 71.7726C146.249 72.6152 144.428 74.1646 141.737 77.7979C140.295 82.4647 140.395 85.5303 141.244 91.3301Z" fill="#A40000"/>
<path d="M185.795 97.75C188.427 98.1467 189.974 98.2086 192.808 98.1451C194.432 98.0561 195.64 97.8162 198.241 97.0586C191.98 88.0918 188.679 83.7497 184.116 80.3656C181.213 78.8661 179.083 78.2654 174.831 78.0938C171.916 78.7322 164.004 84.2564 162.484 86.9835C170.183 86.5295 174.259 86.672 180.659 88.3664C182.53 90.0113 183.661 92.1623 185.795 97.75Z" fill="#A40000"/>
<path d="M190.828 77.7969C198.197 79.3048 202.322 80.1606 209.497 81.9454C223.446 96.0821 226.474 104.981 226.486 121.949C222.96 129.054 219.302 132.795 211.867 138.84C214.924 108.582 211.199 94.8163 190.828 77.7969Z" fill="#A40000"/>
<path d="M137.06 102.656C136.978 101.887 136.106 101.495 135.511 101.988C132.241 104.696 127.262 109.691 124.567 112.912C124.483 113.012 124.422 113.127 124.383 113.252C123.752 115.297 123.391 116.568 123.053 118.528C122.993 118.874 123.128 119.228 123.397 119.454C133.675 128.05 140.688 132.399 156.05 137.953C159.398 138.663 161.385 138.869 164.967 138.753C165.143 138.747 165.319 138.692 165.468 138.598C180.701 129.034 184.448 126.447 187.263 124.125L190.029 121.853C191.553 120.543 192.327 119.785 193.585 118.396L194.77 117.013C196.216 114.938 197.343 113.509 198.645 112.109C199.36 111.341 198.613 110.043 197.603 110.324C182.012 114.648 172.96 116.665 160.396 117.704C156.342 117.988 154.144 117.992 150.42 117.606L142.534 116.181C142.331 116.144 142.142 116.045 142 115.895C138.781 112.52 137.752 109.148 137.06 102.656Z" fill="#A40000"/>
<path d="M174.676 152.191C174.043 152.898 174.662 153.999 175.595 153.824C184.523 152.149 190.46 150.698 200.541 146.766C200.887 146.631 201.134 146.31 201.172 145.94C201.959 138.412 201.816 134.352 200.991 128.773C200.876 127.995 199.944 127.662 199.354 128.182C187.754 138.417 181.846 144.193 174.676 152.191Z" fill="#A40000"/>
<path d="M53.3066 162.71C52.636 163.368 53.1597 164.503 54.0951 164.418C60.1494 163.867 66.3491 163.267 78.5755 162.119C78.7014 162.107 78.8287 162.07 78.9414 162.012C85.725 158.547 89.4145 156.427 95.2546 153.302C95.8172 153.001 95.9593 152.255 95.5495 151.766C88.9447 143.88 85.709 138.682 81.4416 130.21C81.0706 129.474 80.0182 129.472 79.6666 130.218C78.5676 132.549 77.8951 134.391 77.0404 137.357C76.0406 140.749 74.4312 142.049 71.5584 144.815L53.3066 162.71Z" fill="#A40000"/>
<path d="M288.026 169.115C287.009 169.752 286.437 169.857 285.457 169.115C272.907 161.435 267.171 156.605 259.677 146.891C258.513 145.484 258.607 144.714 259.035 143.582C260.634 139.118 262.453 136.764 267.282 132.97C267.411 132.869 267.515 132.737 267.582 132.588L271.629 123.53C271.933 122.815 271.867 122.356 271.629 121.505C264.012 94.5796 258.294 79.442 237.18 52.5949C237.039 52.4154 236.836 52.285 236.613 52.2347C230.711 50.9034 227.092 50.5381 220.76 49.8439C199.24 48.1056 190.705 48.0639 181.828 49.256C181.153 49.3466 180.579 48.7577 180.681 48.0845C181.848 40.3862 181.365 33.5585 178.263 18.2508C178.164 17.7642 177.716 17.4176 177.22 17.4455C159.398 18.4483 148.524 18.5905 128.397 17.4164C127.783 17.3806 127.337 16.8019 127.492 16.2065C128.358 12.8672 129.649 10.6411 133.625 6.97319C133.762 6.84646 133.936 6.75954 134.12 6.7259C140.265 5.60144 144.561 5.28634 152.753 5H161.149L177.397 5.7902L196.757 7.3706C202.739 7.70413 205.958 8.03518 211.672 8.65468C221.518 10.026 227.247 11.0645 238.312 14.8932C238.635 15.0051 238.885 15.2808 238.958 15.6153C240.67 23.4546 239.11 28.7633 234.5 35.548C233.836 36.5252 235.142 37.8261 236.095 37.1269C240.559 33.8492 244.301 31.7368 249.404 31.1754C253.503 30.9706 256.461 31.5388 262.501 33.4699C262.656 33.5193 262.8 33.608 262.913 33.724C287.29 58.6278 300.79 79.9725 318.843 131.432C319.546 133.851 319.796 135.214 319.93 137.655V140.816C319.982 142.886 319.974 144.055 319.118 145.661C319.068 145.756 318.999 145.843 318.92 145.915C306.461 157.352 299.576 163.013 288.026 169.115Z" fill="#A40000"/>
<path d="M250.961 164.473C251.05 163.6 252.142 163.238 252.719 163.898C270.394 184.099 278.937 196.713 290.492 219.631C290.674 219.991 290.618 220.437 290.355 220.743C261.062 254.805 242.653 270.706 206.793 292.676C206.629 292.776 206.432 292.829 206.24 292.825C158.959 291.749 139.993 290.361 122.671 286.281C122.482 286.237 122.309 286.136 122.176 285.996C107.223 270.285 99.8036 260.299 91.8119 241.845C91.5424 241.223 91.9729 240.515 92.6482 240.452C144.321 235.652 173.925 228.171 223.419 199.249C224.212 198.785 225.18 199.54 224.901 200.416C216.531 226.735 213.699 238.489 211.437 252.425C211.268 253.465 212.609 254.007 213.216 253.146C236.052 220.728 247.257 200.813 250.961 164.473Z" fill="#A40000"/>
<path d="M93.5695 279.857C94.3906 279.792 94.782 278.815 94.2379 278.196C82.1776 264.489 77.5388 256.799 76.712 245.548C76.671 244.99 76.1898 244.564 75.6306 244.589C66.103 245.02 56.61 241.854 35.8306 232.076C35.1162 231.74 34.3049 232.322 34.4072 233.105C37.0081 253.003 39.9213 262.851 48.09 275.421C48.2236 275.627 48.4343 275.779 48.671 275.843C65.924 280.48 76.1699 281.227 93.5695 279.857Z" fill="#A40000"/>
<path d="M30.1438 170.316C30.0665 170.085 30.0771 169.828 30.173 169.605C36.6214 154.587 44.179 146.224 61.1734 131.585C61.2148 131.55 61.2553 131.509 61.2903 131.467C72.6842 117.786 68.7693 108.117 48.2971 88.3628C48.2328 88.3008 48.1575 88.2453 48.0791 88.2025C42.4533 85.1339 38.167 82.8766 32.0604 79.8813C31.0079 79.365 31.5547 77.682 32.7124 77.8663C39.161 78.8926 44.2654 79.3113 51.419 79.3728C51.853 79.3765 52.2419 79.0985 52.3709 78.6841C53.1117 76.3057 53.666 73.9359 56.2978 66.1419C57.0043 63.8891 57.0757 62.5839 56.8905 60.2154C56.7231 58.8243 56.5837 57.9687 56.0879 56.8553C55.9261 56.4917 55.5405 56.2809 55.1434 56.3068C37.7534 57.4403 29.5702 59.2427 19.751 65.4505C6.75147 72.4543 5.7668 81.8814 4.73717 99.3303L0.00868796 134.843C0.000224036 134.907 -0.00202735 134.972 0.00180993 135.036C2.12898 170.522 3.42273 190.397 12.6078 207.098C12.8038 207.455 13.0094 207.928 13.3181 208.193C16.6725 211.074 40.4484 224.446 48.5933 224.281C57.4739 224.101 59.1623 226.306 57.5819 217.367C56.0015 208.428 52.8725 203.654 45.7289 193.957C35.8428 182.5 33.0377 178.947 30.1438 170.316Z" fill="#A40000"/>
</svg>
