<svg width="915" height="294" viewBox="0 0 915 294" fill="none" xmlns="http://www.w3.org/2000/svg">
<path d="M812.391 83.1604C812.391 73.2004 814.431 64.3804 818.511 56.7004C822.711 49.0204 828.351 43.0804 835.431 38.8804C842.631 34.5604 850.551 32.4004 859.191 32.4004C866.991 32.4004 873.771 33.9604 879.531 37.0804C885.411 40.0804 890.091 43.8604 893.571 48.4204V34.0204H914.271V133.2H893.571V118.44C890.091 123.12 885.351 127.02 879.351 130.14C873.351 133.26 866.511 134.82 858.831 134.82C850.311 134.82 842.511 132.66 835.431 128.34C828.351 123.9 822.711 117.78 818.511 109.98C814.431 102.06 812.391 93.1204 812.391 83.1604ZM893.571 83.5204C893.571 76.6804 892.131 70.7404 889.251 65.7004C886.491 60.6604 882.831 56.8204 878.271 54.1804C873.711 51.5404 868.791 50.2204 863.511 50.2204C858.231 50.2204 853.311 51.5404 848.751 54.1804C844.191 56.7004 840.471 60.4804 837.591 65.5204C834.831 70.4404 833.451 76.3204 833.451 83.1604C833.451 90.0004 834.831 96.0004 837.591 101.16C840.471 106.32 844.191 110.28 848.751 113.04C853.431 115.68 858.351 117 863.511 117C868.791 117 873.711 115.68 878.271 113.04C882.831 110.4 886.491 106.56 889.251 101.52C892.131 96.3604 893.571 90.3604 893.571 83.5204Z" fill="#07090A"/>
<path d="M759.575 32.4004C767.375 32.4004 774.335 34.0204 780.455 37.2604C786.695 40.5004 791.555 45.3004 795.035 51.6604C798.515 58.0204 800.255 65.7004 800.255 74.7004V133.2H779.915V77.7604C779.915 68.8804 777.695 62.1004 773.255 57.4204C768.815 52.6204 762.755 50.2204 755.075 50.2204C747.395 50.2204 741.275 52.6204 736.715 57.4204C732.275 62.1004 730.055 68.8804 730.055 77.7604V133.2H709.535V34.0204H730.055V45.3604C733.415 41.2804 737.675 38.1004 742.835 35.8204C748.115 33.5404 753.695 32.4004 759.575 32.4004Z" fill="#07090A"/>
<path d="M644.969 134.82C635.609 134.82 627.149 132.72 619.589 128.52C612.029 124.2 606.089 118.2 601.769 110.52C597.449 102.72 595.289 93.7204 595.289 83.5204C595.289 73.4404 597.509 64.5004 601.949 56.7004C606.389 48.9004 612.449 42.9004 620.129 38.7004C627.809 34.5004 636.389 32.4004 645.869 32.4004C655.349 32.4004 663.929 34.5004 671.609 38.7004C679.289 42.9004 685.349 48.9004 689.789 56.7004C694.229 64.5004 696.449 73.4404 696.449 83.5204C696.449 93.6004 694.169 102.54 689.609 110.34C685.049 118.14 678.809 124.2 670.889 128.52C663.089 132.72 654.449 134.82 644.969 134.82ZM644.969 117C650.249 117 655.169 115.74 659.729 113.22C664.409 110.7 668.189 106.92 671.069 101.88C673.949 96.8404 675.389 90.7204 675.389 83.5204C675.389 76.3204 674.009 70.2604 671.249 65.3404C668.489 60.3004 664.829 56.5204 660.269 54.0004C655.709 51.4804 650.789 50.2204 645.509 50.2204C640.229 50.2204 635.309 51.4804 630.749 54.0004C626.309 56.5204 622.769 60.3004 620.129 65.3404C617.489 70.2604 616.169 76.3204 616.169 83.5204C616.169 94.2004 618.869 102.48 624.269 108.36C629.789 114.12 636.689 117 644.969 117Z" fill="#07090A"/>
<path d="M582.208 0V133.2H561.688V0H582.208Z" fill="#07090A"/>
<path d="M440.059 83.1604C440.059 73.2004 442.099 64.3804 446.179 56.7004C450.379 49.0204 456.019 43.0804 463.099 38.8804C470.299 34.5604 478.219 32.4004 486.859 32.4004C494.659 32.4004 501.439 33.9604 507.199 37.0804C513.079 40.0804 517.759 43.8604 521.239 48.4204V34.0204H541.939V133.2H521.239V118.44C517.759 123.12 513.019 127.02 507.019 130.14C501.019 133.26 494.179 134.82 486.499 134.82C477.979 134.82 470.179 132.66 463.099 128.34C456.019 123.9 450.379 117.78 446.179 109.98C442.099 102.06 440.059 93.1204 440.059 83.1604ZM521.239 83.5204C521.239 76.6804 519.799 70.7404 516.919 65.7004C514.159 60.6604 510.499 56.8204 505.939 54.1804C501.379 51.5404 496.459 50.2204 491.179 50.2204C485.899 50.2204 480.979 51.5404 476.419 54.1804C471.859 56.7004 468.139 60.4804 465.259 65.5204C462.499 70.4404 461.119 76.3204 461.119 83.1604C461.119 90.0004 462.499 96.0004 465.259 101.16C468.139 106.32 471.859 110.28 476.419 113.04C481.099 115.68 486.019 117 491.179 117C496.459 117 501.379 115.68 505.939 113.04C510.499 110.4 514.159 106.56 516.919 101.52C519.799 96.3604 521.239 90.3604 521.239 83.5204Z" fill="#07090A"/>
<path d="M433.316 8.09961V24.8396H400.016V133.2H379.496V24.8396H346.016V8.09961H433.316Z" fill="#07090A"/>
<path d="M775.691 275.667V226.712C775.691 222.962 774.93 219.71 773.406 216.956C771.941 214.144 769.715 211.976 766.727 210.452C763.738 208.929 760.047 208.167 755.652 208.167C751.551 208.167 747.947 208.87 744.842 210.276C741.795 211.683 739.393 213.528 737.635 215.813C735.936 218.099 735.086 220.56 735.086 223.196H718.826C718.826 219.798 719.705 216.429 721.463 213.089C723.221 209.749 725.74 206.731 729.021 204.036C732.361 201.282 736.346 199.114 740.975 197.532C745.662 195.892 750.877 195.071 756.619 195.071C763.533 195.071 769.627 196.243 774.9 198.587C780.232 200.931 784.393 204.476 787.381 209.222C790.428 213.909 791.951 219.798 791.951 226.888V271.185C791.951 274.349 792.215 277.718 792.742 281.292C793.328 284.866 794.178 287.942 795.291 290.521V291.927H778.328C777.508 290.052 776.863 287.562 776.395 284.456C775.926 281.292 775.691 278.362 775.691 275.667ZM778.504 234.271L778.68 245.696H762.244C757.615 245.696 753.484 246.077 749.852 246.839C746.219 247.542 743.172 248.626 740.711 250.091C738.25 251.556 736.375 253.401 735.086 255.628C733.797 257.796 733.152 260.345 733.152 263.274C733.152 266.263 733.826 268.987 735.174 271.448C736.521 273.909 738.543 275.872 741.238 277.337C743.992 278.743 747.361 279.446 751.346 279.446C756.326 279.446 760.721 278.392 764.529 276.282C768.338 274.173 771.355 271.595 773.582 268.548C775.867 265.501 777.098 262.542 777.273 259.671L784.217 267.493C783.807 269.954 782.693 272.679 780.877 275.667C779.061 278.655 776.629 281.526 773.582 284.28C770.594 286.976 767.02 289.231 762.859 291.048C758.758 292.806 754.129 293.685 748.973 293.685C742.527 293.685 736.873 292.425 732.01 289.905C727.205 287.386 723.455 284.017 720.76 279.798C718.123 275.521 716.805 270.745 716.805 265.472C716.805 260.374 717.801 255.892 719.793 252.024C721.785 248.099 724.656 244.847 728.406 242.269C732.156 239.632 736.668 237.64 741.941 236.292C747.215 234.944 753.104 234.271 759.607 234.271H778.504Z" fill="#6A0DAD"/>
<path d="M700.549 196.829V209.31H649.133V196.829H700.549ZM666.535 173.714H682.795V268.372C682.795 271.595 683.293 274.026 684.289 275.667C685.285 277.308 686.574 278.392 688.156 278.919C689.738 279.446 691.438 279.71 693.254 279.71C694.602 279.71 696.008 279.593 697.473 279.358C698.996 279.065 700.139 278.831 700.9 278.655L700.988 291.927C699.699 292.337 698 292.718 695.891 293.069C693.84 293.479 691.35 293.685 688.42 293.685C684.436 293.685 680.773 292.894 677.434 291.312C674.094 289.729 671.428 287.093 669.436 283.401C667.502 279.651 666.535 274.612 666.535 268.284V173.714Z" fill="#6A0DAD"/>
<path d="M623.117 266.702C623.117 264.358 622.59 262.19 621.535 260.198C620.539 258.147 618.459 256.302 615.295 254.661C612.189 252.962 607.502 251.497 601.232 250.267C595.959 249.153 591.184 247.835 586.906 246.312C582.688 244.788 579.084 242.942 576.096 240.774C573.166 238.606 570.91 236.058 569.328 233.128C567.746 230.198 566.955 226.771 566.955 222.845C566.955 219.095 567.775 215.55 569.416 212.21C571.115 208.87 573.488 205.911 576.535 203.333C579.641 200.755 583.361 198.733 587.697 197.269C592.033 195.804 596.867 195.071 602.199 195.071C609.816 195.071 616.32 196.419 621.711 199.114C627.102 201.81 631.232 205.413 634.104 209.925C636.975 214.378 638.41 219.329 638.41 224.778H622.15C622.15 222.142 621.359 219.593 619.777 217.132C618.254 214.612 615.998 212.532 613.01 210.892C610.08 209.251 606.477 208.431 602.199 208.431C597.688 208.431 594.025 209.134 591.213 210.54C588.459 211.888 586.438 213.616 585.148 215.726C583.918 217.835 583.303 220.062 583.303 222.405C583.303 224.163 583.596 225.745 584.182 227.151C584.826 228.499 585.939 229.759 587.521 230.931C589.104 232.044 591.33 233.099 594.201 234.095C597.072 235.091 600.734 236.087 605.188 237.083C612.98 238.841 619.396 240.95 624.436 243.411C629.475 245.872 633.225 248.89 635.686 252.464C638.146 256.038 639.377 260.374 639.377 265.472C639.377 269.632 638.498 273.44 636.74 276.897C635.041 280.354 632.551 283.343 629.27 285.862C626.047 288.323 622.18 290.257 617.668 291.663C613.215 293.011 608.205 293.685 602.639 293.685C594.26 293.685 587.17 292.19 581.369 289.202C575.568 286.214 571.174 282.347 568.186 277.601C565.197 272.854 563.703 267.845 563.703 262.571H580.051C580.285 267.024 581.574 270.569 583.918 273.206C586.262 275.784 589.133 277.63 592.531 278.743C595.93 279.798 599.299 280.325 602.639 280.325C607.092 280.325 610.812 279.739 613.801 278.567C616.848 277.396 619.162 275.784 620.744 273.733C622.326 271.683 623.117 269.339 623.117 266.702Z" fill="#6A0DAD"/>
<path d="M460.781 245.433V243.411C460.781 236.556 461.777 230.198 463.77 224.339C465.762 218.421 468.633 213.294 472.383 208.958C476.133 204.563 480.674 201.165 486.006 198.763C491.338 196.302 497.314 195.071 503.936 195.071C510.615 195.071 516.621 196.302 521.953 198.763C527.344 201.165 531.914 204.563 535.664 208.958C539.473 213.294 542.373 218.421 544.365 224.339C546.357 230.198 547.354 236.556 547.354 243.411V245.433C547.354 252.288 546.357 258.646 544.365 264.505C542.373 270.364 539.473 275.491 535.664 279.886C531.914 284.222 527.373 287.62 522.041 290.081C516.768 292.483 510.791 293.685 504.111 293.685C497.432 293.685 491.426 292.483 486.094 290.081C480.762 287.62 476.191 284.222 472.383 279.886C468.633 275.491 465.762 270.364 463.77 264.505C461.777 258.646 460.781 252.288 460.781 245.433ZM477.041 243.411V245.433C477.041 250.179 477.598 254.661 478.711 258.88C479.824 263.04 481.494 266.731 483.721 269.954C486.006 273.177 488.848 275.726 492.246 277.601C495.645 279.417 499.6 280.325 504.111 280.325C508.564 280.325 512.461 279.417 515.801 277.601C519.199 275.726 522.012 273.177 524.238 269.954C526.465 266.731 528.135 263.04 529.248 258.88C530.42 254.661 531.006 250.179 531.006 245.433V243.411C531.006 238.724 530.42 234.3 529.248 230.14C528.135 225.921 526.436 222.2 524.15 218.978C521.924 215.696 519.111 213.118 515.713 211.243C512.373 209.368 508.447 208.431 503.936 208.431C499.482 208.431 495.557 209.368 492.158 211.243C488.818 213.118 486.006 215.696 483.721 218.978C481.494 222.2 479.824 225.921 478.711 230.14C477.598 234.3 477.041 238.724 477.041 243.411Z" fill="#6A0DAD"/>
<path d="M427.559 251.233H444.434C443.555 259.319 441.24 266.556 437.49 272.942C433.74 279.329 428.438 284.397 421.582 288.147C414.727 291.839 406.172 293.685 395.918 293.685C388.418 293.685 381.592 292.278 375.439 289.466C369.346 286.653 364.102 282.669 359.707 277.513C355.312 272.298 351.914 266.058 349.512 258.792C347.168 251.468 345.996 243.323 345.996 234.358V221.614C345.996 212.649 347.168 204.534 349.512 197.269C351.914 189.944 355.342 183.675 359.795 178.46C364.307 173.245 369.727 169.231 376.055 166.419C382.383 163.606 389.502 162.2 397.412 162.2C407.08 162.2 415.254 164.017 421.934 167.649C428.613 171.282 433.799 176.321 437.49 182.767C441.24 189.153 443.555 196.565 444.434 205.003H427.559C426.738 199.026 425.215 193.899 422.988 189.622C420.762 185.286 417.598 181.946 413.496 179.603C409.395 177.259 404.033 176.087 397.412 176.087C391.729 176.087 386.719 177.171 382.383 179.339C378.105 181.507 374.502 184.583 371.572 188.567C368.701 192.552 366.533 197.327 365.068 202.894C363.604 208.46 362.871 214.642 362.871 221.438V234.358C362.871 240.628 363.516 246.517 364.805 252.024C366.152 257.532 368.174 262.366 370.869 266.526C373.564 270.687 376.992 273.968 381.152 276.37C385.312 278.714 390.234 279.886 395.918 279.886C403.125 279.886 408.867 278.743 413.145 276.458C417.422 274.173 420.645 270.892 422.812 266.614C425.039 262.337 426.621 257.21 427.559 251.233Z" fill="#6A0DAD"/>
<path d="M170.336 38.7317C166.927 34.614 164.789 32.4765 160.508 28.953C141.316 39.7118 129.481 47.1606 105.54 63.7218C96.3336 60.8883 90.8008 57.738 79.9074 49.9427C100.977 69.646 105.533 90.5593 113.239 125.929L113.244 125.95C127.026 139.543 136.967 146.474 157.051 158.102C137.34 165.611 128.174 167.878 115.121 168.522C101.559 152.522 92.6444 138.828 68.1037 90.885C66.6367 85.114 66.3228 81.6758 66.5233 75.2292C70.9591 54.0245 74.0195 43.9317 80.5988 29.3481C108.656 25.3982 128.563 24.5105 167.768 25.5452L170.336 38.7317Z" fill="#6A0DAD"/>
<path d="M143.32 52.065C146.619 46.7905 153.03 41.5902 157.05 38.8291C159.833 43.158 161.163 45.9663 163.075 51.9169C159.047 50.9985 154.362 51.1255 143.32 52.065Z" fill="#6A0DAD"/>
<path d="M121.292 103.676C126.164 98.8662 128.627 95.6483 131.811 87.5761C132.505 79.9419 133.327 76.1762 135.861 70.7844C141.639 67.1033 144.668 65.8076 149.245 64.8578C183.048 63.4326 200.099 65.0392 221.45 83.5263C235.331 108.56 238.561 120.419 235.822 137.507C193.814 160.389 169.616 168.665 125.885 179.388C99.045 181.372 84.6104 181.844 59.5078 182.005C63.3836 198.221 65.8301 207.204 72.7437 222.207C85.4769 222.969 120.626 220.534 133.688 218.453C163.852 211.283 180.043 206.759 208.51 198.402C215.947 191.758 219.853 186.587 226.487 175.585C210.91 175.609 201.906 175.967 185.397 177.264C226.254 159.612 241.601 149.349 259.873 126.691C255.109 104.882 250.487 93.18 239.674 73.0068C235.692 67.3656 233.197 64.3653 228.068 59.4252C195.221 56.946 176.652 56.7913 143.368 59.1289C139.59 59.8818 137.496 60.329 133.836 61.2032C124.541 63.1177 118.819 65.5115 108.155 70.9819C111.799 83.9105 114.836 91.0524 121.292 103.676Z" fill="#6A0DAD"/>
<path d="M146.232 97.2565C150.438 92.0402 154.137 90.8202 162.53 90.9349C171.792 94.5651 176.294 97.011 178.384 100.467C178.399 102.813 178.113 104.105 176.655 105.652C171.058 109.142 166.27 110.616 147.961 110.394C145.144 105.969 144.638 103.136 146.232 97.2565Z" fill="#6A0DAD"/>
<path d="M141.244 91.3291C145.183 90.2826 146.727 89.4768 148.355 87.9708C153.677 80.8123 158.614 78.2583 169.987 75.6239L167.518 72.8582C160.966 71.7181 157.291 71.3547 150.726 71.7716C146.249 72.6143 144.428 74.1636 141.737 77.7969C140.295 82.4637 140.395 85.5293 141.244 91.3291Z" fill="#6A0DAD"/>
<path d="M185.795 97.75C188.427 98.1467 189.974 98.2086 192.808 98.1451C194.432 98.0561 195.64 97.8162 198.241 97.0586C191.98 88.0918 188.679 83.7497 184.116 80.3656C181.213 78.8661 179.083 78.2654 174.831 78.0938C171.916 78.7322 164.004 84.2564 162.484 86.9835C170.183 86.5295 174.259 86.672 180.659 88.3664C182.53 90.0113 183.661 92.1623 185.795 97.75Z" fill="#6A0DAD"/>
<path d="M190.828 77.7969C198.197 79.3048 202.322 80.1606 209.497 81.9454C223.446 96.0821 226.474 104.981 226.486 121.949C222.96 129.054 219.302 132.795 211.867 138.84C214.924 108.582 211.199 94.8163 190.828 77.7969Z" fill="#6A0DAD"/>
<path d="M137.06 102.656C136.978 101.886 136.106 101.494 135.511 101.987C132.241 104.695 127.262 109.69 124.567 112.911C124.483 113.011 124.422 113.126 124.383 113.251C123.752 115.296 123.391 116.567 123.053 118.527C122.993 118.873 123.128 119.227 123.397 119.453C133.675 128.049 140.688 132.398 156.05 137.952C159.398 138.662 161.385 138.868 164.967 138.752C165.143 138.746 165.319 138.691 165.468 138.597C180.701 129.033 184.448 126.446 187.263 124.124L190.029 121.852C191.553 120.542 192.327 119.784 193.585 118.395L194.77 117.012C196.216 114.937 197.343 113.508 198.645 112.108C199.36 111.34 198.613 110.042 197.603 110.323C182.012 114.647 172.96 116.664 160.396 117.704C156.342 117.987 154.144 117.991 150.42 117.605L142.534 116.18C142.331 116.143 142.142 116.044 142 115.894C138.781 112.519 137.752 109.147 137.06 102.656Z" fill="#6A0DAD"/>
<path d="M174.676 152.192C174.043 152.899 174.662 154 175.595 153.825C184.523 152.15 190.46 150.699 200.541 146.767C200.887 146.632 201.134 146.311 201.172 145.941C201.959 138.413 201.816 134.353 200.991 128.774C200.876 127.996 199.944 127.663 199.354 128.183C187.754 138.418 181.846 144.194 174.676 152.192Z" fill="#6A0DAD"/>
<path d="M53.3066 162.711C52.636 163.369 53.1597 164.504 54.0951 164.419C60.1494 163.868 66.3491 163.268 78.5755 162.12C78.7014 162.108 78.8287 162.071 78.9414 162.013C85.725 158.547 89.4145 156.428 95.2546 153.303C95.8172 153.002 95.9593 152.256 95.5495 151.767C88.9447 143.881 85.709 138.683 81.4416 130.211C81.0706 129.475 80.0182 129.473 79.6666 130.219C78.5676 132.55 77.8951 134.392 77.0404 137.358C76.0406 140.75 74.4312 142.05 71.5584 144.816L53.3066 162.711Z" fill="#6A0DAD"/>
<path d="M288.026 169.115C287.009 169.752 286.437 169.857 285.457 169.115C272.907 161.435 267.171 156.605 259.677 146.891C258.513 145.484 258.607 144.714 259.035 143.582C260.634 139.118 262.453 136.764 267.282 132.97C267.411 132.869 267.515 132.737 267.582 132.588L271.629 123.53C271.933 122.815 271.867 122.356 271.629 121.505C264.012 94.5796 258.294 79.442 237.18 52.5949C237.039 52.4154 236.836 52.285 236.613 52.2347C230.711 50.9034 227.092 50.5381 220.76 49.8439C199.24 48.1056 190.705 48.0639 181.828 49.256C181.153 49.3466 180.579 48.7577 180.681 48.0845C181.848 40.3862 181.365 33.5585 178.263 18.2508C178.164 17.7642 177.716 17.4176 177.22 17.4455C159.398 18.4483 148.524 18.5905 128.397 17.4164C127.783 17.3806 127.337 16.8019 127.492 16.2065C128.358 12.8672 129.649 10.6411 133.625 6.97319C133.762 6.84646 133.936 6.75954 134.12 6.7259C140.265 5.60144 144.561 5.28634 152.753 5H161.149L177.397 5.7902L196.757 7.3706C202.739 7.70413 205.958 8.03518 211.672 8.65468C221.518 10.026 227.247 11.0645 238.312 14.8932C238.635 15.0051 238.885 15.2808 238.958 15.6153C240.67 23.4546 239.11 28.7633 234.5 35.548C233.836 36.5252 235.142 37.8261 236.095 37.1269C240.559 33.8492 244.301 31.7368 249.404 31.1754C253.503 30.9706 256.461 31.5388 262.501 33.4699C262.656 33.5193 262.8 33.608 262.913 33.724C287.29 58.6278 300.79 79.9725 318.843 131.432C319.546 133.851 319.796 135.214 319.93 137.655V140.816C319.982 142.886 319.974 144.055 319.118 145.661C319.068 145.756 318.999 145.843 318.92 145.915C306.461 157.352 299.576 163.013 288.026 169.115Z" fill="#6A0DAD"/>
<path d="M250.961 164.472C251.05 163.599 252.142 163.237 252.719 163.897C270.394 184.098 278.937 196.712 290.492 219.63C290.674 219.99 290.618 220.436 290.355 220.742C261.062 254.804 242.653 270.705 206.793 292.675C206.629 292.775 206.432 292.828 206.24 292.824C158.959 291.748 139.993 290.36 122.671 286.28C122.482 286.236 122.309 286.135 122.176 285.995C107.223 270.284 99.8036 260.298 91.8119 241.844C91.5424 241.222 91.9729 240.514 92.6482 240.451C144.321 235.651 173.925 228.17 223.419 199.248C224.212 198.784 225.18 199.539 224.901 200.415C216.531 226.734 213.699 238.488 211.437 252.425C211.268 253.464 212.609 254.006 213.216 253.145C236.052 220.727 247.257 200.812 250.961 164.472Z" fill="#6A0DAD"/>
<path d="M93.5695 279.857C94.3906 279.792 94.782 278.815 94.2379 278.196C82.1776 264.489 77.5388 256.799 76.712 245.548C76.671 244.99 76.1898 244.564 75.6306 244.589C66.103 245.02 56.61 241.854 35.8306 232.076C35.1162 231.74 34.3049 232.322 34.4072 233.105C37.0081 253.003 39.9213 262.851 48.09 275.421C48.2236 275.627 48.4343 275.779 48.671 275.843C65.924 280.48 76.1699 281.227 93.5695 279.857Z" fill="#6A0DAD"/>
<path d="M30.1438 170.316C30.0665 170.085 30.0771 169.828 30.173 169.605C36.6214 154.587 44.179 146.224 61.1734 131.585C61.2148 131.55 61.2553 131.509 61.2903 131.467C72.6842 117.786 68.7693 108.117 48.2971 88.3628C48.2328 88.3008 48.1575 88.2453 48.0791 88.2025C42.4533 85.1339 38.167 82.8766 32.0604 79.8813C31.0079 79.365 31.5547 77.682 32.7124 77.8663C39.161 78.8926 44.2654 79.3113 51.419 79.3728C51.853 79.3765 52.2419 79.0985 52.3709 78.6841C53.1117 76.3057 53.666 73.9359 56.2978 66.1419C57.0043 63.8891 57.0757 62.5839 56.8905 60.2154C56.7231 58.8243 56.5837 57.9687 56.0879 56.8553C55.9261 56.4917 55.5405 56.2809 55.1434 56.3068C37.7534 57.4403 29.5702 59.2427 19.751 65.4505C6.75147 72.4543 5.7668 81.8814 4.73717 99.3303L0.00868796 134.843C0.000224036 134.907 -0.00202735 134.972 0.00180993 135.036C2.12898 170.522 3.42273 190.397 12.6078 207.098C12.8038 207.455 13.0094 207.928 13.3181 208.193C16.6725 211.074 40.4484 224.446 48.5933 224.281C57.4739 224.101 59.1623 226.306 57.5819 217.367C56.0015 208.428 52.8725 203.654 45.7289 193.957C35.8428 182.5 33.0377 178.947 30.1438 170.316Z" fill="#6A0DAD"/>
</svg>
