<svg width="917" height="298" viewBox="0 0 917 298" fill="none" xmlns="http://www.w3.org/2000/svg">
<path d="M422.32 8.89999V25.64H389.02V134H368.5V25.64H335.02V8.89999H422.32ZM429.062 83.96C429.062 74 431.102 65.18 435.182 57.5C439.382 49.82 445.022 43.88 452.102 39.68C459.302 35.36 467.222 33.2 475.862 33.2C483.662 33.2 490.442 34.76 496.202 37.88C502.082 40.88 506.762 44.66 510.242 49.22V34.82H530.942V134H510.242V119.24C506.762 123.92 502.022 127.82 496.022 130.94C490.022 134.06 483.182 135.62 475.502 135.62C466.982 135.62 459.182 133.46 452.102 129.14C445.022 124.7 439.382 118.58 435.182 110.78C431.102 102.86 429.062 93.92 429.062 83.96ZM510.242 84.32C510.242 77.48 508.802 71.54 505.922 66.5C503.162 61.46 499.502 57.62 494.942 54.98C490.382 52.34 485.462 51.02 480.182 51.02C474.902 51.02 469.982 52.34 465.422 54.98C460.862 57.5 457.142 61.28 454.262 66.32C451.502 71.24 450.122 77.12 450.122 83.96C450.122 90.8 451.502 96.8 454.262 101.96C457.142 107.12 460.862 111.08 465.422 113.84C470.102 116.48 475.022 117.8 480.182 117.8C485.462 117.8 490.382 116.48 494.942 113.84C499.502 111.2 503.162 107.36 505.922 102.32C508.802 97.16 510.242 91.16 510.242 84.32ZM571.214 0.799998V134H550.694V0.799998H571.214ZM633.975 135.62C624.615 135.62 616.155 133.52 608.595 129.32C601.035 125 595.095 119 590.775 111.32C586.455 103.52 584.295 94.52 584.295 84.32C584.295 74.24 586.515 65.3 590.955 57.5C595.395 49.7 601.455 43.7 609.135 39.5C616.815 35.3 625.395 33.2 634.875 33.2C644.355 33.2 652.935 35.3 660.615 39.5C668.295 43.7 674.355 49.7 678.795 57.5C683.235 65.3 685.455 74.24 685.455 84.32C685.455 94.4 683.175 103.34 678.615 111.14C674.055 118.94 667.815 125 659.895 129.32C652.095 133.52 643.455 135.62 633.975 135.62ZM633.975 117.8C639.255 117.8 644.175 116.54 648.735 114.02C653.415 111.5 657.195 107.72 660.075 102.68C662.955 97.64 664.395 91.52 664.395 84.32C664.395 77.12 663.015 71.06 660.255 66.14C657.495 61.1 653.835 57.32 649.275 54.8C644.715 52.28 639.795 51.02 634.515 51.02C629.235 51.02 624.315 52.28 619.755 54.8C615.315 57.32 611.775 61.1 609.135 66.14C606.495 71.06 605.175 77.12 605.175 84.32C605.175 95 607.875 103.28 613.275 109.16C618.795 114.92 625.695 117.8 633.975 117.8ZM748.58 33.2C756.38 33.2 763.34 34.82 769.46 38.06C775.7 41.3 780.56 46.1 784.04 52.46C787.52 58.82 789.26 66.5 789.26 75.5V134H768.92V78.56C768.92 69.68 766.7 62.9 762.26 58.22C757.82 53.42 751.76 51.02 744.08 51.02C736.4 51.02 730.28 53.42 725.72 58.22C721.28 62.9 719.06 69.68 719.06 78.56V134H698.54V34.82H719.06V46.16C722.42 42.08 726.68 38.9 731.84 36.62C737.12 34.34 742.7 33.2 748.58 33.2ZM801.394 83.96C801.394 74 803.434 65.18 807.514 57.5C811.714 49.82 817.354 43.88 824.434 39.68C831.634 35.36 839.554 33.2 848.194 33.2C855.994 33.2 862.774 34.76 868.534 37.88C874.414 40.88 879.094 44.66 882.574 49.22V34.82H903.274V134H882.574V119.24C879.094 123.92 874.354 127.82 868.354 130.94C862.354 134.06 855.514 135.62 847.834 135.62C839.314 135.62 831.514 133.46 824.434 129.14C817.354 124.7 811.714 118.58 807.514 110.78C803.434 102.86 801.394 93.92 801.394 83.96ZM882.574 84.32C882.574 77.48 881.134 71.54 878.254 66.5C875.494 61.46 871.834 57.62 867.274 54.98C862.714 52.34 857.794 51.02 852.514 51.02C847.234 51.02 842.314 52.34 837.754 54.98C833.194 57.5 829.474 61.28 826.594 66.32C823.834 71.24 822.454 77.12 822.454 83.96C822.454 90.8 823.834 96.8 826.594 101.96C829.474 107.12 833.194 111.08 837.754 113.84C842.434 116.48 847.354 117.8 852.514 117.8C857.794 117.8 862.714 116.48 867.274 113.84C871.834 111.2 875.494 107.36 878.254 102.32C881.134 97.16 882.574 91.16 882.574 84.32Z" fill="white"/>
<path d="M448.109 255.307H464.984C464.105 263.393 461.791 270.629 458.041 277.016C454.291 283.402 448.988 288.471 442.133 292.221C435.277 295.912 426.723 297.758 416.469 297.758C408.969 297.758 402.143 296.352 395.99 293.539C389.896 290.727 384.652 286.742 380.258 281.586C375.863 276.371 372.465 270.131 370.062 262.865C367.719 255.541 366.547 247.396 366.547 238.432V225.688C366.547 216.723 367.719 208.607 370.062 201.342C372.465 194.018 375.893 187.748 380.346 182.533C384.857 177.318 390.277 173.305 396.605 170.492C402.934 167.68 410.053 166.273 417.963 166.273C427.631 166.273 435.805 168.09 442.484 171.723C449.164 175.355 454.35 180.395 458.041 186.84C461.791 193.227 464.105 200.639 464.984 209.076H448.109C447.289 203.1 445.766 197.973 443.539 193.695C441.312 189.359 438.148 186.02 434.047 183.676C429.945 181.332 424.584 180.16 417.963 180.16C412.279 180.16 407.27 181.244 402.934 183.412C398.656 185.58 395.053 188.656 392.123 192.641C389.252 196.625 387.084 201.4 385.619 206.967C384.154 212.533 383.422 218.715 383.422 225.512V238.432C383.422 244.701 384.066 250.59 385.355 256.098C386.703 261.605 388.725 266.439 391.42 270.6C394.115 274.76 397.543 278.041 401.703 280.443C405.863 282.787 410.785 283.959 416.469 283.959C423.676 283.959 429.418 282.816 433.695 280.531C437.973 278.246 441.195 274.965 443.363 270.688C445.59 266.41 447.172 261.283 448.109 255.307ZM481.332 249.506V247.484C481.332 240.629 482.328 234.271 484.32 228.412C486.312 222.494 489.184 217.367 492.934 213.031C496.684 208.637 501.225 205.238 506.557 202.836C511.889 200.375 517.865 199.145 524.486 199.145C531.166 199.145 537.172 200.375 542.504 202.836C547.895 205.238 552.465 208.637 556.215 213.031C560.023 217.367 562.924 222.494 564.916 228.412C566.908 234.271 567.904 240.629 567.904 247.484V249.506C567.904 256.361 566.908 262.719 564.916 268.578C562.924 274.438 560.023 279.564 556.215 283.959C552.465 288.295 547.924 291.693 542.592 294.154C537.318 296.557 531.342 297.758 524.662 297.758C517.982 297.758 511.977 296.557 506.645 294.154C501.312 291.693 496.742 288.295 492.934 283.959C489.184 279.564 486.312 274.438 484.32 268.578C482.328 262.719 481.332 256.361 481.332 249.506ZM497.592 247.484V249.506C497.592 254.252 498.148 258.734 499.262 262.953C500.375 267.113 502.045 270.805 504.271 274.027C506.557 277.25 509.398 279.799 512.797 281.674C516.195 283.49 520.15 284.398 524.662 284.398C529.115 284.398 533.012 283.49 536.352 281.674C539.75 279.799 542.562 277.25 544.789 274.027C547.016 270.805 548.686 267.113 549.799 262.953C550.971 258.734 551.557 254.252 551.557 249.506V247.484C551.557 242.797 550.971 238.373 549.799 234.213C548.686 229.994 546.986 226.273 544.701 223.051C542.475 219.77 539.662 217.191 536.264 215.316C532.924 213.441 528.998 212.504 524.486 212.504C520.033 212.504 516.107 213.441 512.709 215.316C509.369 217.191 506.557 219.77 504.271 223.051C502.045 226.273 500.375 229.994 499.262 234.213C498.148 238.373 497.592 242.797 497.592 247.484ZM643.666 270.775C643.666 268.432 643.139 266.264 642.084 264.271C641.088 262.221 639.008 260.375 635.844 258.734C632.738 257.035 628.051 255.57 621.781 254.34C616.508 253.227 611.732 251.908 607.455 250.385C603.236 248.861 599.633 247.016 596.645 244.848C593.715 242.68 591.459 240.131 589.877 237.201C588.295 234.271 587.504 230.844 587.504 226.918C587.504 223.168 588.324 219.623 589.965 216.283C591.664 212.943 594.037 209.984 597.084 207.406C600.189 204.828 603.91 202.807 608.246 201.342C612.582 199.877 617.416 199.145 622.748 199.145C630.365 199.145 636.869 200.492 642.26 203.188C647.65 205.883 651.781 209.486 654.652 213.998C657.523 218.451 658.959 223.402 658.959 228.852H642.699C642.699 226.215 641.908 223.666 640.326 221.205C638.803 218.686 636.547 216.605 633.559 214.965C630.629 213.324 627.025 212.504 622.748 212.504C618.236 212.504 614.574 213.207 611.762 214.613C609.008 215.961 606.986 217.689 605.697 219.799C604.467 221.908 603.852 224.135 603.852 226.479C603.852 228.236 604.145 229.818 604.73 231.225C605.375 232.572 606.488 233.832 608.07 235.004C609.652 236.117 611.879 237.172 614.75 238.168C617.621 239.164 621.283 240.16 625.736 241.156C633.529 242.914 639.945 245.023 644.984 247.484C650.023 249.945 653.773 252.963 656.234 256.537C658.695 260.111 659.926 264.447 659.926 269.545C659.926 273.705 659.047 277.514 657.289 280.971C655.59 284.428 653.1 287.416 649.818 289.936C646.596 292.396 642.729 294.33 638.217 295.736C633.764 297.084 628.754 297.758 623.188 297.758C614.809 297.758 607.719 296.264 601.918 293.275C596.117 290.287 591.723 286.42 588.734 281.674C585.746 276.928 584.252 271.918 584.252 266.645H600.6C600.834 271.098 602.123 274.643 604.467 277.279C606.811 279.857 609.682 281.703 613.08 282.816C616.479 283.871 619.848 284.398 623.188 284.398C627.641 284.398 631.361 283.812 634.35 282.641C637.396 281.469 639.711 279.857 641.293 277.807C642.875 275.756 643.666 273.412 643.666 270.775ZM721.098 200.902V213.383H669.682V200.902H721.098ZM687.084 177.787H703.344V272.445C703.344 275.668 703.842 278.1 704.838 279.74C705.834 281.381 707.123 282.465 708.705 282.992C710.287 283.52 711.986 283.783 713.803 283.783C715.15 283.783 716.557 283.666 718.021 283.432C719.545 283.139 720.688 282.904 721.449 282.729L721.537 296C720.248 296.41 718.549 296.791 716.439 297.143C714.389 297.553 711.898 297.758 708.969 297.758C704.984 297.758 701.322 296.967 697.982 295.385C694.643 293.803 691.977 291.166 689.984 287.475C688.051 283.725 687.084 278.686 687.084 272.357V177.787ZM796.244 279.74V230.785C796.244 227.035 795.482 223.783 793.959 221.029C792.494 218.217 790.268 216.049 787.279 214.525C784.291 213.002 780.6 212.24 776.205 212.24C772.104 212.24 768.5 212.943 765.395 214.35C762.348 215.756 759.945 217.602 758.188 219.887C756.488 222.172 755.639 224.633 755.639 227.27H739.379C739.379 223.871 740.258 220.502 742.016 217.162C743.773 213.822 746.293 210.805 749.574 208.109C752.914 205.355 756.898 203.188 761.527 201.605C766.215 199.965 771.43 199.145 777.172 199.145C784.086 199.145 790.18 200.316 795.453 202.66C800.785 205.004 804.945 208.549 807.934 213.295C810.98 217.982 812.504 223.871 812.504 230.961V275.258C812.504 278.422 812.768 281.791 813.295 285.365C813.881 288.939 814.73 292.016 815.844 294.594V296H798.881C798.061 294.125 797.416 291.635 796.947 288.529C796.479 285.365 796.244 282.436 796.244 279.74ZM799.057 238.344L799.232 249.77H782.797C778.168 249.77 774.037 250.15 770.404 250.912C766.771 251.615 763.725 252.699 761.264 254.164C758.803 255.629 756.928 257.475 755.639 259.701C754.35 261.869 753.705 264.418 753.705 267.348C753.705 270.336 754.379 273.061 755.727 275.521C757.074 277.982 759.096 279.945 761.791 281.41C764.545 282.816 767.914 283.52 771.898 283.52C776.879 283.52 781.273 282.465 785.082 280.355C788.891 278.246 791.908 275.668 794.135 272.621C796.42 269.574 797.65 266.615 797.826 263.744L804.77 271.566C804.359 274.027 803.246 276.752 801.43 279.74C799.613 282.729 797.182 285.6 794.135 288.354C791.146 291.049 787.572 293.305 783.412 295.121C779.311 296.879 774.682 297.758 769.525 297.758C763.08 297.758 757.426 296.498 752.562 293.979C747.758 291.459 744.008 288.09 741.312 283.871C738.676 279.594 737.357 274.818 737.357 269.545C737.357 264.447 738.354 259.965 740.346 256.098C742.338 252.172 745.209 248.92 748.959 246.342C752.709 243.705 757.221 241.713 762.494 240.365C767.768 239.018 773.656 238.344 780.16 238.344H799.057Z" fill="#8B5CF6"/>
<path d="M170.34 39.7317C166.931 35.614 164.793 33.4765 160.512 29.953C141.32 40.7118 129.485 48.1606 105.543 64.7218C96.3376 61.8883 90.8047 58.738 79.9113 50.9427C100.981 70.646 105.537 91.5593 113.243 126.929L113.248 126.95C127.03 140.543 136.97 147.474 157.055 159.102C137.344 166.611 128.178 168.878 115.125 169.522C101.563 153.522 92.6483 139.828 68.1077 91.885C66.6407 86.114 66.3267 82.6758 66.5273 76.2292C70.963 55.0245 74.0234 44.9317 80.6027 30.3481C108.66 26.3982 128.567 25.5105 167.772 26.5452L170.34 39.7317Z" fill="#8B5CF6"/>
<path d="M143.324 53.065C146.623 47.7905 153.034 42.5902 157.054 39.8291C159.837 44.158 161.167 46.9663 163.079 52.9169C159.051 51.9985 154.366 52.1255 143.324 53.065Z" fill="#8B5CF6"/>
<path d="M121.296 104.676C126.168 99.8662 128.631 96.6483 131.815 88.5761C132.509 80.9419 133.331 77.1762 135.865 71.7844C141.643 68.1033 144.672 66.8076 149.249 65.8578C183.052 64.4326 200.103 66.0392 221.454 84.5263C235.335 109.56 238.564 121.419 235.825 138.507C193.818 161.389 169.62 169.665 125.889 180.388C99.0489 182.372 84.6143 182.844 59.5117 183.005C63.3875 199.221 65.8341 208.204 72.7476 223.207C85.4808 223.969 120.63 221.534 133.692 219.453C163.856 212.283 180.046 207.759 208.514 199.402C215.951 192.758 219.857 187.587 226.491 176.585C210.913 176.609 201.91 176.967 185.401 178.264C226.258 160.612 241.605 150.349 259.877 127.691C255.113 105.882 250.491 94.18 239.678 74.0068C235.696 68.3656 233.201 65.3653 228.072 60.4252C195.225 57.9461 176.656 57.7913 143.372 60.1289C139.594 60.8818 137.5 61.329 133.84 62.2032C124.544 64.1177 118.823 66.5115 108.158 71.9819C111.803 84.9105 114.84 92.0523 121.296 104.676Z" fill="#8B5CF6"/>
<path d="M146.236 98.2565C150.442 93.0402 154.141 91.8202 162.534 91.9349C171.796 95.5651 176.298 98.011 178.387 101.467C178.403 103.813 178.117 105.105 176.659 106.652C171.062 110.142 166.273 111.616 147.965 111.394C145.148 106.969 144.642 104.136 146.236 98.2565Z" fill="#8B5CF6"/>
<path d="M141.247 92.3291C145.187 91.2826 146.731 90.4768 148.359 88.9708C153.681 81.8123 158.618 79.2583 169.991 76.6239L167.522 73.8582C160.97 72.7181 157.295 72.3547 150.73 72.7717C146.253 73.6143 144.432 75.1636 141.741 78.7969C140.299 83.4637 140.399 86.5293 141.247 92.3291Z" fill="#8B5CF6"/>
<path d="M185.799 98.75C188.431 99.1467 189.978 99.2086 192.812 99.1451C194.436 99.0561 195.644 98.8162 198.245 98.0586C191.984 89.0918 188.683 84.7497 184.12 81.3656C181.216 79.8661 179.087 79.2654 174.835 79.0938C171.92 79.7322 164.008 85.2564 162.488 87.9835C170.187 87.5295 174.263 87.672 180.663 89.3664C182.534 91.0113 183.665 93.1623 185.799 98.75Z" fill="#8B5CF6"/>
<path d="M190.832 78.7969C198.201 80.3048 202.325 81.1606 209.501 82.9454C223.45 97.0821 226.478 105.981 226.49 122.949C222.964 130.054 219.306 133.795 211.871 139.84C214.928 109.582 211.202 95.8163 190.832 78.7969Z" fill="#8B5CF6"/>
<path d="M137.064 103.656C136.982 102.887 136.111 102.494 135.515 102.988C132.246 105.696 127.267 110.69 124.572 113.911C124.488 114.012 124.426 114.126 124.388 114.251C123.756 116.297 123.395 117.568 123.058 119.528C122.998 119.874 123.132 120.228 123.402 120.453C133.679 129.049 140.692 133.399 156.055 138.953C159.402 139.662 161.389 139.868 164.971 139.752C165.147 139.747 165.324 139.691 165.473 139.597C180.706 130.034 184.453 127.446 187.267 125.124L190.033 122.852C191.557 121.543 192.332 120.785 193.589 119.395L194.774 118.012C196.221 115.937 197.348 114.508 198.65 113.109C199.365 112.341 198.618 111.043 197.607 111.323C182.016 115.647 172.964 117.664 160.401 118.704C156.346 118.987 154.149 118.991 150.424 118.605L142.539 117.18C142.335 117.143 142.147 117.044 142.004 116.894C138.786 113.519 137.757 110.148 137.064 103.656Z" fill="#8B5CF6"/>
<path d="M174.678 153.192C174.045 153.899 174.664 155 175.597 154.825C184.525 153.15 190.463 151.699 200.543 147.767C200.889 147.632 201.136 147.311 201.175 146.941C201.962 139.413 201.818 135.353 200.993 129.774C200.878 128.996 199.946 128.663 199.357 129.183C187.756 139.418 181.848 145.194 174.678 153.192Z" fill="#8B5CF6"/>
<path d="M53.3097 163.711C52.639 164.369 53.1627 165.504 54.0981 165.419C60.1524 164.868 66.3521 164.268 78.5785 163.119C78.7044 163.108 78.8317 163.071 78.9444 163.013C85.728 159.547 89.4175 157.428 95.2576 154.303C95.8202 154.002 95.9623 153.256 95.5525 152.767C88.9477 144.881 85.7121 139.682 81.4446 131.211C81.0736 130.475 80.0212 130.473 79.6696 131.218C78.5706 133.55 77.8981 135.392 77.0434 138.358C76.0436 141.75 74.4343 143.05 71.5614 145.816L53.3097 163.711Z" fill="#8B5CF6"/>
<path d="M288.029 170.115C287.013 170.752 286.441 170.857 285.46 170.115C272.91 162.435 267.174 157.605 259.68 147.891C258.516 146.484 258.61 145.714 259.038 144.582C260.637 140.118 262.456 137.764 267.286 133.97C267.414 133.869 267.518 133.737 267.585 133.588L271.632 124.53C271.936 123.815 271.87 123.356 271.632 122.505C264.015 95.5796 258.297 80.442 237.184 53.5949C237.042 53.4154 236.839 53.285 236.616 53.2347C230.715 51.9034 227.095 51.5381 220.763 50.8439C199.243 49.1056 190.708 49.0639 181.831 50.256C181.156 50.3466 180.582 49.7577 180.684 49.0845C181.851 41.3862 181.368 34.5585 178.266 19.2508C178.167 18.7642 177.719 18.4176 177.223 18.4455C159.401 19.4483 148.527 19.5905 128.4 18.4164C127.786 18.3806 127.34 17.8019 127.495 17.2065C128.361 13.8672 129.652 11.6411 133.628 7.97319C133.765 7.84646 133.939 7.75954 134.123 7.7259C140.268 6.60144 144.564 6.28634 152.756 6H161.152L177.4 6.7902L196.76 8.3706C202.742 8.70413 205.961 9.03518 211.675 9.65468C221.521 11.026 227.25 12.0645 238.315 15.8932C238.638 16.0051 238.888 16.2808 238.961 16.6153C240.673 24.4546 239.114 29.7633 234.503 36.548C233.839 37.5252 235.145 38.8261 236.098 38.1269C240.562 34.8492 244.304 32.7368 249.408 32.1754C253.506 31.9706 256.465 32.5388 262.505 34.4699C262.659 34.5193 262.803 34.608 262.917 34.724C287.293 59.6278 300.793 80.9725 318.846 132.432C319.549 134.851 319.799 136.214 319.933 138.655V141.816C319.985 143.886 319.977 145.055 319.122 146.661C319.071 146.756 319.002 146.843 318.923 146.915C306.464 158.352 299.579 164.013 288.029 170.115Z" fill="#8B5CF6"/>
<path d="M250.966 165.473C251.055 164.6 252.147 164.237 252.724 164.898C270.399 185.098 278.942 197.713 290.497 220.63C290.679 220.991 290.623 221.437 290.36 221.743C261.067 255.805 242.658 271.706 206.798 293.675C206.634 293.776 206.437 293.828 206.245 293.824C158.964 292.749 139.998 291.36 122.676 287.281C122.487 287.237 122.314 287.136 122.181 286.996C107.228 271.285 99.8086 261.299 91.8169 242.845C91.5474 242.222 91.9779 241.515 92.6532 241.452C144.326 236.652 173.93 229.171 223.424 200.249C224.217 199.785 225.185 200.539 224.906 201.415C216.536 227.734 213.704 239.489 211.442 253.425C211.273 254.465 212.614 255.007 213.221 254.145C236.057 221.728 247.262 201.812 250.966 165.473Z" fill="#8B5CF6"/>
<path d="M93.5745 280.857C94.3956 280.793 94.787 279.815 94.2429 279.196C82.1826 265.489 77.5438 257.799 76.717 246.548C76.676 245.99 76.1947 245.564 75.6356 245.589C66.108 246.02 56.615 242.854 35.8356 233.076C35.1212 232.74 34.3099 233.323 34.4122 234.105C37.0131 254.003 39.9263 263.851 48.095 276.421C48.2285 276.627 48.4393 276.779 48.676 276.843C65.929 281.48 76.1749 282.227 93.5745 280.857Z" fill="#8B5CF6"/>
<path d="M30.1478 171.316C30.0706 171.086 30.0812 170.829 30.177 170.605C36.6255 155.588 44.1831 147.224 61.1774 132.586C61.2188 132.55 61.2594 132.509 61.2943 132.467C72.6883 118.786 68.7733 109.118 48.3011 89.3631C48.2368 89.3011 48.1615 89.2456 48.0831 89.2028C42.4573 86.1341 38.171 83.8769 32.0644 80.8815C31.012 80.3653 31.5588 78.6823 32.7164 78.8666C39.165 79.8929 44.2694 80.3116 51.4231 80.373C51.8571 80.3768 52.2459 80.0988 52.375 79.6844C53.1157 77.306 53.6701 74.9362 56.3018 67.1422C57.0084 64.8894 57.0798 63.5842 56.8945 61.2157C56.7271 59.8246 56.5877 58.969 56.092 57.8556C55.9301 57.492 55.5445 57.2812 55.1474 57.3071C37.7574 58.4406 29.5742 60.243 19.755 66.4507C6.75551 73.4546 5.77084 82.8817 4.74121 100.331L0.0127254 135.844C0.00426146 135.907 0.00201007 135.973 0.00584735 136.037C2.13302 171.522 3.42677 191.397 12.6118 208.098C12.8079 208.455 13.0134 208.928 13.3221 209.193C16.6766 212.075 40.4524 225.446 48.5974 225.281C57.4779 225.102 59.1663 227.306 57.5859 218.367C56.0055 209.428 52.8766 204.654 45.7329 194.957C35.8469 183.501 33.0417 179.948 30.1478 171.316Z" fill="#8B5CF6"/>
</svg>
