<svg width="815" height="289" viewBox="0 0 815 289" fill="none" xmlns="http://www.w3.org/2000/svg">
<path d="M347.08 12.85V28.66H315.63V131H296.25V28.66H264.63V12.85H347.08ZM353.447 83.74C353.447 74.3333 355.374 66.0033 359.227 58.75C363.194 51.4967 368.52 45.8867 375.207 41.92C382.007 37.84 389.487 35.8 397.647 35.8C405.014 35.8 411.417 37.2733 416.857 40.22C422.41 43.0533 426.83 46.6233 430.117 50.93V37.33H449.667V131H430.117V117.06C426.83 121.48 422.354 125.163 416.687 128.11C411.02 131.057 404.56 132.53 397.307 132.53C389.26 132.53 381.894 130.49 375.207 126.41C368.52 122.217 363.194 116.437 359.227 109.07C355.374 101.59 353.447 93.1467 353.447 83.74ZM430.117 84.08C430.117 77.62 428.757 72.01 426.037 67.25C423.43 62.49 419.974 58.8633 415.667 56.37C411.36 53.8767 406.714 52.63 401.727 52.63C396.74 52.63 392.094 53.8767 387.787 56.37C383.48 58.75 379.967 62.32 377.247 67.08C374.64 71.7267 373.337 77.28 373.337 83.74C373.337 90.2 374.64 95.8667 377.247 100.74C379.967 105.613 383.48 109.353 387.787 111.96C392.207 114.453 396.854 115.7 401.727 115.7C406.714 115.7 411.36 114.453 415.667 111.96C419.974 109.467 423.43 105.84 426.037 101.08C428.757 96.2067 430.117 90.54 430.117 84.08ZM487.702 5.2V131H468.322V5.2H487.702ZM546.976 132.53C538.136 132.53 530.146 130.547 523.006 126.58C515.866 122.5 510.256 116.833 506.176 109.58C502.096 102.213 500.056 93.7133 500.056 84.08C500.056 74.56 502.153 66.1167 506.346 58.75C510.539 51.3833 516.263 45.7167 523.516 41.75C530.769 37.7833 538.873 35.8 547.826 35.8C556.779 35.8 564.883 37.7833 572.136 41.75C579.389 45.7167 585.113 51.3833 589.306 58.75C593.499 66.1167 595.596 74.56 595.596 84.08C595.596 93.6 593.443 102.043 589.136 109.41C584.829 116.777 578.936 122.5 571.456 126.58C564.089 130.547 555.929 132.53 546.976 132.53ZM546.976 115.7C551.963 115.7 556.609 114.51 560.916 112.13C565.336 109.75 568.906 106.18 571.626 101.42C574.346 96.66 575.706 90.88 575.706 84.08C575.706 77.28 574.403 71.5567 571.796 66.91C569.189 62.15 565.733 58.58 561.426 56.2C557.119 53.82 552.473 52.63 547.486 52.63C542.499 52.63 537.853 53.82 533.546 56.2C529.353 58.58 526.009 62.15 523.516 66.91C521.023 71.5567 519.776 77.28 519.776 84.08C519.776 94.1667 522.326 101.987 527.426 107.54C532.639 112.98 539.156 115.7 546.976 115.7ZM655.214 35.8C662.581 35.8 669.154 37.33 674.934 40.39C680.828 43.45 685.418 47.9833 688.704 53.99C691.991 59.9967 693.634 67.25 693.634 75.75V131H674.424V78.64C674.424 70.2533 672.328 63.85 668.134 59.43C663.941 54.8967 658.218 52.63 650.964 52.63C643.711 52.63 637.931 54.8967 633.624 59.43C629.431 63.85 627.334 70.2533 627.334 78.64V131H607.954V37.33H627.334V48.04C630.508 44.1867 634.531 41.1833 639.404 39.03C644.391 36.8767 649.661 35.8 655.214 35.8ZM705.095 83.74C705.095 74.3333 707.021 66.0033 710.875 58.75C714.841 51.4967 720.168 45.8867 726.855 41.92C733.655 37.84 741.135 35.8 749.295 35.8C756.661 35.8 763.065 37.2733 768.505 40.22C774.058 43.0533 778.478 46.6233 781.765 50.93V37.33H801.315V131H781.765V117.06C778.478 121.48 774.001 125.163 768.335 128.11C762.668 131.057 756.208 132.53 748.955 132.53C740.908 132.53 733.541 130.49 726.855 126.41C720.168 122.217 714.841 116.437 710.875 109.07C707.021 101.59 705.095 93.1467 705.095 83.74ZM781.765 84.08C781.765 77.62 780.405 72.01 777.685 67.25C775.078 62.49 771.621 58.8633 767.315 56.37C763.008 53.8767 758.361 52.63 753.375 52.63C748.388 52.63 743.741 53.8767 739.435 56.37C735.128 58.75 731.615 62.32 728.895 67.08C726.288 71.7267 724.985 77.28 724.985 83.74C724.985 90.2 726.288 95.8667 728.895 100.74C731.615 105.613 735.128 109.353 739.435 111.96C743.855 114.453 748.501 115.7 753.375 115.7C758.361 115.7 763.008 114.453 767.315 111.96C771.621 109.467 775.078 105.84 777.685 101.08C780.405 96.2067 781.765 90.54 781.765 84.08Z" fill="#9400FF"/>
<path d="M366.992 248.567H382.93C382.1 256.204 379.914 263.038 376.372 269.07C372.83 275.102 367.822 279.889 361.348 283.431C354.873 286.917 346.794 288.66 337.109 288.66C330.026 288.66 323.579 287.332 317.769 284.676C312.013 282.02 307.061 278.257 302.91 273.387C298.76 268.462 295.55 262.568 293.281 255.706C291.068 248.789 289.961 241.097 289.961 232.63V220.594C289.961 212.127 291.068 204.463 293.281 197.601C295.55 190.683 298.787 184.762 302.993 179.837C307.254 174.912 312.373 171.121 318.35 168.465C324.326 165.809 331.05 164.48 338.521 164.48C347.651 164.48 355.371 166.196 361.68 169.627C367.988 173.058 372.886 177.817 376.372 183.904C379.914 189.936 382.1 196.937 382.93 204.905H366.992C366.217 199.261 364.779 194.419 362.676 190.379C360.573 186.284 357.585 183.13 353.711 180.916C349.837 178.702 344.774 177.596 338.521 177.596C333.153 177.596 328.421 178.619 324.326 180.667C320.286 182.715 316.883 185.62 314.116 189.383C311.405 193.146 309.357 197.656 307.974 202.913C306.59 208.17 305.898 214.008 305.898 220.428V232.63C305.898 238.551 306.507 244.113 307.725 249.314C308.997 254.516 310.907 259.082 313.452 263.011C315.998 266.94 319.235 270.039 323.164 272.308C327.093 274.521 331.742 275.628 337.109 275.628C343.916 275.628 349.339 274.549 353.379 272.391C357.419 270.232 360.462 267.133 362.51 263.094C364.613 259.054 366.107 254.212 366.992 248.567ZM398.369 243.089V241.18C398.369 234.705 399.31 228.701 401.191 223.167C403.073 217.578 405.785 212.736 409.326 208.641C412.868 204.49 417.157 201.281 422.192 199.012C427.228 196.688 432.873 195.525 439.126 195.525C445.435 195.525 451.107 196.688 456.143 199.012C461.234 201.281 465.55 204.49 469.092 208.641C472.689 212.736 475.428 217.578 477.31 223.167C479.191 228.701 480.132 234.705 480.132 241.18V243.089C480.132 249.563 479.191 255.568 477.31 261.102C475.428 266.635 472.689 271.478 469.092 275.628C465.55 279.723 461.261 282.933 456.226 285.257C451.245 287.526 445.601 288.66 439.292 288.66C432.983 288.66 427.311 287.526 422.275 285.257C417.24 282.933 412.923 279.723 409.326 275.628C405.785 271.478 403.073 266.635 401.191 261.102C399.31 255.568 398.369 249.563 398.369 243.089ZM413.726 241.18V243.089C413.726 247.571 414.251 251.805 415.303 255.789C416.354 259.718 417.931 263.204 420.034 266.248C422.192 269.292 424.876 271.699 428.086 273.47C431.296 275.185 435.031 276.043 439.292 276.043C443.498 276.043 447.178 275.185 450.332 273.47C453.542 271.699 456.198 269.292 458.301 266.248C460.404 263.204 461.981 259.718 463.032 255.789C464.139 251.805 464.692 247.571 464.692 243.089V241.18C464.692 236.753 464.139 232.575 463.032 228.646C461.981 224.661 460.376 221.147 458.218 218.104C456.115 215.005 453.459 212.57 450.249 210.799C447.095 209.028 443.387 208.143 439.126 208.143C434.92 208.143 431.213 209.028 428.003 210.799C424.849 212.57 422.192 215.005 420.034 218.104C417.931 221.147 416.354 224.661 415.303 228.646C414.251 232.575 413.726 236.753 413.726 241.18ZM551.685 263.177C551.685 260.963 551.187 258.916 550.19 257.034C549.25 255.097 547.285 253.354 544.297 251.805C541.364 250.2 536.937 248.816 531.016 247.654C526.035 246.603 521.525 245.358 517.485 243.919C513.501 242.48 510.098 240.737 507.275 238.689C504.508 236.642 502.378 234.235 500.884 231.468C499.39 228.701 498.643 225.464 498.643 221.756C498.643 218.214 499.417 214.866 500.967 211.712C502.572 208.558 504.813 205.763 507.69 203.328C510.623 200.893 514.137 198.984 518.232 197.601C522.327 196.217 526.893 195.525 531.929 195.525C539.123 195.525 545.265 196.798 550.356 199.344C555.448 201.889 559.349 205.293 562.061 209.554C564.772 213.759 566.128 218.436 566.128 223.582H550.771C550.771 221.092 550.024 218.685 548.53 216.36C547.091 213.981 544.961 212.016 542.139 210.467C539.372 208.917 535.968 208.143 531.929 208.143C527.668 208.143 524.209 208.807 521.553 210.135C518.952 211.408 517.043 213.04 515.825 215.032C514.663 217.024 514.082 219.127 514.082 221.341C514.082 223.001 514.359 224.495 514.912 225.823C515.521 227.096 516.572 228.286 518.066 229.393C519.561 230.444 521.663 231.44 524.375 232.381C527.087 233.322 530.545 234.262 534.751 235.203C542.111 236.863 548.171 238.855 552.93 241.18C557.689 243.504 561.23 246.354 563.555 249.729C565.879 253.105 567.041 257.2 567.041 262.015C567.041 265.944 566.211 269.541 564.551 272.806C562.946 276.071 560.594 278.893 557.495 281.272C554.451 283.597 550.799 285.423 546.538 286.751C542.332 288.024 537.601 288.66 532.344 288.66C524.43 288.66 517.734 287.249 512.256 284.427C506.777 281.604 502.627 277.952 499.805 273.47C496.982 268.987 495.571 264.256 495.571 259.275H511.011C511.232 263.481 512.45 266.829 514.663 269.319C516.877 271.754 519.588 273.497 522.798 274.549C526.007 275.545 529.189 276.043 532.344 276.043C536.549 276.043 540.063 275.49 542.886 274.383C545.763 273.276 547.949 271.754 549.443 269.817C550.938 267.881 551.685 265.667 551.685 263.177ZM624.814 197.186V208.973H576.255V197.186H624.814ZM592.69 175.354H608.047V264.754C608.047 267.798 608.517 270.094 609.458 271.644C610.399 273.193 611.616 274.217 613.11 274.715C614.604 275.213 616.209 275.462 617.925 275.462C619.198 275.462 620.526 275.351 621.909 275.13C623.348 274.853 624.427 274.632 625.146 274.466L625.229 287C624.012 287.387 622.407 287.747 620.415 288.079C618.478 288.466 616.126 288.66 613.359 288.66C609.596 288.66 606.138 287.913 602.983 286.419C599.829 284.925 597.311 282.435 595.43 278.948C593.604 275.407 592.69 270.647 592.69 264.671V175.354ZM695.786 271.644V225.408C695.786 221.867 695.067 218.795 693.628 216.194C692.244 213.538 690.142 211.491 687.319 210.052C684.497 208.613 681.011 207.894 676.86 207.894C672.987 207.894 669.583 208.558 666.65 209.886C663.773 211.214 661.504 212.957 659.844 215.115C658.239 217.273 657.437 219.598 657.437 222.088H642.08C642.08 218.878 642.91 215.696 644.57 212.542C646.23 209.388 648.61 206.538 651.709 203.992C654.863 201.391 658.626 199.344 662.998 197.85C667.425 196.3 672.35 195.525 677.773 195.525C684.303 195.525 690.059 196.632 695.039 198.846C700.075 201.059 704.004 204.407 706.826 208.89C709.704 213.317 711.143 218.878 711.143 225.574V267.41C711.143 270.398 711.392 273.58 711.89 276.956C712.443 280.332 713.245 283.237 714.297 285.672V287H698.276C697.502 285.229 696.893 282.877 696.45 279.944C696.007 276.956 695.786 274.189 695.786 271.644ZM698.442 232.547L698.608 243.338H683.086C678.714 243.338 674.813 243.698 671.382 244.417C667.951 245.081 665.073 246.105 662.749 247.488C660.425 248.872 658.654 250.615 657.437 252.718C656.219 254.765 655.61 257.173 655.61 259.939C655.61 262.762 656.247 265.335 657.52 267.659C658.792 269.983 660.701 271.837 663.247 273.221C665.848 274.549 669.03 275.213 672.793 275.213C677.497 275.213 681.647 274.217 685.244 272.225C688.841 270.232 691.691 267.798 693.794 264.92C695.952 262.042 697.114 259.248 697.28 256.536L703.838 263.924C703.451 266.248 702.399 268.821 700.684 271.644C698.968 274.466 696.672 277.177 693.794 279.778C690.972 282.324 687.596 284.454 683.667 286.17C679.793 287.83 675.422 288.66 670.552 288.66C664.465 288.66 659.124 287.47 654.531 285.091C649.993 282.711 646.452 279.529 643.906 275.545C641.416 271.505 640.171 266.995 640.171 262.015C640.171 257.2 641.112 252.967 642.993 249.314C644.875 245.607 647.586 242.535 651.128 240.101C654.67 237.61 658.931 235.729 663.911 234.456C668.892 233.183 674.453 232.547 680.596 232.547H698.442Z" fill="white"/>
<rect width="222.175" height="22.0721" rx="11.0361" transform="matrix(-0.777146 0.62932 0.615176 0.78839 178.422 0)" fill="#9400FF"/>
<path fill-rule="evenodd" clip-rule="evenodd" d="M14.3303 149.613C9.6612 145.696 9.12006 138.793 13.1216 134.195C17.1231 129.598 24.1521 129.047 28.8211 132.964L80.9697 176.722L65.6022 192.636L14.3303 149.613ZM110.729 230.502L167.618 278.237C172.287 282.155 179.316 281.604 183.318 277.007C187.319 272.409 186.778 265.506 182.109 261.588L126.096 214.588L110.729 230.502Z" fill="#9400FF"/>
<rect width="222.175" height="22.0721" rx="11.0361" transform="matrix(0.777146 -0.62932 -0.615176 -0.78839 13.5781 286.606)" fill="white"/>
<path fill-rule="evenodd" clip-rule="evenodd" d="M177.67 136.995C182.339 140.913 182.88 147.816 178.878 152.413C174.877 157.011 167.848 157.562 163.179 153.644L111.03 109.886L126.398 93.9727L177.67 136.995ZM81.2711 56.1069L24.3818 8.37109C19.7127 4.45328 12.6838 5.00429 8.68227 9.60182C4.68073 14.1993 5.22188 21.1024 9.89095 25.0202L65.9036 72.0204L81.2711 56.1069Z" fill="white"/>
</svg>
