<svg width="917" height="298" viewBox="0 0 917 298" fill="none" xmlns="http://www.w3.org/2000/svg">
<path d="M422.32 8.89999V25.64H389.02V134H368.5V25.64H335.02V8.89999H422.32ZM429.062 83.96C429.062 74 431.102 65.18 435.182 57.5C439.382 49.82 445.022 43.88 452.102 39.68C459.302 35.36 467.222 33.2 475.862 33.2C483.662 33.2 490.442 34.76 496.202 37.88C502.082 40.88 506.762 44.66 510.242 49.22V34.82H530.942V134H510.242V119.24C506.762 123.92 502.022 127.82 496.022 130.94C490.022 134.06 483.182 135.62 475.502 135.62C466.982 135.62 459.182 133.46 452.102 129.14C445.022 124.7 439.382 118.58 435.182 110.78C431.102 102.86 429.062 93.92 429.062 83.96ZM510.242 84.32C510.242 77.48 508.802 71.54 505.922 66.5C503.162 61.46 499.502 57.62 494.942 54.98C490.382 52.34 485.462 51.02 480.182 51.02C474.902 51.02 469.982 52.34 465.422 54.98C460.862 57.5 457.142 61.28 454.262 66.32C451.502 71.24 450.122 77.12 450.122 83.96C450.122 90.8 451.502 96.8 454.262 101.96C457.142 107.12 460.862 111.08 465.422 113.84C470.102 116.48 475.022 117.8 480.182 117.8C485.462 117.8 490.382 116.48 494.942 113.84C499.502 111.2 503.162 107.36 505.922 102.32C508.802 97.16 510.242 91.16 510.242 84.32ZM571.214 0.799998V134H550.694V0.799998H571.214ZM633.975 135.62C624.615 135.62 616.155 133.52 608.595 129.32C601.035 125 595.095 119 590.775 111.32C586.455 103.52 584.295 94.52 584.295 84.32C584.295 74.24 586.515 65.3 590.955 57.5C595.395 49.7 601.455 43.7 609.135 39.5C616.815 35.3 625.395 33.2 634.875 33.2C644.355 33.2 652.935 35.3 660.615 39.5C668.295 43.7 674.355 49.7 678.795 57.5C683.235 65.3 685.455 74.24 685.455 84.32C685.455 94.4 683.175 103.34 678.615 111.14C674.055 118.94 667.815 125 659.895 129.32C652.095 133.52 643.455 135.62 633.975 135.62ZM633.975 117.8C639.255 117.8 644.175 116.54 648.735 114.02C653.415 111.5 657.195 107.72 660.075 102.68C662.955 97.64 664.395 91.52 664.395 84.32C664.395 77.12 663.015 71.06 660.255 66.14C657.495 61.1 653.835 57.32 649.275 54.8C644.715 52.28 639.795 51.02 634.515 51.02C629.235 51.02 624.315 52.28 619.755 54.8C615.315 57.32 611.775 61.1 609.135 66.14C606.495 71.06 605.175 77.12 605.175 84.32C605.175 95 607.875 103.28 613.275 109.16C618.795 114.92 625.695 117.8 633.975 117.8ZM748.58 33.2C756.38 33.2 763.34 34.82 769.46 38.06C775.7 41.3 780.56 46.1 784.04 52.46C787.52 58.82 789.26 66.5 789.26 75.5V134H768.92V78.56C768.92 69.68 766.7 62.9 762.26 58.22C757.82 53.42 751.76 51.02 744.08 51.02C736.4 51.02 730.28 53.42 725.72 58.22C721.28 62.9 719.06 69.68 719.06 78.56V134H698.54V34.82H719.06V46.16C722.42 42.08 726.68 38.9 731.84 36.62C737.12 34.34 742.7 33.2 748.58 33.2ZM801.394 83.96C801.394 74 803.434 65.18 807.514 57.5C811.714 49.82 817.354 43.88 824.434 39.68C831.634 35.36 839.554 33.2 848.194 33.2C855.994 33.2 862.774 34.76 868.534 37.88C874.414 40.88 879.094 44.66 882.574 49.22V34.82H903.274V134H882.574V119.24C879.094 123.92 874.354 127.82 868.354 130.94C862.354 134.06 855.514 135.62 847.834 135.62C839.314 135.62 831.514 133.46 824.434 129.14C817.354 124.7 811.714 118.58 807.514 110.78C803.434 102.86 801.394 93.92 801.394 83.96ZM882.574 84.32C882.574 77.48 881.134 71.54 878.254 66.5C875.494 61.46 871.834 57.62 867.274 54.98C862.714 52.34 857.794 51.02 852.514 51.02C847.234 51.02 842.314 52.34 837.754 54.98C833.194 57.5 829.474 61.28 826.594 66.32C823.834 71.24 822.454 77.12 822.454 83.96C822.454 90.8 823.834 96.8 826.594 101.96C829.474 107.12 833.194 111.08 837.754 113.84C842.434 116.48 847.354 117.8 852.514 117.8C857.794 117.8 862.714 116.48 867.274 113.84C871.834 111.2 875.494 107.36 878.254 102.32C881.134 97.16 882.574 91.16 882.574 84.32Z" fill="black"/>
<path d="M453.109 255.307H469.984C469.105 263.393 466.791 270.629 463.041 277.016C459.291 283.402 453.988 288.471 447.133 292.221C440.277 295.912 431.723 297.758 421.469 297.758C413.969 297.758 407.143 296.352 400.99 293.539C394.896 290.727 389.652 286.742 385.258 281.586C380.863 276.371 377.465 270.131 375.062 262.865C372.719 255.541 371.547 247.396 371.547 238.432V225.688C371.547 216.723 372.719 208.607 375.062 201.342C377.465 194.018 380.893 187.748 385.346 182.533C389.857 177.318 395.277 173.305 401.605 170.492C407.934 167.68 415.053 166.273 422.963 166.273C432.631 166.273 440.805 168.09 447.484 171.723C454.164 175.355 459.35 180.395 463.041 186.84C466.791 193.227 469.105 200.639 469.984 209.076H453.109C452.289 203.1 450.766 197.973 448.539 193.695C446.312 189.359 443.148 186.02 439.047 183.676C434.945 181.332 429.584 180.16 422.963 180.16C417.279 180.16 412.27 181.244 407.934 183.412C403.656 185.58 400.053 188.656 397.123 192.641C394.252 196.625 392.084 201.4 390.619 206.967C389.154 212.533 388.422 218.715 388.422 225.512V238.432C388.422 244.701 389.066 250.59 390.355 256.098C391.703 261.605 393.725 266.439 396.42 270.6C399.115 274.76 402.543 278.041 406.703 280.443C410.863 282.787 415.785 283.959 421.469 283.959C428.676 283.959 434.418 282.816 438.695 280.531C442.973 278.246 446.195 274.965 448.363 270.688C450.59 266.41 452.172 261.283 453.109 255.307ZM486.332 249.506V247.484C486.332 240.629 487.328 234.271 489.32 228.412C491.312 222.494 494.184 217.367 497.934 213.031C501.684 208.637 506.225 205.238 511.557 202.836C516.889 200.375 522.865 199.145 529.486 199.145C536.166 199.145 542.172 200.375 547.504 202.836C552.895 205.238 557.465 208.637 561.215 213.031C565.023 217.367 567.924 222.494 569.916 228.412C571.908 234.271 572.904 240.629 572.904 247.484V249.506C572.904 256.361 571.908 262.719 569.916 268.578C567.924 274.438 565.023 279.564 561.215 283.959C557.465 288.295 552.924 291.693 547.592 294.154C542.318 296.557 536.342 297.758 529.662 297.758C522.982 297.758 516.977 296.557 511.645 294.154C506.312 291.693 501.742 288.295 497.934 283.959C494.184 279.564 491.312 274.438 489.32 268.578C487.328 262.719 486.332 256.361 486.332 249.506ZM502.592 247.484V249.506C502.592 254.252 503.148 258.734 504.262 262.953C505.375 267.113 507.045 270.805 509.271 274.027C511.557 277.25 514.398 279.799 517.797 281.674C521.195 283.49 525.15 284.398 529.662 284.398C534.115 284.398 538.012 283.49 541.352 281.674C544.75 279.799 547.562 277.25 549.789 274.027C552.016 270.805 553.686 267.113 554.799 262.953C555.971 258.734 556.557 254.252 556.557 249.506V247.484C556.557 242.797 555.971 238.373 554.799 234.213C553.686 229.994 551.986 226.273 549.701 223.051C547.475 219.77 544.662 217.191 541.264 215.316C537.924 213.441 533.998 212.504 529.486 212.504C525.033 212.504 521.107 213.441 517.709 215.316C514.369 217.191 511.557 219.77 509.271 223.051C507.045 226.273 505.375 229.994 504.262 234.213C503.148 238.373 502.592 242.797 502.592 247.484ZM648.666 270.775C648.666 268.432 648.139 266.264 647.084 264.271C646.088 262.221 644.008 260.375 640.844 258.734C637.738 257.035 633.051 255.57 626.781 254.34C621.508 253.227 616.732 251.908 612.455 250.385C608.236 248.861 604.633 247.016 601.645 244.848C598.715 242.68 596.459 240.131 594.877 237.201C593.295 234.271 592.504 230.844 592.504 226.918C592.504 223.168 593.324 219.623 594.965 216.283C596.664 212.943 599.037 209.984 602.084 207.406C605.189 204.828 608.91 202.807 613.246 201.342C617.582 199.877 622.416 199.145 627.748 199.145C635.365 199.145 641.869 200.492 647.26 203.188C652.65 205.883 656.781 209.486 659.652 213.998C662.523 218.451 663.959 223.402 663.959 228.852H647.699C647.699 226.215 646.908 223.666 645.326 221.205C643.803 218.686 641.547 216.605 638.559 214.965C635.629 213.324 632.025 212.504 627.748 212.504C623.236 212.504 619.574 213.207 616.762 214.613C614.008 215.961 611.986 217.689 610.697 219.799C609.467 221.908 608.852 224.135 608.852 226.479C608.852 228.236 609.145 229.818 609.73 231.225C610.375 232.572 611.488 233.832 613.07 235.004C614.652 236.117 616.879 237.172 619.75 238.168C622.621 239.164 626.283 240.16 630.736 241.156C638.529 242.914 644.945 245.023 649.984 247.484C655.023 249.945 658.773 252.963 661.234 256.537C663.695 260.111 664.926 264.447 664.926 269.545C664.926 273.705 664.047 277.514 662.289 280.971C660.59 284.428 658.1 287.416 654.818 289.936C651.596 292.396 647.729 294.33 643.217 295.736C638.764 297.084 633.754 297.758 628.188 297.758C619.809 297.758 612.719 296.264 606.918 293.275C601.117 290.287 596.723 286.42 593.734 281.674C590.746 276.928 589.252 271.918 589.252 266.645H605.6C605.834 271.098 607.123 274.643 609.467 277.279C611.811 279.857 614.682 281.703 618.08 282.816C621.479 283.871 624.848 284.398 628.188 284.398C632.641 284.398 636.361 283.812 639.35 282.641C642.396 281.469 644.711 279.857 646.293 277.807C647.875 275.756 648.666 273.412 648.666 270.775ZM726.098 200.902V213.383H674.682V200.902H726.098ZM692.084 177.787H708.344V272.445C708.344 275.668 708.842 278.1 709.838 279.74C710.834 281.381 712.123 282.465 713.705 282.992C715.287 283.52 716.986 283.783 718.803 283.783C720.15 283.783 721.557 283.666 723.021 283.432C724.545 283.139 725.688 282.904 726.449 282.729L726.537 296C725.248 296.41 723.549 296.791 721.439 297.143C719.389 297.553 716.898 297.758 713.969 297.758C709.984 297.758 706.322 296.967 702.982 295.385C699.643 293.803 696.977 291.166 694.984 287.475C693.051 283.725 692.084 278.686 692.084 272.357V177.787ZM801.244 279.74V230.785C801.244 227.035 800.482 223.783 798.959 221.029C797.494 218.217 795.268 216.049 792.279 214.525C789.291 213.002 785.6 212.24 781.205 212.24C777.104 212.24 773.5 212.943 770.395 214.35C767.348 215.756 764.945 217.602 763.188 219.887C761.488 222.172 760.639 224.633 760.639 227.27H744.379C744.379 223.871 745.258 220.502 747.016 217.162C748.773 213.822 751.293 210.805 754.574 208.109C757.914 205.355 761.898 203.188 766.527 201.605C771.215 199.965 776.43 199.145 782.172 199.145C789.086 199.145 795.18 200.316 800.453 202.66C805.785 205.004 809.945 208.549 812.934 213.295C815.98 217.982 817.504 223.871 817.504 230.961V275.258C817.504 278.422 817.768 281.791 818.295 285.365C818.881 288.939 819.73 292.016 820.844 294.594V296H803.881C803.061 294.125 802.416 291.635 801.947 288.529C801.479 285.365 801.244 282.436 801.244 279.74ZM804.057 238.344L804.232 249.77H787.797C783.168 249.77 779.037 250.15 775.404 250.912C771.771 251.615 768.725 252.699 766.264 254.164C763.803 255.629 761.928 257.475 760.639 259.701C759.35 261.869 758.705 264.418 758.705 267.348C758.705 270.336 759.379 273.061 760.727 275.521C762.074 277.982 764.096 279.945 766.791 281.41C769.545 282.816 772.914 283.52 776.898 283.52C781.879 283.52 786.273 282.465 790.082 280.355C793.891 278.246 796.908 275.668 799.135 272.621C801.42 269.574 802.65 266.615 802.826 263.744L809.77 271.566C809.359 274.027 808.246 276.752 806.43 279.74C804.613 282.729 802.182 285.6 799.135 288.354C796.146 291.049 792.572 293.305 788.412 295.121C784.311 296.879 779.682 297.758 774.525 297.758C768.08 297.758 762.426 296.498 757.562 293.979C752.758 291.459 749.008 288.09 746.312 283.871C743.676 279.594 742.357 274.818 742.357 269.545C742.357 264.447 743.354 259.965 745.346 256.098C747.338 252.172 750.209 248.92 753.959 246.342C757.709 243.705 762.221 241.713 767.494 240.365C772.768 239.018 778.656 238.344 785.16 238.344H804.057Z" fill="#9400FF"/>
<path d="M170.34 39.7317C166.931 35.614 164.793 33.4765 160.512 29.953C141.32 40.7118 129.485 48.1606 105.543 64.7218C96.3376 61.8883 90.8047 58.738 79.9113 50.9427C100.981 70.646 105.537 91.5593 113.243 126.929L113.248 126.95C127.03 140.543 136.97 147.474 157.055 159.102C137.344 166.611 128.178 168.878 115.125 169.522C101.563 153.522 92.6483 139.828 68.1077 91.885C66.6407 86.114 66.3267 82.6758 66.5273 76.2292C70.963 55.0245 74.0234 44.9317 80.6027 30.3481C108.66 26.3982 128.567 25.5105 167.772 26.5452L170.34 39.7317Z" fill="#9400FF"/>
<path d="M143.324 53.065C146.623 47.7905 153.034 42.5902 157.054 39.8291C159.837 44.158 161.167 46.9663 163.079 52.9169C159.051 51.9985 154.366 52.1255 143.324 53.065Z" fill="#9400FF"/>
<path d="M121.296 104.676C126.168 99.8662 128.631 96.6483 131.815 88.5761C132.509 80.9419 133.331 77.1762 135.865 71.7844C141.643 68.1033 144.672 66.8076 149.249 65.8578C183.052 64.4326 200.103 66.0392 221.454 84.5263C235.335 109.56 238.564 121.419 235.825 138.507C193.818 161.389 169.62 169.665 125.889 180.388C99.0489 182.372 84.6143 182.844 59.5117 183.005C63.3875 199.221 65.8341 208.204 72.7476 223.207C85.4808 223.969 120.63 221.534 133.692 219.453C163.856 212.283 180.046 207.759 208.514 199.402C215.951 192.758 219.857 187.587 226.491 176.585C210.913 176.609 201.91 176.967 185.401 178.264C226.258 160.612 241.605 150.349 259.877 127.691C255.113 105.882 250.491 94.18 239.678 74.0068C235.696 68.3656 233.201 65.3653 228.072 60.4252C195.225 57.9461 176.656 57.7913 143.372 60.1289C139.594 60.8818 137.5 61.329 133.84 62.2032C124.544 64.1177 118.823 66.5115 108.158 71.9819C111.803 84.9105 114.84 92.0523 121.296 104.676Z" fill="#9400FF"/>
<path d="M146.236 98.2565C150.442 93.0402 154.141 91.8202 162.534 91.9349C171.796 95.5651 176.298 98.011 178.387 101.467C178.403 103.813 178.117 105.105 176.659 106.652C171.062 110.142 166.273 111.616 147.965 111.394C145.148 106.969 144.642 104.136 146.236 98.2565Z" fill="#9400FF"/>
<path d="M141.247 92.3291C145.187 91.2826 146.731 90.4768 148.359 88.9708C153.681 81.8123 158.618 79.2583 169.991 76.6239L167.522 73.8582C160.97 72.7181 157.295 72.3547 150.73 72.7717C146.253 73.6143 144.432 75.1636 141.741 78.7969C140.299 83.4637 140.399 86.5293 141.247 92.3291Z" fill="#9400FF"/>
<path d="M185.799 98.75C188.431 99.1467 189.978 99.2086 192.812 99.1451C194.436 99.0561 195.644 98.8162 198.245 98.0586C191.984 89.0918 188.683 84.7497 184.12 81.3656C181.216 79.8661 179.087 79.2654 174.835 79.0938C171.92 79.7322 164.008 85.2564 162.488 87.9835C170.187 87.5295 174.263 87.672 180.663 89.3664C182.534 91.0113 183.665 93.1623 185.799 98.75Z" fill="#9400FF"/>
<path d="M190.832 78.7969C198.201 80.3048 202.325 81.1606 209.501 82.9454C223.45 97.0821 226.478 105.981 226.49 122.949C222.964 130.054 219.306 133.795 211.871 139.84C214.928 109.582 211.202 95.8163 190.832 78.7969Z" fill="#9400FF"/>
<path d="M137.064 103.656C136.982 102.887 136.111 102.494 135.515 102.988C132.246 105.696 127.267 110.69 124.572 113.911C124.488 114.012 124.426 114.126 124.388 114.251C123.756 116.297 123.395 117.568 123.058 119.528C122.998 119.874 123.132 120.228 123.402 120.453C133.679 129.049 140.692 133.399 156.055 138.953C159.402 139.662 161.389 139.868 164.971 139.752C165.147 139.747 165.324 139.691 165.473 139.597C180.706 130.034 184.453 127.446 187.267 125.124L190.033 122.852C191.557 121.543 192.332 120.785 193.589 119.395L194.774 118.012C196.221 115.937 197.348 114.508 198.65 113.109C199.365 112.341 198.618 111.043 197.607 111.323C182.016 115.647 172.964 117.664 160.401 118.704C156.346 118.987 154.149 118.991 150.424 118.605L142.539 117.18C142.335 117.143 142.147 117.044 142.004 116.894C138.786 113.519 137.757 110.148 137.064 103.656Z" fill="#9400FF"/>
<path d="M174.678 153.192C174.045 153.899 174.664 155 175.597 154.825C184.525 153.15 190.463 151.699 200.543 147.767C200.889 147.632 201.136 147.311 201.175 146.941C201.962 139.413 201.818 135.353 200.993 129.774C200.878 128.996 199.946 128.663 199.357 129.183C187.756 139.418 181.848 145.194 174.678 153.192Z" fill="#9400FF"/>
<path d="M53.3097 163.711C52.639 164.369 53.1627 165.504 54.0981 165.419C60.1524 164.868 66.3521 164.268 78.5785 163.119C78.7044 163.108 78.8317 163.071 78.9444 163.013C85.728 159.547 89.4175 157.428 95.2576 154.303C95.8202 154.002 95.9623 153.256 95.5525 152.767C88.9477 144.881 85.7121 139.682 81.4446 131.211C81.0736 130.475 80.0212 130.473 79.6696 131.218C78.5706 133.55 77.8981 135.392 77.0434 138.358C76.0436 141.75 74.4343 143.05 71.5614 145.816L53.3097 163.711Z" fill="#9400FF"/>
<path d="M288.029 170.115C287.013 170.752 286.441 170.857 285.46 170.115C272.91 162.435 267.174 157.605 259.68 147.891C258.516 146.484 258.61 145.714 259.038 144.582C260.637 140.118 262.456 137.764 267.286 133.97C267.414 133.869 267.518 133.737 267.585 133.588L271.632 124.53C271.936 123.815 271.87 123.356 271.632 122.505C264.015 95.5796 258.297 80.442 237.184 53.5949C237.042 53.4154 236.839 53.285 236.616 53.2347C230.715 51.9034 227.095 51.5381 220.763 50.8439C199.243 49.1056 190.708 49.0639 181.831 50.256C181.156 50.3466 180.582 49.7577 180.684 49.0845C181.851 41.3862 181.368 34.5585 178.266 19.2508C178.167 18.7642 177.719 18.4176 177.223 18.4455C159.401 19.4483 148.527 19.5905 128.4 18.4164C127.786 18.3806 127.34 17.8019 127.495 17.2065C128.361 13.8672 129.652 11.6411 133.628 7.97319C133.765 7.84647 133.939 7.75954 134.123 7.7259C140.268 6.60144 144.564 6.28634 152.756 6H161.152L177.4 6.7902L196.76 8.3706C202.742 8.70413 205.961 9.03518 211.675 9.65468C221.521 11.026 227.25 12.0645 238.315 15.8932C238.638 16.0051 238.888 16.2808 238.961 16.6153C240.673 24.4546 239.114 29.7633 234.503 36.548C233.839 37.5252 235.145 38.8261 236.098 38.1269C240.562 34.8492 244.304 32.7368 249.408 32.1754C253.506 31.9706 256.465 32.5388 262.505 34.4699C262.659 34.5193 262.803 34.608 262.917 34.724C287.293 59.6278 300.793 80.9725 318.846 132.432C319.549 134.851 319.799 136.214 319.933 138.655V141.816C319.985 143.886 319.977 145.055 319.122 146.661C319.071 146.756 319.002 146.843 318.923 146.915C306.464 158.352 299.579 164.013 288.029 170.115Z" fill="#9400FF"/>
<path d="M250.966 165.473C251.055 164.6 252.147 164.237 252.724 164.898C270.399 185.098 278.942 197.713 290.497 220.63C290.679 220.991 290.623 221.437 290.36 221.743C261.067 255.805 242.658 271.706 206.798 293.675C206.634 293.776 206.437 293.828 206.245 293.824C158.964 292.749 139.998 291.36 122.676 287.281C122.487 287.237 122.314 287.136 122.181 286.996C107.228 271.285 99.8086 261.299 91.8169 242.845C91.5474 242.222 91.9779 241.515 92.6532 241.452C144.326 236.652 173.93 229.171 223.424 200.249C224.217 199.785 225.185 200.539 224.906 201.415C216.536 227.734 213.704 239.489 211.442 253.425C211.273 254.465 212.614 255.007 213.221 254.145C236.057 221.728 247.262 201.812 250.966 165.473Z" fill="#9400FF"/>
<path d="M93.5745 280.857C94.3956 280.793 94.787 279.815 94.2429 279.196C82.1826 265.489 77.5438 257.799 76.717 246.548C76.676 245.99 76.1947 245.564 75.6356 245.589C66.108 246.02 56.615 242.854 35.8356 233.076C35.1212 232.74 34.3099 233.323 34.4122 234.105C37.0131 254.003 39.9263 263.851 48.095 276.421C48.2285 276.627 48.4393 276.779 48.676 276.843C65.929 281.48 76.1749 282.227 93.5745 280.857Z" fill="#9400FF"/>
<path d="M30.1478 171.316C30.0706 171.086 30.0812 170.829 30.177 170.605C36.6255 155.588 44.1831 147.224 61.1774 132.586C61.2188 132.55 61.2594 132.509 61.2943 132.467C72.6883 118.786 68.7733 109.118 48.3011 89.3631C48.2368 89.3011 48.1615 89.2456 48.0831 89.2028C42.4573 86.1341 38.171 83.8769 32.0644 80.8815C31.012 80.3653 31.5588 78.6823 32.7164 78.8666C39.165 79.8929 44.2694 80.3116 51.4231 80.373C51.8571 80.3768 52.2459 80.0988 52.375 79.6844C53.1157 77.306 53.6701 74.9362 56.3018 67.1422C57.0084 64.8894 57.0798 63.5842 56.8945 61.2157C56.7271 59.8246 56.5877 58.969 56.092 57.8556C55.9301 57.492 55.5445 57.2812 55.1474 57.3071C37.7574 58.4406 29.5742 60.243 19.755 66.4507C6.75551 73.4546 5.77084 82.8817 4.74121 100.331L0.0127254 135.844C0.00426146 135.907 0.00201007 135.973 0.00584735 136.037C2.13302 171.522 3.42677 191.397 12.6118 208.098C12.8079 208.455 13.0134 208.928 13.3221 209.193C16.6766 212.075 40.4524 225.446 48.5974 225.281C57.4779 225.102 59.1663 227.306 57.5859 218.367C56.0055 209.428 52.8766 204.654 45.7329 194.957C35.8469 183.501 33.0417 179.948 30.1478 171.316Z" fill="#9400FF"/>
</svg>
