<svg width="1978" height="1791" viewBox="0 0 1978 1791" fill="none" xmlns="http://www.w3.org/2000/svg">
<rect width="1978" height="1791" fill="black"/>
<path d="M835.565 692.719L690.329 542.477C687.261 539.303 681.882 541.557 681.74 545.969C665.115 1065.07 718.964 1246.32 986.83 1257.98C987.098 1257.99 987.385 1257.98 987.651 1257.95C1262.61 1225.18 1316.5 1045.47 1296.12 545.994C1295.94 541.579 1290.54 539.38 1287.5 542.591L1140.56 697.982M835.565 692.719L983.727 549.788C985.682 547.903 988.783 547.922 990.714 549.831L1140.56 697.982M835.565 692.719L983.762 842.996C985.689 844.95 988.83 844.986 990.801 843.076L1140.56 697.982" stroke="white" stroke-width="10"/>
</svg>
