<svg width="1978" height="1791" viewBox="0 0 1978 1791" fill="none" xmlns="http://www.w3.org/2000/svg">
<rect width="1978" height="1791" fill="black"/>
<path d="M980.862 548.492L901.144 682.262C898.307 687.023 899.883 693.183 904.657 695.996L984.394 742.991C987.542 744.847 991.451 744.837 994.589 742.967L1073.45 695.989C1078.18 693.172 1079.74 687.061 1076.94 682.319L998.067 548.533C994.209 541.989 984.751 541.967 980.862 548.492Z" stroke="white" stroke-width="10"/>
<path d="M986.876 827.487L749.277 695.878C740.353 690.936 730.626 700.958 735.832 709.73L869.65 935.2C870.262 936.232 870.683 937.365 870.894 938.546L919.133 1208.7C919.63 1211.48 921.28 1213.92 923.676 1215.42L986.186 1254.5C989.58 1256.62 993.912 1256.52 997.198 1254.23L1053.08 1215.36C1055.19 1213.89 1056.66 1211.65 1057.17 1209.13L1111.67 938.347C1111.88 937.296 1112.26 936.286 1112.79 935.355L1241.89 709.668C1246.94 700.84 1237.12 690.986 1228.27 696.005L996.657 827.437C993.628 829.155 989.923 829.175 986.876 827.487Z" stroke="white" stroke-width="10"/>
<path d="M984.476 945.894L674.074 769.253C665.208 764.207 655.365 774.117 660.471 782.949L773.415 978.306C774.035 979.378 774.451 980.557 774.64 981.782L787.429 1064.47C787.985 1068.07 790.452 1071.08 793.87 1072.33L985.98 1142.74C988.206 1143.55 990.649 1143.55 992.874 1142.73L1184.15 1072.33C1187.56 1071.08 1190.02 1068.08 1190.58 1064.49L1203.5 981.772C1203.69 980.554 1204.11 979.381 1204.72 978.314L1317.52 782.995C1322.63 774.159 1312.77 764.252 1303.91 769.308L994.377 945.888C991.309 947.638 987.546 947.64 984.476 945.894Z" stroke="white" stroke-width="10"/>
</svg>
