<svg width="1978" height="1791" viewBox="0 0 1978 1791" fill="none" xmlns="http://www.w3.org/2000/svg">
<rect width="1978" height="1791" fill="black"/>
<path d="M1305.04 946.812L1308.06 942.826L1307.86 942.677L1307.65 942.547L1305.04 946.812ZM1311.5 946.812L1309.16 942.391L1309 942.478L1308.84 942.576L1311.5 946.812ZM1240.19 890.909L1244.15 887.855L1244.1 887.787L1244.04 887.721L1240.19 890.909ZM1238.57 882.586L1243.25 884.355L1243.27 884.313L1243.28 884.272L1238.57 882.586ZM1259.62 855.659L1256.54 851.721L1256.54 851.721L1259.62 855.659ZM1259.92 855.277L1255.35 853.237L1255.35 853.238L1259.92 855.277ZM1270.25 832.149L1274.82 834.189L1274.84 834.148L1274.85 834.107L1270.25 832.149ZM1270.25 827.055L1275.07 825.707L1275.06 825.694L1270.25 827.055ZM1183.27 653.293L1187.2 650.2L1187.19 650.199L1183.27 653.293ZM1182.7 652.932L1183.81 648.056L1183.81 648.056L1182.7 652.932ZM1144.3 647.019L1144.85 642.049L1144.85 642.049L1144.3 647.019ZM1144.25 647.014L1143.71 651.984L1143.71 651.984L1144.25 647.014ZM1142.3 646.8L1142.84 641.829L1142.77 641.822L1142.7 641.816L1142.3 646.8ZM1042.3 645.608L1041.59 640.657L1041.59 640.657L1042.3 645.608ZM1041.16 644.441L1036.22 643.627L1036.22 643.627L1041.16 644.441ZM1035.14 566.041L1030.24 567.04L1030.24 567.04L1035.14 566.041ZM1034.09 565.231L1033.81 560.239L1033.81 560.239L1034.09 565.231ZM908.192 565.128L908.488 560.136L908.488 560.136L908.192 565.128ZM907.269 563.912L912.137 565.053L912.137 565.052L907.269 563.912ZM923.441 538.668L920.062 534.983L920.062 534.983L923.441 538.668ZM923.939 538.42L923.032 533.503L923.032 533.503L923.939 538.42ZM971.235 534V529H971.147L971.06 529.003L971.235 534ZM992.354 534L992.597 529.006L992.475 529H992.354V534ZM1033.22 535.988L1033.63 531.004L1033.55 530.998L1033.47 530.994L1033.22 535.988ZM1081.92 539.963L1081.52 544.946L1081.58 544.952L1081.64 544.955L1081.92 539.963ZM1119.44 543.193L1120.13 538.241L1120.05 538.23L1119.98 538.222L1119.44 543.193ZM1187.24 559.159L1188.88 554.437L1188.88 554.437L1187.24 559.159ZM1187.89 559.885L1183.02 560.996L1183.02 560.996L1187.89 559.885ZM1169.51 620.93L1165.54 617.883L1165.54 617.883L1169.51 620.93ZM1170.94 622.375L1174 626.327L1174 626.327L1170.94 622.375ZM1214.35 599.841L1214.1 594.847L1213.95 594.855L1213.8 594.871L1214.35 599.841ZM1247.65 605.728L1249.18 600.966L1249.18 600.966L1247.65 605.728ZM1248.07 605.982L1251.64 602.483L1251.64 602.483L1248.07 605.982ZM1389.02 852.025L1393.82 850.631L1393.78 850.5L1393.73 850.37L1389.02 852.025ZM1391.75 867.678H1396.75V867.541L1396.74 867.405L1391.75 867.678ZM1391.75 875.629H1386.75V875.692L1386.75 875.754L1391.75 875.629ZM1389.59 888.033L1385.2 885.637L1385.2 885.637L1389.59 888.033ZM1389.39 888.287L1392.77 891.97L1392.77 891.969L1389.39 888.287ZM1015.46 618.848L1011.61 622.037L1020.37 617.893L1015.46 618.848ZM990.739 594.251L993.916 590.39L991.276 588.218L988.294 589.89L990.739 594.251ZM1009 585.679L1013.91 584.723L1013.14 580.787L1009.13 580.681L1009 585.679ZM789.737 595.245L789.04 590.294L786.312 590.678L785.179 593.189L789.737 595.245ZM754.332 710.653L749.437 709.63L749.348 710.059L749.334 710.498L754.332 710.653ZM758.307 750.034L753.461 751.266L753.6 751.811L753.856 752.312L758.307 750.034ZM876.572 945.321L872.758 948.554L874.354 950.437L876.819 950.315L876.572 945.321ZM982.043 919.109L983.823 923.782L993.635 920.043L984.548 914.782L982.043 919.109ZM871.852 838.236L866.967 839.303L867.284 840.754L868.341 841.796L871.852 838.236ZM871.84 838.184L866.955 839.248L866.956 839.251L871.84 838.184ZM787.997 647.048L790.907 642.982L784.582 650.7L787.997 647.048ZM852.472 681.708L851.001 686.487L853.321 687.201L855.317 685.82L852.472 681.708ZM947.508 652.39L943.269 649.738L937.964 658.22L947.932 657.372L947.508 652.39ZM982.044 619.096L986.25 616.393L983.462 612.056L979.213 614.975L982.044 619.096ZM997.199 652.017L996.088 656.892L1004.64 658.843L1001.96 650.488L997.199 652.017ZM918.562 741.71L923.214 743.545L923.477 742.877L923.542 742.162L918.562 741.71ZM892.102 782.209L887.65 784.485L890.757 790.562L895.614 785.767L892.102 782.209ZM928.749 699.472L926.062 695.256L924.84 696.034L924.224 697.346L928.749 699.472ZM962.415 684.565L962.204 679.569L961.798 679.587L961.399 679.669L962.415 684.565ZM1144.04 731.523L1148.41 729.099L1147.98 728.324L1147.31 727.744L1144.04 731.523ZM1180.19 867.305L1182.58 871.696L1184.74 870.521L1185.12 868.097L1180.19 867.305ZM903.655 972.651L904.024 977.638L904.44 977.607L904.846 977.507L903.655 972.651ZM736.692 979.235L736.659 974.236L730.365 974.276L731.829 980.398L736.692 979.235ZM769.985 1080.36L765.444 1082.45L766.697 1085.17L769.686 1085.35L769.985 1080.36ZM923.283 1070.92L924.07 1075.85L924.256 1075.82L924.439 1075.78L923.283 1070.92ZM1111.49 1020.48L1112.9 1025.28L1113.98 1024.96L1114.82 1024.21L1111.49 1020.48ZM1156.71 963.086L1160.99 965.668L1165.57 958.072L1156.7 958.086L1156.71 963.086ZM1053.35 967.309L1051.37 962.72L1053.74 972.294L1053.35 967.309ZM1240.69 840.099L1244.58 843.238L1246.08 841.373L1245.57 839.032L1240.69 840.099ZM1189.88 705.063L1194.28 702.701L1194.14 702.43L1193.96 702.179L1189.88 705.063ZM1160.68 670.9L1164.15 667.299L1162.86 666.05L1161.06 665.914L1160.68 670.9ZM947.632 670.154L947.282 665.167L946.965 665.189L946.655 665.251L947.632 670.154ZM923.656 675.372L924.664 680.269L924.741 680.253L924.817 680.235L923.656 675.372ZM859.057 699.969L856.775 695.521L853.134 697.388L854.244 701.326L859.057 699.969ZM954.838 766.059L950.945 762.921L950.286 763.738L950.012 764.75L954.838 766.059ZM995.833 750.158L997.658 745.502L996.811 745.17L995.901 745.158L995.833 750.158ZM959.186 799.104L954.968 801.789L956.42 804.07L959.125 804.103L959.186 799.104ZM1031.36 787.178L1034.01 791.421L1034.56 791.078L1035 790.606L1031.36 787.178ZM1035.71 774.134L1040.71 774.1L1040.7 772.724L1039.99 771.547L1035.71 774.134ZM960.179 742.704L963.573 746.375L963.914 746.059L964.191 745.687L960.179 742.704ZM942.29 751.151L937.342 751.875L938.154 757.424L943.573 755.984L942.29 751.151ZM1014.59 711.647L1015.72 716.518L1023.94 714.613L1018.32 708.317L1014.59 711.647ZM1008.38 704.69L1012.11 701.36L1010.95 700.062L1009.24 699.764L1008.38 704.69ZM966.142 701.957L965.825 696.967L965.518 696.986L965.217 697.043L966.142 701.957ZM943.532 717.113L939.514 714.137L939.007 714.822L938.755 715.637L943.532 717.113ZM1054.35 767.301L1049.67 769.085L1050.72 771.811L1053.6 772.245L1054.35 767.301ZM1071.99 768.295L1072.1 773.294L1072.18 773.292L1072.26 773.288L1071.99 768.295ZM1041.43 743.698L1044.73 739.943L1043.84 739.166L1042.71 738.864L1041.43 743.698ZM995.709 740.219L991.341 737.786L986.906 745.747L996.004 745.211L995.709 740.219ZM1026.77 717.858L1026.97 712.862L1026.33 712.836L1025.7 712.974L1026.77 717.858ZM1050.12 723.573L1053.1 719.557L1052.78 719.316L1052.42 719.13L1050.12 723.573ZM1085.65 765.562L1087.05 770.363L1093.74 768.414L1089.75 762.7L1085.65 765.562ZM1113.97 727.548L1117.53 724.036L1116.55 723.035L1115.18 722.696L1113.97 727.548ZM1067.02 717.113L1068.02 712.214L1063.81 720.95L1067.02 717.113ZM1156.71 828.173L1161.19 830.396L1161.71 829.344L1161.71 828.17L1156.71 828.173ZM1119.94 870.659L1114.96 870.157L1113.75 882.132L1123.09 874.539L1119.94 870.659ZM931.522 776.995L936.499 776.512L936.499 776.512L931.522 776.995ZM929.961 776.298L933.021 780.252L933.021 780.252L929.961 776.298ZM944.55 813.286L948.137 809.802L948.137 809.802L944.55 813.286ZM945.087 813.571L944.197 818.492L944.197 818.492L945.087 813.571ZM965.396 817.242L964.507 822.162L964.693 822.196L964.881 822.215L965.396 817.242ZM990.49 817.49L990.839 822.478L990.871 822.476L990.903 822.473L990.49 817.49ZM1090.12 797.241L1091.47 802.055L1091.47 802.055L1090.12 797.241ZM1091.1 798.963L1094.57 802.559L1094.57 802.559L1091.1 798.963ZM1076.95 815.751L1080.75 819.005L1080.91 818.815L1081.06 818.61L1076.95 815.751ZM1073.97 819.229L1077.68 822.584L1077.72 822.534L1077.77 822.483L1073.97 819.229ZM1065.03 827.925L1068.2 831.789L1068.24 831.754L1068.29 831.717L1065.03 827.925ZM1058.07 833.64L1054.9 829.776L1054.89 829.783L1058.07 833.64ZM1002.9 870.266L1000.24 866.031L1000.24 866.031L1002.9 870.266ZM1002.39 870.421L1002.22 865.424L1002.22 865.424L1002.39 870.421ZM979.558 868.424L977.858 873.126L978.183 873.244L978.522 873.315L979.558 868.424ZM896.763 821.336L893.549 825.167L893.549 825.167L896.763 821.336ZM896.415 820.409L901.349 821.221L901.349 821.221L896.415 820.409ZM899.992 806.004L895.216 804.526L895.216 804.526L899.992 806.004ZM900.176 805.663L904.019 808.861L904.02 808.861L900.176 805.663ZM1024.39 909.148L1023.48 904.231L1023.48 904.231L1024.39 909.148ZM1023.46 907.508L1019.72 904.19L1019.72 904.19L1023.46 907.508ZM1092.29 890.263L1090.46 885.608L1090.46 885.608L1092.29 890.263ZM1092.92 889.43L1087.95 888.899L1087.95 888.899L1092.92 889.43ZM1092.15 842.632L1097.09 841.855L1097.09 841.855L1092.15 842.632ZM1090.49 842.049L1093.79 845.803L1093.79 845.803L1090.49 842.049ZM718.067 933.673L721.568 937.243L721.568 937.243L718.067 933.673ZM718.857 935.382L719.304 940.362L719.304 940.362L718.857 935.382ZM767.004 885.691L763.536 882.089L763.52 882.105L763.503 882.121L767.004 885.691ZM768.847 883.927L765.394 880.311L765.394 880.311L768.847 883.927ZM780.793 866.933L785.589 868.347L785.594 868.332L785.598 868.317L780.793 866.933ZM788.719 846.242L793.203 848.454L793.203 848.454L788.719 846.242ZM790.507 846.247L786.032 848.476L786.032 848.476L790.507 846.247ZM828.558 904.613L832.379 901.387L832.379 901.387L828.558 904.613ZM828.267 906.154L825.915 901.741L825.915 901.742L828.267 906.154ZM813.413 914.178L811.022 909.787L811.004 909.797L810.985 909.807L813.413 914.178ZM813.411 914.179L815.764 918.591L815.802 918.571L815.84 918.55L813.411 914.179ZM813.409 914.18L811.056 909.769L811.037 909.779L811.019 909.789L813.409 914.18ZM785.314 929.083L787.587 933.537L787.588 933.536L785.314 929.083ZM784.948 929.19L785.415 934.168L785.416 934.168L784.948 929.19ZM755.109 932.004L755.55 936.985L755.565 936.983L755.58 936.982L755.109 932.004ZM755.102 932.005L754.661 927.024L754.646 927.026L754.631 927.027L755.102 932.005ZM1218.6 931.63L1223.58 932.106L1223.58 932.106L1218.6 931.63ZM1220.37 931.053L1224.12 927.752L1224.12 927.752L1220.37 931.053ZM1119.65 1163.36L1115.57 1160.47L1115.57 1160.47L1119.65 1163.36ZM1117.84 1162.66L1122.78 1163.43L1122.78 1163.43L1117.84 1162.66ZM1153.91 1021.77L1158.67 1023.29L1158.67 1023.29L1153.91 1021.77ZM1152.43 1020.59L1154.96 1024.9L1154.96 1024.9L1152.43 1020.59ZM817.953 1126.44L818.41 1131.42L818.41 1131.42L817.953 1126.44ZM817.114 1127.84L812.518 1129.81L812.518 1129.81L817.114 1127.84ZM894.627 1241.14L891.006 1244.59L891.006 1244.59L894.627 1241.14ZM895.122 1241.43L893.97 1246.29L893.97 1246.29L895.122 1241.43ZM1106.22 1258L1106.33 1253L1106.33 1253L1106.22 1258ZM1106.77 1257.85L1109.38 1262.11L1109.38 1262.11L1106.77 1257.85ZM1318.01 1075.9L1314.22 1072.64L1314.22 1072.64L1318.01 1075.9ZM1318.15 1074.79L1322.62 1072.54L1322.62 1072.54L1318.15 1074.79ZM826.037 1223.45L829.779 1220.14L829.779 1220.14L826.037 1223.45ZM825.371 1225.13L825.783 1230.11L825.783 1230.11L825.371 1225.13ZM779.855 1137.53L774.864 1137.84L774.864 1137.84L779.855 1137.53ZM778.78 1136.58L779.085 1141.57L779.085 1141.57L778.78 1136.58ZM674.631 1104.01L676.767 1099.48L676.767 1099.48L674.631 1104.01ZM673.193 1105.04L668.233 1105.68L668.233 1105.68L673.193 1105.04ZM708.28 1214.7L712.467 1211.97L712.467 1211.97L708.28 1214.7ZM708.862 1215.12L707.56 1219.95L707.56 1219.95L708.862 1215.12ZM662.647 949.287L667.392 947.71L667.392 947.71L662.647 949.287ZM662.676 948.573L658.078 946.61L658.078 946.61L662.676 948.573ZM702.032 1009.3L706.057 1006.33L705.943 1006.18L705.817 1006.03L702.032 1009.3ZM731.847 1068.18L726.923 1069.05L726.923 1069.05L731.847 1068.18ZM720.278 1085.74L720.089 1090.74L720.089 1090.74L720.278 1085.74ZM709.237 1085.58L709.136 1080.58L709.136 1080.58L709.237 1085.58ZM619.769 1044.4L615.962 1047.64L615.962 1047.64L619.769 1044.4ZM619.417 1043.71L614.751 1045.51L614.751 1045.51L619.417 1043.71ZM619.214 1043.25L614.848 1045.68L614.848 1045.68L619.214 1043.25ZM587.002 860.943L591.993 860.644L591.993 860.644L587.002 860.943ZM587.009 860.75L582.052 860.09L582.052 860.09L587.009 860.75ZM598.922 771.277L603.878 771.937L603.902 771.754L603.913 771.571L598.922 771.277ZM636.687 686.056L639.059 690.458L639.212 690.375L639.359 690.282L636.687 686.056ZM726.711 662.992L727.031 667.981L727.031 667.981L726.711 662.992ZM727.668 663.536L732.161 661.342L732.161 661.342L727.668 663.536ZM730.107 672.888L735.092 672.498L735.084 672.394L735.072 672.29L730.107 672.888ZM728.617 687.795L733.354 689.395L733.371 689.343L733.388 689.291L728.617 687.795ZM720.25 714.261L715.448 712.866L715.448 712.866L720.25 714.261ZM718.406 720.395L723.167 721.925L723.167 721.925L718.406 720.395ZM717.447 721.084L717.479 716.084L717.479 716.084L717.447 721.084ZM657.721 715.303L656.827 720.222L656.827 720.222L657.721 715.303ZM657.09 717.228L659.258 712.723L659.258 712.723L657.09 717.228ZM708.124 743.384L710.519 738.995L710.519 738.995L708.124 743.384ZM708.342 743.545L704.871 747.144L704.871 747.144L708.342 743.545ZM741.093 852.209L744.932 855.413L744.932 855.413L741.093 852.209ZM740.976 852.328L744.239 856.117L744.24 856.116L740.976 852.328ZM1302.02 950.798C1303.66 952.044 1305.77 953.199 1308.4 953.11C1310.82 953.03 1312.79 951.902 1314.15 951.048L1308.84 942.576C1308.3 942.914 1308 943.066 1307.84 943.132C1307.71 943.188 1307.81 943.125 1308.07 943.116C1308.19 943.112 1308.31 943.122 1308.43 943.143C1308.53 943.164 1308.6 943.189 1308.62 943.196C1308.63 943.201 1308.46 943.132 1308.06 942.826L1302.02 950.798ZM1236.23 893.963C1255.54 918.994 1270.47 931.523 1302.43 951.077L1307.65 942.547C1276.46 923.464 1262.54 911.698 1244.15 887.855L1236.23 893.963ZM1233.9 880.817C1233.3 882.388 1232.58 884.573 1232.92 887.155C1233.27 889.751 1234.59 891.982 1236.34 894.097L1244.04 887.721C1243.46 887.022 1243.16 886.539 1243 886.226C1242.92 886.075 1242.88 885.973 1242.86 885.914C1242.84 885.857 1242.84 885.829 1242.84 885.822C1242.83 885.816 1242.83 885.803 1242.83 885.776C1242.84 885.745 1242.84 885.682 1242.86 885.574C1242.91 885.334 1243.02 884.975 1243.25 884.355L1233.9 880.817ZM1256.54 851.721C1250.23 856.656 1245.61 860.851 1242.04 865.431C1238.41 870.074 1236.02 874.9 1233.87 880.9L1243.28 884.272C1245.19 878.953 1247.13 875.157 1249.92 871.586C1252.76 867.952 1256.64 864.343 1262.7 859.597L1256.54 851.721ZM1255.35 853.238C1255.63 852.623 1256.04 852.11 1256.54 851.721L1262.7 859.597C1263.45 859.007 1264.08 858.228 1264.48 857.316L1255.35 853.238ZM1265.69 830.109L1255.35 853.237L1264.48 857.316L1274.82 834.189L1265.69 830.109ZM1265.44 828.404C1265.58 828.9 1265.66 829.232 1265.71 829.486C1265.76 829.728 1265.77 829.834 1265.77 829.863C1265.77 829.876 1265.77 829.867 1265.77 829.87C1265.76 829.885 1265.74 829.98 1265.65 830.191L1274.85 834.107C1275.47 832.669 1275.81 831.217 1275.76 829.597C1275.72 828.143 1275.37 826.798 1275.07 825.707L1265.44 828.404ZM1179.34 656.386C1205.88 690.093 1222.6 716.251 1235.07 742.305C1247.55 768.384 1255.86 794.535 1265.44 828.416L1275.06 825.694C1265.45 791.705 1256.96 764.873 1244.09 737.988C1231.21 711.078 1214.04 684.29 1187.2 650.2L1179.34 656.386ZM1181.59 657.807C1180.68 657.601 1179.9 657.095 1179.34 656.387L1187.19 650.199C1186.35 649.132 1185.16 648.364 1183.81 648.056L1181.59 657.807ZM1143.76 651.99C1158.63 653.617 1167.37 654.576 1181.59 657.807L1183.81 648.056C1168.99 644.688 1159.76 643.68 1144.85 642.049L1143.76 651.99ZM1143.71 651.984L1143.76 651.99L1144.85 642.049L1144.8 642.043L1143.71 651.984ZM1141.75 651.77L1143.71 651.984L1144.8 642.043L1142.84 641.829L1141.75 651.77ZM1043 650.558C1065.52 647.353 1086.15 647.28 1141.9 651.783L1142.7 641.816C1086.84 637.304 1065.28 637.286 1041.59 640.657L1043 650.558ZM1036.22 643.627C1035.57 647.613 1038.96 651.132 1043 650.558L1041.59 640.657C1044.28 640.275 1046.53 642.613 1046.09 645.255L1036.22 643.627ZM1030.24 567.04C1038.52 607.659 1039.45 624.084 1036.22 643.627L1046.09 645.255C1049.62 623.881 1048.39 606.012 1040.04 565.042L1030.24 567.04ZM1034.38 570.223C1032.37 570.337 1030.63 568.966 1030.24 567.04L1040.04 565.042C1039.45 562.143 1036.81 560.069 1033.81 560.239L1034.38 570.223ZM907.897 570.119C960.377 573.227 988.065 572.852 1034.38 570.223L1033.81 560.239C987.844 562.848 960.544 563.219 908.488 560.136L907.897 570.119ZM902.401 562.772C901.525 566.51 904.31 569.906 907.897 570.119L908.488 560.136C910.846 560.276 912.732 562.512 912.137 565.053L902.401 562.772ZM920.062 534.983C914.442 540.137 910.581 544.433 907.838 548.86C905.054 553.355 903.582 557.726 902.401 562.772L912.137 565.052C913.177 560.614 914.326 557.376 916.339 554.126C918.394 550.808 921.509 547.224 926.82 542.353L920.062 534.983ZM923.032 533.503C921.917 533.708 920.886 534.228 920.062 534.983L926.82 542.354C926.272 542.856 925.593 543.199 924.845 543.337L923.032 533.503ZM971.06 529.003C950.162 529.734 939.07 530.546 923.032 533.503L924.845 543.337C940.182 540.509 950.715 539.72 971.409 538.997L971.06 529.003ZM992.354 529H971.235V539H992.354V529ZM1033.47 530.994L992.597 529.006L992.111 538.994L1032.98 540.982L1033.47 530.994ZM1082.33 534.98L1033.63 531.004L1032.82 540.971L1081.52 544.946L1082.33 534.98ZM1119.98 538.222C1105.57 536.66 1097.37 535.817 1082.2 534.971L1081.64 544.955C1096.56 545.787 1104.56 546.609 1118.9 548.164L1119.98 538.222ZM1188.88 554.437C1160.14 544.445 1145.35 541.754 1120.13 538.241L1118.75 548.145C1143.53 551.596 1157.64 554.163 1185.6 563.882L1188.88 554.437ZM1192.77 558.775C1192.3 556.746 1190.82 555.111 1188.88 554.437L1185.6 563.882C1184.31 563.433 1183.33 562.357 1183.02 560.996L1192.77 558.775ZM1173.47 623.977C1182.24 612.572 1188.63 602.737 1192.01 592.454C1195.45 581.989 1195.65 571.439 1192.77 558.775L1183.02 560.996C1185.58 572.243 1185.28 580.907 1182.51 589.332C1179.68 597.939 1174.16 606.671 1165.54 617.883L1173.47 623.977ZM1167.87 618.423C1168.67 617.807 1169.73 617.49 1170.82 617.623C1171.82 617.744 1172.62 618.214 1173.16 618.762C1174.25 619.862 1174.91 622.104 1173.47 623.977L1165.54 617.883C1163.38 620.693 1164.3 624.019 1166.04 625.788C1167.8 627.568 1171.16 628.527 1174 626.327L1167.87 618.423ZM1213.8 594.871C1195.78 596.854 1183.9 606.001 1167.87 618.423L1174 626.327C1190.33 613.669 1200.08 606.441 1214.9 604.811L1213.8 594.871ZM1249.18 600.966C1233.52 595.945 1225.37 594.284 1214.1 594.847L1214.6 604.835C1224.11 604.36 1230.91 605.611 1246.13 610.489L1249.18 600.966ZM1251.64 602.483C1250.95 601.782 1250.1 601.262 1249.18 600.966L1246.13 610.489C1245.51 610.292 1244.95 609.95 1244.5 609.481L1251.64 602.483ZM1393.73 850.37C1348.08 720.244 1313.76 665.892 1251.64 602.483L1244.49 609.481C1305.34 671.589 1339 724.554 1384.3 853.681L1393.73 850.37ZM1396.74 867.405C1396.38 860.848 1395.68 857.043 1393.82 850.631L1384.21 853.419C1385.89 859.178 1386.44 862.23 1386.76 867.952L1396.74 867.405ZM1396.75 875.629V867.678H1386.75V875.629H1396.75ZM1393.98 890.428C1396.93 885.026 1396.88 880.9 1396.75 875.504L1386.75 875.754C1386.88 880.956 1386.79 882.735 1385.2 885.637L1393.98 890.428ZM1392.77 891.969C1393.24 891.541 1393.66 891.023 1393.98 890.428L1385.2 885.637C1385.42 885.231 1385.7 884.888 1386.01 884.605L1392.77 891.969ZM1313.83 951.233C1343.51 935.552 1361.22 920.94 1392.77 891.97L1386.01 884.604C1354.65 913.394 1337.7 927.315 1309.16 942.391L1313.83 951.233ZM1019.31 615.66C1010.53 605.054 1004.93 599.453 993.916 590.39L987.561 598.112C998.089 606.775 1003.24 611.927 1011.61 622.037L1019.31 615.66ZM1004.09 586.635L1010.55 619.804L1020.37 617.893L1013.91 584.723L1004.09 586.635ZM790.434 600.196C860.656 590.31 910.436 588.08 1008.87 590.678L1009.13 580.681C910.332 578.073 859.969 580.308 789.04 590.294L790.434 600.196ZM759.226 711.677C770.335 658.567 777.94 633.553 794.294 597.301L785.179 593.189C768.435 630.303 760.643 656.064 749.437 709.63L759.226 711.677ZM763.153 748.802C759.594 734.802 758.837 726.627 759.329 710.809L749.334 710.498C748.817 727.111 749.64 736.233 753.461 751.266L763.153 748.802ZM880.387 942.089C846.662 902.298 824.45 868.279 762.758 747.756L753.856 752.312C815.622 872.98 838.258 907.849 872.758 948.554L880.387 942.089ZM980.262 914.437C930.916 933.237 908.416 938.743 876.326 940.327L876.819 950.315C910.397 948.657 934.01 942.759 983.823 923.782L980.262 914.437ZM868.341 841.796C903.409 876.384 928.797 894.061 979.537 923.436L984.548 914.782C934.249 885.662 909.628 868.472 875.363 834.676L868.341 841.796ZM866.956 839.251L866.967 839.303L876.737 837.169L876.725 837.117L866.956 839.251ZM784.582 650.7C836.277 699.042 847.525 750.065 866.955 839.248L876.726 837.119C857.389 748.364 845.715 694.177 791.413 643.396L784.582 650.7ZM853.943 676.929C831.517 670.027 818.102 662.442 790.907 642.982L785.088 651.114C812.695 670.87 827.115 679.135 851.001 686.487L853.943 676.929ZM988.294 589.89C939.852 617.046 909.946 635.871 849.628 677.596L855.317 685.82C915.441 644.229 945.077 625.581 993.184 598.612L988.294 589.89ZM951.747 655.041C959.483 642.674 974.903 630.067 984.875 623.218L979.213 614.975C968.963 622.016 952.131 635.571 943.269 649.738L951.747 655.041ZM998.311 647.142C987.283 644.628 974.688 645.059 947.084 647.408L947.932 657.372C975.876 654.994 986.853 654.786 996.088 656.892L998.311 647.142ZM977.838 621.8C984.575 632.281 987.746 638.942 992.439 653.547L1001.96 650.488C997.034 635.156 993.511 627.689 986.25 616.393L977.838 621.8ZM913.911 739.875C909.983 749.834 906.586 756.577 902.775 762.247C898.966 767.915 894.625 772.692 888.589 778.65L895.614 785.767C901.835 779.626 906.72 774.306 911.075 767.825C915.428 761.348 919.132 753.891 923.214 743.545L913.911 739.875ZM924.224 697.346C917.517 711.615 915.358 721.712 913.583 741.258L923.542 742.162C925.255 723.302 927.232 714.455 933.274 701.599L924.224 697.346ZM961.399 679.669C949.119 682.218 940.931 685.783 926.062 695.256L931.436 703.689C945.634 694.643 952.687 691.69 963.431 689.461L961.399 679.669ZM1147.31 727.744C1119.95 704.05 1095.08 690.972 1066.08 684.386C1037.3 677.848 1004.72 677.777 962.204 679.569L962.626 689.561C1005.14 687.768 1036.52 687.925 1063.87 694.137C1091 700.301 1114.42 712.495 1140.76 735.303L1147.31 727.744ZM1185.12 868.097C1188.66 846.028 1188.36 827.105 1182.62 805.618C1176.92 784.303 1165.91 760.666 1148.41 729.099L1139.66 733.948C1157.08 765.351 1167.59 788.114 1172.96 808.201C1178.28 828.118 1178.6 845.6 1175.25 866.514L1185.12 868.097ZM904.846 977.507C1015.19 950.453 1076.47 929.496 1182.58 871.696L1177.8 862.914C1072.58 920.229 1012.13 940.907 902.464 967.795L904.846 977.507ZM736.724 984.235C799.966 983.828 836.387 982.639 904.024 977.638L903.286 967.665C835.898 972.648 799.703 973.83 736.659 974.236L736.724 984.235ZM774.526 1078.26C757.334 1040.96 751.27 1018.72 741.555 978.073L731.829 980.398C741.611 1021.33 747.856 1044.28 765.444 1082.45L774.526 1078.26ZM922.496 1065.98C889.891 1071.17 801.855 1077.26 770.284 1075.37L769.686 1085.35C802.172 1087.29 890.962 1081.13 924.07 1075.85L922.496 1065.98ZM1110.08 1015.68C1038.53 1036.69 997.891 1048.04 922.127 1066.05L924.439 1075.78C1000.42 1057.72 1041.24 1046.31 1112.9 1025.28L1110.08 1015.68ZM1152.43 960.504C1135.89 987.931 1126.36 1000.49 1108.16 1016.75L1114.82 1024.21C1134.03 1007.05 1144.15 993.589 1160.99 965.668L1152.43 960.504ZM1053.74 972.294C1095.15 969.042 1117.67 968.147 1156.72 968.086L1156.7 958.086C1117.38 958.148 1094.61 959.053 1052.96 962.325L1053.74 972.294ZM1236.8 836.96C1214.05 865.166 1193.26 885.497 1165.52 904.287C1137.68 923.142 1102.69 940.547 1051.37 962.72L1055.33 971.899C1106.78 949.671 1142.48 931.967 1171.13 912.566C1199.87 893.099 1221.36 872.025 1244.58 843.238L1236.8 836.96ZM1185.47 707.425C1212.48 757.817 1223.93 786.819 1235.8 841.166L1245.57 839.032C1233.48 783.664 1221.67 753.795 1194.28 702.701L1185.47 707.425ZM1157.22 674.501C1169.87 686.687 1175.94 693.988 1185.79 707.946L1193.96 702.179C1183.78 687.758 1177.3 679.965 1164.15 667.299L1157.22 674.501ZM947.982 675.142C1031.45 669.28 1077.92 669.667 1160.31 675.886L1161.06 665.914C1078.21 659.661 1031.26 659.269 947.282 665.167L947.982 675.142ZM924.817 680.235C933.95 678.054 939.155 676.942 948.609 675.058L946.655 665.251C937.105 667.154 931.774 668.292 922.494 670.509L924.817 680.235ZM861.339 704.418C887.97 690.757 901.908 684.956 924.664 680.269L922.647 670.475C898.64 675.419 883.793 681.661 856.775 695.521L861.339 704.418ZM896.553 779.932C880.426 748.396 872.926 730.743 863.869 698.613L854.244 701.326C863.521 734.236 871.3 752.512 887.65 784.485L896.553 779.932ZM958.73 769.197C963.661 763.081 967.951 759.718 973.149 757.758C978.526 755.73 985.353 755.015 995.765 755.157L995.901 745.158C985.201 745.012 976.818 745.686 969.62 748.401C962.243 751.183 956.593 755.915 950.945 762.921L958.73 769.197ZM963.403 796.418C960.037 791.131 958.364 787.271 957.803 783.261C957.236 779.209 957.733 774.486 959.663 767.367L950.012 764.75C947.932 772.422 947.061 778.657 947.899 784.647C948.744 790.681 951.249 795.948 954.968 801.789L963.403 796.418ZM1028.72 782.935C1022.09 787.065 1016.14 789.908 1006.35 791.725C996.33 793.586 982.212 794.383 959.246 794.104L959.125 804.103C982.212 804.383 997.144 803.605 1008.18 801.557C1019.44 799.466 1026.56 796.066 1034.01 791.421L1028.72 782.935ZM1030.71 774.168C1030.73 776.977 1030.55 778.64 1030.15 779.923C1029.79 781.084 1029.16 782.228 1027.72 783.749L1035 790.606C1037.24 788.233 1038.8 785.806 1039.7 782.894C1040.57 780.104 1040.73 777.192 1040.71 774.1L1030.71 774.168ZM994.008 754.813C1005.62 759.364 1013.96 763.066 1020 766.619C1026 770.149 1029.39 773.341 1031.43 776.72L1039.99 771.547C1036.78 766.234 1031.88 762.003 1025.07 758.001C1018.31 754.022 1009.34 750.083 997.658 745.502L994.008 754.813ZM956.784 739.033C953.531 742.041 950.529 743.789 941.006 746.319L943.573 755.984C953.867 753.249 958.634 750.943 963.573 746.375L956.784 739.033ZM1013.46 706.776C999.038 710.117 988.219 713.506 979.231 718.547C970.118 723.658 963.166 730.305 956.166 739.721L964.191 745.687C970.577 737.097 976.528 731.528 984.122 727.269C991.841 722.94 1001.54 719.803 1015.72 716.518L1013.46 706.776ZM1004.65 708.02L1010.86 714.977L1018.32 708.317L1012.11 701.36L1004.65 708.02ZM966.458 706.947C982.478 705.929 991.314 706.795 1007.52 709.616L1009.24 699.764C992.484 696.849 982.833 695.887 965.825 696.967L966.458 706.947ZM947.55 720.089C950.857 715.623 953.306 712.9 956.022 710.997C958.658 709.15 961.881 707.847 967.066 706.871L965.217 697.043C959.141 698.187 954.444 699.892 950.283 702.808C946.202 705.668 942.976 709.463 939.514 714.137L947.55 720.089ZM947.237 750.428C945.151 736.172 944.997 729.308 948.309 718.589L938.755 715.637C934.813 728.394 935.159 736.954 937.342 751.875L947.237 750.428ZM1053.6 772.245C1060.57 773.295 1064.75 773.458 1072.1 773.294L1071.87 763.296C1064.96 763.451 1061.36 763.302 1055.09 762.357L1053.6 772.245ZM1038.12 747.453C1041.78 750.669 1044.27 754.932 1049.67 769.085L1059.02 765.517C1053.69 751.56 1050.48 745.002 1044.73 739.943L1038.12 747.453ZM996.004 745.211C1015.07 744.086 1024.75 744.454 1040.15 748.531L1042.71 738.864C1025.91 734.417 1015.08 734.069 995.415 735.228L996.004 745.211ZM1025.7 712.974C1023.11 713.54 1019.96 715.016 1016.94 716.69C1013.79 718.433 1010.33 720.64 1007.02 722.995C1003.72 725.348 1000.48 727.903 997.777 730.36C995.19 732.716 992.714 735.323 991.341 737.786L1000.08 742.653C1000.62 741.686 1002.06 739.984 1004.51 737.755C1006.85 735.627 1009.76 733.321 1012.82 731.143C1015.88 728.965 1019.01 726.969 1021.78 725.44C1024.67 723.843 1026.75 722.98 1027.84 722.742L1025.7 712.974ZM1052.42 719.13C1044.39 714.987 1038.31 713.32 1026.97 712.862L1026.56 722.854C1036.61 723.26 1041.24 724.615 1047.83 728.015L1052.42 719.13ZM1089.75 762.7C1074.07 740.247 1065.34 728.632 1053.1 719.557L1047.14 727.589C1057.86 735.538 1065.73 745.767 1081.55 768.424L1089.75 762.7ZM1072.26 773.288C1076.89 773.034 1080.34 772.316 1087.05 770.363L1084.25 760.762C1077.87 762.62 1075.25 763.109 1071.71 763.303L1072.26 773.288ZM1115.18 722.696C1097.03 718.18 1086.57 716.011 1068.02 712.214L1066.01 722.011C1084.53 725.801 1094.82 727.937 1112.77 732.4L1115.18 722.696ZM1161.71 828.17C1161.69 806.558 1159.77 789.543 1153.12 773.296C1146.47 757.064 1135.3 742.036 1117.53 724.036L1110.42 731.06C1127.74 748.619 1137.92 762.563 1143.86 777.084C1149.8 791.589 1151.69 807.108 1151.71 828.177L1161.71 828.17ZM1123.09 874.539C1142.05 859.125 1151.87 849.181 1161.19 830.396L1152.23 825.95C1143.81 842.909 1135.23 851.783 1116.78 866.78L1123.09 874.539ZM1063.81 720.95C1089.03 742.019 1103.44 760.652 1110.83 782.97C1118.27 805.451 1118.79 832.261 1114.96 870.157L1124.91 871.162C1128.77 832.947 1128.45 804.388 1120.32 779.827C1112.14 755.102 1096.24 735.017 1070.22 713.276L1063.81 720.95ZM936.499 776.512C936.065 772.047 930.798 769.327 926.9 772.344L933.021 780.252C930.348 782.321 926.829 780.404 926.545 777.478L936.499 776.512ZM948.137 809.802C940.568 802.009 938.247 794.534 936.499 776.512L926.545 777.478C928.35 796.086 930.946 806.454 940.963 816.769L948.137 809.802ZM945.976 808.651C946.798 808.8 947.553 809.201 948.137 809.802L940.963 816.769C941.835 817.667 942.968 818.269 944.197 818.492L945.976 808.651ZM966.285 812.321L945.976 808.651L944.197 818.492L964.507 822.162L966.285 812.321ZM990.141 812.502C980.169 813.2 974.937 813.203 965.911 812.268L964.881 822.215C974.592 823.221 980.415 823.207 990.839 822.478L990.141 812.502ZM1088.77 792.426C1045.88 804.443 1022.79 809.799 990.078 812.507L990.903 822.473C1024.57 819.686 1048.38 814.127 1091.47 802.055L1088.77 792.426ZM1094.57 802.559C1098.97 798.31 1094.9 790.708 1088.77 792.426L1091.47 802.055C1087.36 803.207 1084.73 798.158 1087.62 795.366L1094.57 802.559ZM1081.06 818.61C1086.03 811.468 1089.37 807.585 1094.57 802.559L1087.62 795.366C1081.91 800.879 1078.17 805.264 1072.85 812.892L1081.06 818.61ZM1077.77 822.483L1080.75 819.005L1073.16 812.497L1070.18 815.975L1077.77 822.483ZM1068.29 831.717C1072.27 828.29 1074.37 826.238 1077.68 822.584L1070.26 815.875C1067.25 819.211 1065.45 820.971 1061.77 824.133L1068.29 831.717ZM1061.24 837.503L1068.2 831.789L1061.85 824.062L1054.9 829.776L1061.24 837.503ZM1005.56 874.5C1044.08 850.314 1053.85 843.603 1061.25 837.497L1054.89 829.783C1048.09 835.393 1038.93 841.742 1000.24 866.031L1005.56 874.5ZM1002.57 875.418C1003.64 875.381 1004.68 875.052 1005.56 874.5L1000.24 866.031C1000.82 865.666 1001.5 865.449 1002.22 865.424L1002.57 875.418ZM978.522 873.315C987.449 875.206 992.876 875.753 1002.57 875.418L1002.22 865.424C993.376 865.73 988.761 865.262 980.594 863.532L978.522 873.315ZM893.549 825.167C920.202 847.526 938.323 858.832 977.858 873.126L981.258 863.722C942.853 849.836 925.752 839.129 899.976 817.506L893.549 825.167ZM891.482 819.598C891.131 821.728 891.959 823.833 893.549 825.167L899.977 817.506C901.028 818.388 901.586 819.784 901.349 821.221L891.482 819.598ZM895.216 804.526C893.455 810.22 892.444 813.749 891.482 819.598L901.349 821.221C902.203 816.032 903.061 813.003 904.769 807.481L895.216 804.526ZM896.332 802.465C895.806 803.098 895.439 803.805 895.216 804.526L904.769 807.482C904.623 807.953 904.379 808.429 904.019 808.861L896.332 802.465ZM926.9 772.344C918.443 778.89 903.831 793.452 896.332 802.465L904.02 808.861C911.162 800.276 925.261 786.259 933.021 780.252L926.9 772.344ZM1023.48 904.231C1027.18 903.551 1029.75 907.947 1027.2 910.826L1019.72 904.19C1015.9 908.488 1019.72 915.089 1025.29 914.066L1023.48 904.231ZM1090.46 885.608C1063.37 896.227 1048.46 899.642 1023.48 904.231L1025.29 914.066C1050.69 909.4 1066.25 905.838 1094.11 894.918L1090.46 885.608ZM1087.95 888.899C1088.11 887.412 1089.07 886.151 1090.46 885.608L1094.11 894.918C1096.19 894.103 1097.65 892.188 1097.89 889.962L1087.95 888.899ZM1087.21 843.408C1089.61 858.679 1090.12 868.585 1087.95 888.899L1097.89 889.962C1100.15 868.805 1099.63 858.019 1097.09 841.855L1087.21 843.408ZM1093.79 845.803C1091.54 847.79 1087.72 846.674 1087.21 843.408L1097.09 841.855C1096.33 837.037 1090.63 835.27 1087.19 838.296L1093.79 845.803ZM1027.2 910.827C1046.85 888.675 1061.77 873.987 1093.79 845.803L1087.19 838.296C1054.95 866.665 1039.72 881.646 1019.72 904.19L1027.2 910.827ZM714.567 930.103C710.537 934.055 713.696 940.866 719.304 940.362L718.41 930.402C722.147 930.066 724.257 934.607 721.568 937.243L714.567 930.103ZM763.503 882.121L714.567 930.103L721.568 937.243L770.505 889.262L763.503 882.121ZM765.394 880.311C764.805 880.873 764.184 881.466 763.536 882.089L770.472 889.293C771.102 888.687 771.708 888.108 772.299 887.544L765.394 880.311ZM775.997 865.519C774.113 871.91 771.458 874.522 765.394 880.311L772.299 887.544C778.41 881.71 782.888 877.511 785.589 868.347L775.997 865.519ZM784.235 844.03C780.507 851.587 778.537 856.705 775.989 865.549L785.598 868.317C787.994 860.001 789.756 855.442 793.203 848.454L784.235 844.03ZM794.982 844.017C792.809 839.654 786.467 839.504 784.235 844.03L793.203 848.454C791.7 851.501 787.47 851.363 786.032 848.476L794.982 844.017ZM832.379 901.387C814.531 880.245 806.523 867.182 794.982 844.017L786.032 848.476C797.871 872.242 806.3 885.997 824.738 907.838L832.379 901.387ZM830.619 910.566C834.03 908.747 834.816 904.274 832.379 901.387L824.738 907.838C823.124 905.926 823.63 902.96 825.915 901.741L830.619 910.566ZM815.804 918.57C820.397 916.069 825.116 913.5 830.619 910.566L825.915 901.742C820.368 904.699 815.614 907.287 811.022 909.787L815.804 918.57ZM815.84 918.55L815.841 918.549L810.985 909.807L810.983 909.808L815.84 918.55ZM815.762 918.592L815.764 918.591L811.058 909.767L811.056 909.769L815.762 918.592ZM787.588 933.536C799.246 927.584 807.299 923.2 815.8 918.572L811.019 909.789C802.529 914.411 794.574 918.741 783.04 924.63L787.588 933.536ZM785.416 934.168C786.167 934.097 786.908 933.883 787.587 933.537L783.041 924.63C783.495 924.398 783.98 924.259 784.479 924.212L785.416 934.168ZM755.58 936.982C763.821 936.202 773.48 935.288 785.415 934.168L784.48 924.211C772.541 925.333 762.879 926.247 754.638 927.026L755.58 936.982ZM755.543 936.985L755.55 936.985L754.668 927.024L754.661 927.024L755.543 936.985ZM719.304 940.362C730.149 939.388 740.489 938.409 755.573 936.983L754.631 927.027C739.542 928.454 729.226 929.43 718.41 930.402L719.304 940.362ZM1223.58 932.106C1223.25 935.534 1218.97 937.03 1216.61 934.355L1224.12 927.752C1220.61 923.76 1214.12 925.98 1213.63 931.155L1223.58 932.106ZM1123.74 1166.25C1184.58 1080.3 1214.32 1028.98 1223.58 932.106L1213.63 931.155C1204.61 1025.45 1176.04 1075.05 1115.57 1160.47L1123.74 1166.25ZM1112.9 1161.9C1112.41 1165.07 1114.39 1167.52 1116.67 1168.39C1118.92 1169.25 1121.94 1168.78 1123.74 1166.25L1115.57 1160.47C1116.76 1158.8 1118.79 1158.5 1120.25 1159.06C1121.73 1159.62 1123.11 1161.3 1122.78 1163.43L1112.9 1161.9ZM1149.15 1020.25C1125.84 1093.26 1118.95 1122.9 1112.9 1161.9L1122.78 1163.43C1128.73 1125.13 1135.45 1096.02 1158.67 1023.29L1149.15 1020.25ZM1154.96 1024.9C1151.8 1026.76 1148.03 1023.75 1149.15 1020.25L1158.67 1023.29C1160.35 1018.04 1154.64 1013.49 1149.89 1016.28L1154.96 1024.9ZM818.41 1131.42C884.782 1125.32 936.977 1117.52 988.607 1101.79C1040.25 1086.05 1091.12 1062.43 1154.96 1024.9L1149.89 1016.28C1086.48 1053.56 1036.35 1076.78 985.691 1092.22C935.014 1107.67 883.596 1115.39 817.495 1121.47L818.41 1131.42ZM821.71 1125.88C822.795 1128.41 821.078 1131.18 818.41 1131.42L817.495 1121.47C813.477 1121.83 810.899 1126.04 812.518 1129.81L821.71 1125.88ZM898.247 1237.69C860.202 1197.75 841.891 1172.97 821.71 1125.88L812.518 1129.81C833.288 1178.28 852.379 1204.03 891.006 1244.59L898.247 1237.69ZM896.273 1236.56C897.051 1236.74 897.729 1237.15 898.247 1237.69L891.006 1244.59C891.791 1245.41 892.816 1246.02 893.97 1246.29L896.273 1236.56ZM1106.33 1253C986.608 1250.28 939.43 1246.77 896.273 1236.56L893.97 1246.29C938.306 1256.79 986.513 1260.28 1106.11 1263L1106.33 1253ZM1104.16 1253.59C1104.82 1253.18 1105.57 1252.98 1106.33 1253L1106.11 1263C1107.25 1263.02 1108.39 1262.72 1109.38 1262.11L1104.16 1253.59ZM1314.22 1072.64C1240.36 1158.62 1194.41 1198.33 1104.16 1253.59L1109.38 1262.11C1200.59 1206.27 1247.32 1165.86 1321.81 1079.16L1314.22 1072.64ZM1313.68 1077.03C1312.96 1075.58 1313.17 1073.86 1314.22 1072.64L1321.81 1079.16C1323.38 1077.33 1323.71 1074.71 1322.62 1072.54L1313.68 1077.03ZM1216.61 934.355C1262.62 986.69 1284.09 1018.22 1313.68 1077.03L1322.62 1072.54C1292.62 1012.92 1270.66 980.688 1224.12 927.752L1216.61 934.355ZM822.295 1226.77C820.152 1224.35 821.612 1220.42 824.959 1220.14L825.783 1230.11C830.771 1229.7 833.015 1223.79 829.779 1220.14L822.295 1226.77ZM774.864 1137.84C776.778 1169.37 789.773 1190.07 822.295 1226.77L829.779 1220.14C797.537 1183.76 786.545 1165.23 784.846 1137.23L774.864 1137.84ZM779.085 1141.57C776.857 1141.7 774.996 1140.01 774.864 1137.84L784.846 1137.23C784.647 1133.94 781.819 1131.38 778.474 1131.59L779.085 1141.57ZM672.495 1108.53C727.518 1134.52 752.753 1143.18 779.085 1141.57L778.474 1131.59C755.057 1133.02 732.042 1125.6 676.767 1099.48L672.495 1108.53ZM678.152 1104.41C678.56 1107.6 675.303 1109.85 672.495 1108.53L676.767 1099.48C672.531 1097.48 667.625 1100.92 668.233 1105.68L678.152 1104.41ZM712.467 1211.97C691.879 1180.42 684.772 1156.17 678.152 1104.41L668.233 1105.68C674.951 1158.21 682.357 1184.13 704.093 1217.43L712.467 1211.97ZM710.165 1210.29C711.107 1210.55 711.925 1211.14 712.467 1211.97L704.093 1217.43C704.902 1218.67 706.144 1219.57 707.56 1219.95L710.165 1210.29ZM824.959 1220.14C779.67 1223.89 754.28 1222.2 710.164 1210.29L707.56 1219.95C752.899 1232.18 779.458 1233.94 825.783 1230.11L824.959 1220.14ZM667.392 947.71C667.698 948.631 667.661 949.631 667.275 950.537L658.078 946.61C657.5 947.963 657.443 949.481 657.902 950.863L667.392 947.71ZM705.817 1006.03C680.768 977.003 674.399 968.803 667.392 947.71L657.902 950.863C665.585 973.989 673.147 983.479 698.246 1012.57L705.817 1006.03ZM736.77 1067.31C732.579 1043.61 724.083 1030.8 706.057 1006.33L698.006 1012.26C715.918 1036.58 723.163 1047.79 726.923 1069.05L736.77 1067.31ZM720.089 1090.74C723.098 1090.85 726.03 1090.98 728.404 1090.72C730.813 1090.46 733.835 1089.7 735.937 1087.02C737.901 1084.52 738.225 1081.36 738.166 1078.53C738.105 1075.58 737.573 1071.85 736.77 1067.31L726.923 1069.05C727.721 1073.57 728.124 1076.63 728.168 1078.74C728.215 1080.98 727.817 1081.17 728.068 1080.85C728.457 1080.35 728.776 1080.62 727.33 1080.78C725.851 1080.94 723.777 1080.87 720.468 1080.74L720.089 1090.74ZM709.338 1090.57C713.517 1090.49 717.044 1090.62 720.089 1090.74L720.468 1080.74C717.421 1080.63 713.635 1080.49 709.136 1080.58L709.338 1090.57ZM615.962 1047.64C616.603 1048.39 617.47 1049.11 618.226 1049.69C619.061 1050.34 620.083 1051.07 621.242 1051.86C623.564 1053.43 626.593 1055.33 630.111 1057.44C637.154 1061.64 646.304 1066.72 655.974 1071.61C665.634 1076.5 675.898 1081.24 685.151 1084.75C694.188 1088.17 702.96 1090.7 709.338 1090.57L709.136 1080.58C704.878 1080.66 697.718 1078.82 688.696 1075.4C679.889 1072.06 669.968 1067.48 660.488 1062.69C651.018 1057.9 642.074 1052.93 635.239 1048.85C631.817 1046.81 628.962 1045.01 626.85 1043.58C625.792 1042.86 624.959 1042.26 624.352 1041.79C623.666 1041.26 623.503 1041.07 623.576 1041.15L615.962 1047.64ZM614.751 1045.51C614.772 1045.56 615.147 1046.68 615.962 1047.64L623.576 1041.15C623.876 1041.51 624.029 1041.81 624.079 1041.92C624.107 1041.98 624.121 1042.01 624.119 1042.01C624.115 1042 624.109 1041.98 624.082 1041.91L614.751 1045.51ZM614.848 1045.68C614.807 1045.61 614.777 1045.55 614.757 1045.51C614.737 1045.47 614.724 1045.44 614.719 1045.42C614.714 1045.41 614.713 1045.41 614.719 1045.43C614.726 1045.44 614.734 1045.46 614.751 1045.51L624.082 1041.91C624.048 1041.82 623.862 1041.31 623.58 1040.81L614.848 1045.68ZM582.011 861.242C587.38 950.809 590.603 1002.25 614.848 1045.68L623.58 1040.81C600.694 999.808 597.412 951.049 591.993 860.644L582.011 861.242ZM582.052 860.09C582.001 860.478 581.988 860.865 582.011 861.242L591.993 860.644C592.008 860.893 592 861.149 591.965 861.41L582.052 860.09ZM593.966 770.617L582.052 860.09L591.965 861.41L603.878 771.937L593.966 770.617ZM634.316 681.654C617.023 690.971 607.324 702.192 601.824 717.081C596.487 731.527 595.215 749.221 593.931 770.982L603.913 771.571C605.219 749.441 606.48 733.334 611.204 720.546C615.764 708.202 623.653 698.758 639.059 690.458L634.316 681.654ZM726.391 658.002C681.673 660.868 659.961 665.427 634.016 681.83L639.359 690.282C663.186 675.218 682.891 670.81 727.031 667.981L726.391 658.002ZM732.161 661.342C731.052 659.071 728.707 657.853 726.391 658.002L727.031 667.981C725.51 668.079 723.935 667.286 723.175 665.73L732.161 661.342ZM735.072 672.29C734.584 668.241 734.124 665.361 732.161 661.342L723.175 665.73C724.403 668.243 724.701 669.806 725.143 673.485L735.072 672.29ZM733.388 689.291C735.397 682.885 735.596 678.94 735.092 672.498L725.123 673.277C725.551 678.751 725.391 681.372 723.846 686.299L733.388 689.291ZM725.051 715.657C726.516 710.617 728.541 703.648 733.354 689.395L723.879 686.195C719.009 700.618 716.941 707.729 715.448 712.866L725.051 715.657ZM723.167 721.925C723.826 719.874 724.393 717.921 725.051 715.657L715.448 712.866C714.783 715.153 714.255 716.971 713.646 718.866L723.167 721.925ZM717.414 726.084C719.982 726.101 722.351 724.465 723.167 721.925L713.646 718.866C714.197 717.152 715.78 716.073 717.479 716.084L717.414 726.084ZM656.827 720.222C679.715 724.38 694.416 725.934 717.414 726.084L717.479 716.084C695.125 715.939 681.003 714.45 658.614 710.383L656.827 720.222ZM659.258 712.723C661.4 713.753 661.812 716.075 661.328 717.553C660.846 719.026 659.153 720.644 656.827 720.222L658.614 710.383C651.849 709.154 648.505 718.647 654.923 721.734L659.258 712.723ZM710.519 738.995C693.178 729.534 680.879 723.124 659.258 712.723L654.923 721.734C676.379 732.056 688.525 738.388 705.729 747.774L710.519 738.995ZM711.813 739.946C711.432 739.578 710.995 739.255 710.519 738.995L705.729 747.773C705.409 747.599 705.124 747.387 704.871 747.144L711.813 739.946ZM744.932 855.413C752.376 846.493 757.607 837.899 760.186 829.09C762.798 820.17 762.605 811.315 759.653 802.103C753.893 784.128 737.58 764.796 711.813 739.946L704.871 747.144C730.778 772.128 745.235 789.88 750.13 805.154C752.505 812.567 752.61 819.378 750.589 826.28C748.536 833.293 744.205 840.677 737.254 849.006L744.932 855.413ZM744.24 856.116C744.488 855.902 744.721 855.666 744.932 855.413L737.255 849.006C737.395 848.837 737.547 848.683 737.712 848.541L744.24 856.116ZM667.275 950.537C683.115 913.434 701.448 892.968 744.239 856.117L737.714 848.539C694.477 885.774 674.802 907.438 658.078 946.61L667.275 950.537Z" fill="white"/>
</svg>
