
<svg width="763" height="687" viewBox="0 0 763 687" fill="none" xmlns="http://www.w3.org/2000/svg">
<path fill-rule="evenodd" clip-rule="evenodd" d="M686.499 391.871C684.077 393.39 682.714 393.641 680.378 391.871C650.466 373.567 636.795 362.057 618.934 338.903C616.159 335.549 616.383 333.716 617.404 331.016C621.244 320.295 625.619 314.679 637.333 305.511C637.462 305.41 637.567 305.278 637.634 305.128L647.42 283.226C648.145 281.523 647.988 280.427 647.42 278.4C629.229 214.096 615.582 178.002 565.01 113.772C564.869 113.593 564.663 113.462 564.441 113.411C550.698 110.288 542.184 109.356 528.08 107.813L526.18 107.605C473.363 103.339 453.364 103.36 431.498 106.465C430.824 106.561 430.249 105.971 430.36 105.299C433.542 85.9534 432.519 69.7034 424.655 31.13C424.556 30.6435 424.103 30.2919 423.607 30.32C379.937 32.7983 353.89 33.1508 304.423 30.2231C303.809 30.1867 303.36 29.6066 303.5 29.0078C305.603 20.0604 308.473 14.6299 318.798 5.15906C318.936 5.03273 319.112 4.94452 319.296 4.91064C334.151 2.17227 344.397 1.41403 364.095 0.725518L384.105 0.725518L422.831 2.60886L468.973 6.37554C483.23 7.17045 490.903 7.95946 504.521 9.43596C528.201 12.7341 541.889 15.2243 568.735 24.555C569.058 24.6674 569.31 24.9468 569.386 25.2807C574.509 47.7994 568.488 61.5257 552.222 82.7528C551.504 83.6905 552.721 84.9224 553.655 84.1988C568.796 72.466 579.009 64.8098 594.451 63.1111C604.293 62.6193 611.377 63.9978 625.993 68.6846C626.148 68.7341 626.293 68.8232 626.407 68.9392C684.657 128.4 716.862 179.243 759.949 302.06C761.623 307.825 762.22 311.074 762.539 316.891L762.539 324.424C762.664 329.442 762.643 332.239 760.499 336.17C760.447 336.264 760.378 336.352 760.299 336.424C730.499 363.784 714.079 377.301 686.499 391.871ZM382.575 57.8142C392.779 66.212 397.873 71.3066 405.999 81.1206L399.878 49.6923C306.438 47.2262 258.994 49.3419 192.122 58.7559C176.441 93.5138 169.147 117.569 158.575 168.107C158.097 183.472 158.846 191.666 162.342 205.421C220.831 319.687 242.079 352.324 274.401 390.459C305.511 388.923 327.358 383.52 374.335 365.623C326.467 337.91 302.775 321.391 269.928 288.994L269.917 288.945C251.551 204.645 240.691 154.801 190.474 107.84C216.437 126.419 229.624 133.928 251.565 140.681C308.626 101.21 336.835 83.4565 382.575 57.8142ZM374.335 81.356C364.755 87.9367 349.476 100.331 341.612 112.902C367.929 110.663 379.096 110.36 388.696 112.549C384.139 98.3665 380.968 91.6734 374.335 81.356ZM289.114 235.907C300.728 224.443 306.597 216.773 314.186 197.534C315.839 179.339 317.798 170.364 323.838 157.513C337.609 148.74 344.83 145.652 355.737 143.388C436.303 139.992 476.942 143.821 527.828 187.882C560.912 247.548 568.609 275.811 562.081 316.538C461.962 371.074 404.289 390.799 300.061 416.355C236.092 421.085 201.689 422.209 141.861 422.593C151.098 461.242 156.929 482.652 173.407 518.408C203.755 520.225 287.527 514.422 318.659 509.463C390.552 492.374 429.139 481.59 496.988 461.673C514.713 445.837 524.022 433.514 539.834 407.291C502.706 407.35 481.247 408.203 441.9 411.293C539.277 369.223 575.855 344.762 619.405 290.76C608.05 238.781 597.034 210.89 571.262 162.81C561.772 149.365 555.825 142.214 543.601 130.44C465.315 124.532 421.058 124.163 341.73 129.734C332.726 131.529 327.735 132.594 319.012 134.678C296.858 139.241 283.221 144.946 257.804 157.984C266.489 188.798 273.728 205.82 289.114 235.907ZM387.401 205.539C367.396 205.265 358.58 208.173 348.557 220.605C344.758 234.619 345.964 241.371 352.677 251.916C396.313 252.445 407.726 248.932 421.066 240.616C424.541 236.927 425.224 233.848 425.186 228.256C420.206 220.02 409.476 214.191 387.401 205.539ZM336.669 206.48C346.057 203.986 349.738 202.066 353.619 198.476C366.302 181.415 378.069 175.328 405.175 169.049L399.29 162.457C383.674 159.74 374.916 158.874 359.269 159.868C348.598 161.876 344.26 165.569 337.846 174.228C334.409 185.351 334.646 192.657 336.669 206.48ZM459.557 222.724C452.802 222.876 449.114 222.728 442.842 221.782C437.755 208.465 435.06 203.338 430.6 199.418C415.347 195.379 405.632 195.04 387.283 196.122C390.905 189.622 409.763 176.456 416.711 174.934C426.845 175.343 431.919 176.775 438.84 180.349C449.715 188.414 457.583 198.763 472.505 220.135C466.305 221.94 463.427 222.512 459.557 222.724ZM454.848 174.228C472.411 177.822 482.241 179.862 499.342 184.116C532.588 217.809 539.805 239.019 539.834 279.46C531.43 296.393 522.712 305.309 504.992 319.716C512.277 247.6 503.398 214.792 454.848 174.228ZM324.913 230.364C325.524 229.889 326.4 230.288 326.475 231.058C328.157 248.342 330.491 256.781 338.799 265.341C338.943 265.489 339.132 265.59 339.336 265.627L358.563 269.101C367.439 270.021 372.677 270.013 382.34 269.337C413.735 266.738 435.929 261.579 476.533 250.208C477.543 249.925 478.264 251.202 477.511 251.931C472.429 256.853 469.093 260.761 464.265 267.689L461.44 270.985C458.444 274.296 456.597 276.102 452.965 279.224L446.373 284.639C439.645 290.189 430.682 296.376 394.108 319.335C393.959 319.428 393.78 319.484 393.604 319.49C384.832 319.793 380.075 319.312 371.981 317.597C335.068 304.251 318.38 293.824 293.554 273C293.285 272.775 293.15 272.42 293.207 272.073C294.065 266.865 294.95 263.76 296.589 258.463C296.627 258.338 296.688 258.223 296.772 258.123C303.688 249.812 317.219 236.339 324.913 230.364ZM413.677 354.518C413.047 355.227 413.673 356.329 414.607 356.157C438.377 351.788 452.803 348.476 478.762 338.302C479.108 338.167 479.358 337.84 479.397 337.47C481.489 317.886 481.002 308.085 478.675 293.254C478.553 292.477 477.61 292.151 477.02 292.671C446.679 319.374 432.401 333.422 413.677 354.518ZM125.107 381.028C124.172 381.113 123.647 379.977 124.318 379.32L170.581 333.959C171.187 333.376 171.768 332.821 172.327 332.287C178.095 326.781 181.475 323.554 183.647 316.185C185.978 308.093 187.741 303.513 191.11 296.674C191.474 295.935 192.53 295.94 192.897 296.678C203.94 318.836 211.726 331.531 228.863 351.837C229.275 352.325 229.135 353.077 228.572 353.378C223.373 356.15 218.911 358.579 214.584 360.935L214.57 360.942L214.556 360.95L214.554 360.951C206.506 365.333 198.923 369.461 187.94 375.069C187.827 375.126 187.699 375.163 187.573 375.175C176.26 376.237 167.105 377.104 159.296 377.842L159.262 377.846L159.254 377.846L159.242 377.847L159.226 377.849C145.041 379.191 135.298 380.113 125.107 381.028ZM600.235 377.032C599.656 376.373 598.553 376.736 598.47 377.609C589.804 468.033 562.212 515.829 504.853 596.876C504.245 597.736 502.878 597.215 503.04 596.175C508.712 559.684 515.174 531.839 537.141 463.028C537.42 462.153 536.452 461.38 535.66 461.845C415.183 532.666 344.364 550.535 218.93 562.069C218.255 562.131 217.824 562.846 218.092 563.47C237.48 608.691 255.198 632.631 291.497 670.741C291.63 670.882 291.804 670.982 291.992 671.027C333.436 680.834 378.626 684.152 491.98 686.725C492.172 686.729 492.37 686.677 492.534 686.576C578.48 633.951 622.386 595.994 692.651 514.212C692.914 513.906 692.969 513.458 692.788 513.098C664.579 457.043 644.015 426.841 600.235 377.032ZM225.783 655.589C226.604 655.521 226.995 654.53 226.449 653.914C195.838 619.366 184.485 600.788 182.764 572.637C182.73 572.078 182.246 571.646 181.688 571.68C158.15 573.106 135.299 565.495 83.1457 540.857C82.4318 540.519 81.608 541.111 81.7083 541.894C88.0225 591.232 94.9011 614.99 114.931 645.683C115.065 645.888 115.276 646.041 115.513 646.105C157.847 657.524 182.451 659.163 225.783 655.589ZM71.738 393.522C71.6426 393.746 71.6323 394.005 71.7089 394.235C78.666 415.171 85.2688 423.555 109.02 451.079C126.046 474.191 133.503 485.568 137.27 506.873C140.305 524.04 138.282 523.963 126.309 523.51C123.423 523.4 119.958 523.269 115.847 523.352C95.7292 523.759 35.5993 489.516 31.0986 484.362C30.9341 484.173 30.8326 483.917 30.7327 483.665C30.6701 483.507 30.6082 483.351 30.5318 483.214C8.21936 443.218 5.13699 395.753 0.0276821 310.515C0.023845 310.451 0.0260946 310.385 0.0345586 310.321L11.3219 225.549C13.7759 183.962 16.1227 161.494 47.1053 144.801C70.6788 129.898 90.2962 125.648 132.37 122.949C132.767 122.924 133.152 123.136 133.326 123.494C134.825 126.572 135.183 128.675 135.622 132.324C136.064 137.969 135.894 141.08 134.21 146.449C129.622 160.034 127.683 166.705 126.282 171.526C125.659 173.668 125.143 175.446 124.547 177.302C124.415 177.715 124.022 177.993 123.588 177.99C102.259 177.85 88.6437 176.425 67.438 172.586C66.2845 172.377 65.7512 174.007 66.8074 174.516C86.9834 184.228 98.5229 190.244 114.786 199.117C114.865 199.16 114.94 199.216 115.004 199.278C163.961 246.492 173.307 269.547 146.034 302.231C146.013 302.256 145.99 302.282 145.965 302.306C145.949 302.321 145.934 302.336 145.917 302.35C105.17 337.441 87.1635 357.399 71.738 393.522Z" fill="#9400FF"/>
</svg>

